<svg width="35" height="35" viewBox="0 0 35 35" fill="none" xmlns="http://www.w3.org/2000/svg">
<g clip-path="url(#clip0_198_18465)">
<path d="M21.7 23.975C21.8725 24.35 22.185 24.6425 22.5704 24.79C22.9559 24.9375 23.3839 24.9283 23.7626 24.7643L28.042 22.8463C28.3653 22.704 28.6467 22.4809 28.8589 22.1984C29.071 21.9159 29.207 21.5836 29.2535 21.2333L29.7336 17.8004C29.7808 17.4171 29.7244 17.0281 29.5703 16.674L27.3239 11.6573C27.1973 11.3723 27.0076 11.1198 26.7689 10.9189C26.5303 10.7181 26.2491 10.5742 25.9466 10.4983L20.9241 9.19333C20.8326 8.76244 20.6604 8.35275 20.4166 7.98583V1.16667C20.4166 0.857247 20.2937 0.560501 20.0749 0.341709C19.8561 0.122916 19.5594 0 19.25 0L15.75 0C15.4405 0 15.1438 0.122916 14.925 0.341709C14.7062 0.560501 14.5833 0.857247 14.5833 1.16667V7.98583C14.3395 8.35275 14.1673 8.76244 14.0758 9.19333L9.05912 10.4942C8.75563 10.5701 8.47341 10.7141 8.23387 10.9154C7.99433 11.1166 7.80376 11.3697 7.67662 11.6556L5.42495 16.6833C5.27189 17.0382 5.21689 17.4276 5.26571 17.8109L5.74579 21.2333C5.79198 21.5834 5.92742 21.9156 6.13909 22.1982C6.35076 22.4807 6.63154 22.7041 6.95445 22.8468L11.2361 24.7666C11.5415 24.9031 11.8828 24.9379 12.2094 24.8656C12.5361 24.7934 12.8309 24.6181 13.0503 24.3656C13.2697 24.113 13.4021 23.7966 13.4279 23.4631C13.4538 23.1295 13.3717 22.7965 13.1938 22.5132L12.6781 21.6895L16.4535 13.2592C17.1348 13.4723 17.8651 13.4723 18.5465 13.2592L22.3218 21.6895L21.809 22.5062C21.6707 22.7229 21.5884 22.9705 21.5693 23.2268C21.5503 23.4832 21.5952 23.7403 21.7 23.975ZM19.25 1.16667V6.89033C18.7189 6.58014 18.115 6.41668 17.5 6.41668C16.885 6.41668 16.281 6.58014 15.75 6.89033V1.16667H19.25ZM11.5943 21.2532C11.5219 21.4159 11.4906 21.594 11.5032 21.7717C11.5158 21.9494 11.572 22.1213 11.6666 22.2723L12.2062 23.1338C12.2488 23.2056 12.2677 23.2889 12.2601 23.372C12.2525 23.4551 12.2188 23.5336 12.1638 23.5964C12.1089 23.6592 12.0355 23.703 11.9542 23.7215C11.8728 23.7401 11.7877 23.7324 11.711 23.6997L7.42812 21.7793C7.28656 21.7166 7.16356 21.6184 7.07099 21.4942C6.97842 21.3701 6.9194 21.2242 6.89962 21.0706L6.42245 17.6558C6.401 17.4835 6.42535 17.3087 6.49304 17.1488L8.73712 12.1322C8.79297 12.0068 8.87661 11.8958 8.98172 11.8076C9.08683 11.7193 9.21065 11.6562 9.34379 11.6229L14.0367 10.4061C14.102 10.8634 14.2573 11.3033 14.4934 11.7004C14.7296 12.0975 15.0421 12.4439 15.4128 12.7196L11.5943 21.2532ZM15.1666 9.91667C15.1666 9.45518 15.3035 9.00405 15.5599 8.62034C15.8162 8.23662 16.1807 7.93755 16.607 7.76095C17.0334 7.58434 17.5025 7.53814 17.9552 7.62817C18.4078 7.7182 18.8235 7.94043 19.1499 8.26675C19.4762 8.59307 19.6984 9.00883 19.7885 9.46146C19.8785 9.91408 19.8323 10.3832 19.6557 10.8096C19.4791 11.236 19.18 11.6004 18.7963 11.8568C18.4126 12.1132 17.9614 12.25 17.5 12.25C16.8811 12.25 16.2876 12.0042 15.85 11.5666C15.4125 11.129 15.1666 10.5355 15.1666 9.91667ZM19.5854 12.7213C19.9561 12.4456 20.2685 12.0992 20.5047 11.7022C20.7409 11.3051 20.8961 10.8652 20.9615 10.4078L25.6585 11.6258C25.7905 11.6592 25.9133 11.7221 26.0175 11.8098C26.1216 11.8975 26.2045 12.0077 26.2599 12.1322L28.5022 17.1418C28.5709 17.3006 28.5966 17.4746 28.5769 17.6464L28.098 21.0723C28.078 21.2259 28.0187 21.3718 27.9259 21.4958C27.8332 21.6199 27.71 21.7179 27.5683 21.7805L23.2878 23.6991C23.2107 23.732 23.1251 23.7396 23.0434 23.7208C22.9617 23.7019 22.8881 23.6576 22.8332 23.5941C22.7783 23.5307 22.7451 23.4515 22.7382 23.3679C22.7313 23.2843 22.7511 23.2007 22.7949 23.1292L23.3333 22.2723C23.4283 22.1213 23.4847 21.9492 23.4975 21.7713C23.5103 21.5934 23.4792 21.415 23.4068 21.252L19.5854 12.7213Z" fill="#0383FD"/>
<path d="M32.1703 29.75C31.8716 29.7415 31.5734 29.7785 31.2859 29.8597C30.9588 29.4592 30.5465 29.1369 30.0789 28.916C29.6114 28.6952 29.1004 28.5816 28.5834 28.5833C28.2254 28.5838 27.8696 28.6387 27.5281 28.7461C27.1479 28.1582 26.5685 27.7271 25.8961 27.532C25.2237 27.3369 24.5035 27.3908 23.8677 27.6838C23.4115 27.2977 22.8655 27.0326 22.2799 26.9131C21.6943 26.7936 21.088 26.8236 20.517 27.0002C20.1347 26.5801 19.6688 26.2446 19.1493 26.015C18.6298 25.7854 18.068 25.6667 17.5 25.6667C16.932 25.6667 16.3703 25.7854 15.8508 26.015C15.3312 26.2446 14.8654 26.5801 14.483 27.0002C13.912 26.8236 13.3058 26.7936 12.7202 26.9131C12.1346 27.0326 11.5885 27.2977 11.1324 27.6838C10.4965 27.3908 9.77633 27.3369 9.10396 27.532C8.43158 27.7271 7.85213 28.1582 7.47194 28.7461C7.13047 28.6387 6.77465 28.5838 6.41669 28.5833C5.89963 28.5816 5.38869 28.6952 4.92114 28.916C4.45359 29.1369 4.04122 29.4592 3.71411 29.8597C3.42647 29.7762 3.12734 29.7392 2.82802 29.75C2.06907 29.7704 1.34824 30.087 0.819727 30.6321C0.29122 31.1772 -0.00299464 31.9075 2.29853e-05 32.6667V33.25C2.29853e-05 33.7141 0.184397 34.1593 0.512586 34.4874C0.840775 34.8156 1.28589 35 1.75002 35H33.25C33.7142 35 34.1593 34.8156 34.4875 34.4874C34.8157 34.1593 35 33.7141 35 33.25V32.6667C35.0027 31.9072 34.7082 31.1769 34.1794 30.6318C33.6505 30.0868 32.9294 29.7703 32.1703 29.75ZM33.8334 33.25C33.8334 33.4047 33.7719 33.5531 33.6625 33.6625C33.5531 33.7719 33.4047 33.8333 33.25 33.8333H1.75002C1.59531 33.8333 1.44694 33.7719 1.33754 33.6625C1.22815 33.5531 1.16669 33.4047 1.16669 33.25V32.6667C1.15983 32.2096 1.33471 31.7686 1.65291 31.4404C1.97111 31.1123 2.40657 30.9239 2.86361 30.9167H2.91669C3.17464 30.9146 3.42945 30.9733 3.66044 31.0882C3.79135 31.1548 3.94258 31.1696 4.08392 31.1296C4.22526 31.0896 4.34629 30.9977 4.42286 30.8723C4.72895 30.369 5.21413 30 5.78099 29.8396C6.34785 29.6791 6.95442 29.739 7.47894 30.0073C7.55171 30.0447 7.63153 30.0663 7.71322 30.0709C7.79491 30.0754 7.87665 30.0627 7.95312 30.0336C8.02959 30.0045 8.09908 29.9597 8.15708 29.902C8.21508 29.8443 8.26029 29.775 8.28977 29.6987C8.38419 29.4535 8.53291 29.2329 8.72477 29.0535C8.91662 28.874 9.14663 28.7404 9.39754 28.6625C9.64844 28.5847 9.91372 28.5646 10.1735 28.604C10.4332 28.6433 10.6807 28.741 10.8973 28.8896C11.0152 28.9705 11.1587 29.0052 11.3005 28.9873C11.4424 28.9693 11.5727 28.8999 11.6667 28.7922C12.0034 28.4187 12.4506 28.1624 12.943 28.0605C13.4355 27.9587 13.9476 28.0165 14.4049 28.2258C14.5289 28.287 14.6707 28.3021 14.8049 28.2685C14.9392 28.2348 15.057 28.1546 15.1375 28.042C15.4071 27.6679 15.7617 27.3632 16.1722 27.153C16.5826 26.9428 17.0371 26.8332 17.4983 26.8332C17.9594 26.8332 18.4139 26.9428 18.8244 27.153C19.2348 27.3632 19.5895 27.6679 19.859 28.042C19.9395 28.1546 20.0574 28.2348 20.1916 28.2685C20.3258 28.3021 20.4676 28.287 20.5917 28.2258C21.0494 28.0157 21.5622 27.9574 22.0554 28.0593C22.5486 28.1612 22.9964 28.4179 23.3334 28.7922C23.4276 28.8999 23.5581 28.9692 23.7 28.9869C23.842 29.0047 23.9855 28.9696 24.1034 28.8884C24.32 28.7398 24.5674 28.6421 24.8272 28.6028C25.0869 28.5635 25.3522 28.5835 25.6031 28.6613C25.854 28.7392 26.084 28.8729 26.2759 29.0523C26.4677 29.2318 26.6164 29.4524 26.7109 29.6975C26.7403 29.7738 26.7856 29.8431 26.8436 29.9008C26.9016 29.9585 26.971 30.0034 27.0475 30.0325C27.124 30.0616 27.2057 30.0743 27.2874 30.0697C27.3691 30.0652 27.4489 30.0435 27.5217 30.0061C28.0462 29.7378 28.6528 29.6779 29.2196 29.8384C29.7865 29.9989 30.2717 30.3678 30.5778 30.8712C30.6543 30.9965 30.7754 31.0884 30.9167 31.1284C31.0581 31.1684 31.2093 31.1536 31.3402 31.087C31.6063 30.9596 31.9005 30.9019 32.195 30.9193C32.4895 30.9368 32.7748 31.0287 33.0241 31.1867C33.2733 31.3446 33.4783 31.5632 33.6199 31.8221C33.7615 32.081 33.8349 32.3716 33.8334 32.6667V33.25Z" fill="#0383FD"/>
<path d="M18.0834 9.33334H16.9167C16.762 9.33334 16.6136 9.3948 16.5042 9.5042C16.3948 9.61359 16.3334 9.76197 16.3334 9.91668C16.3334 10.0714 16.3948 10.2198 16.5042 10.3292C16.6136 10.4386 16.762 10.5 16.9167 10.5H18.0834C18.2381 10.5 18.3865 10.4386 18.4959 10.3292C18.6052 10.2198 18.6667 10.0714 18.6667 9.91668C18.6667 9.76197 18.6052 9.61359 18.4959 9.5042C18.3865 9.3948 18.2381 9.33334 18.0834 9.33334Z" fill="#0383FD"/>
<path d="M7.58337 31.5H6.41671C6.262 31.5 6.11362 31.5615 6.00423 31.6709C5.89483 31.7803 5.83337 31.9286 5.83337 32.0833C5.83337 32.238 5.89483 32.3864 6.00423 32.4958C6.11362 32.6052 6.262 32.6667 6.41671 32.6667H7.58337C7.73808 32.6667 7.88646 32.6052 7.99585 32.4958C8.10525 32.3864 8.16671 32.238 8.16671 32.0833C8.16671 31.9286 8.10525 31.7803 7.99585 31.6709C7.88646 31.5615 7.73808 31.5 7.58337 31.5Z" fill="#0383FD"/>
<path d="M13.4166 30.9167H12.25C12.0952 30.9167 11.9469 30.9781 11.8375 31.0875C11.7281 31.1969 11.6666 31.3453 11.6666 31.5C11.6666 31.6547 11.7281 31.8031 11.8375 31.9125C11.9469 32.0219 12.0952 32.0833 12.25 32.0833H13.4166C13.5713 32.0833 13.7197 32.0219 13.8291 31.9125C13.9385 31.8031 14 31.6547 14 31.5C14 31.3453 13.9385 31.1969 13.8291 31.0875C13.7197 30.9781 13.5713 30.9167 13.4166 30.9167Z" fill="#0383FD"/>
<path d="M28.5834 31.5H27.4167C27.262 31.5 27.1136 31.5615 27.0042 31.6709C26.8948 31.7803 26.8334 31.9286 26.8334 32.0833C26.8334 32.238 26.8948 32.3864 27.0042 32.4958C27.1136 32.6052 27.262 32.6667 27.4167 32.6667H28.5834C28.7381 32.6667 28.8865 32.6052 28.9959 32.4958C29.1052 32.3864 29.1667 32.238 29.1667 32.0833C29.1667 31.9286 29.1052 31.7803 28.9959 31.6709C28.8865 31.5615 28.7381 31.5 28.5834 31.5Z" fill="#0383FD"/>
<path d="M22.75 30.9167H21.5833C21.4286 30.9167 21.2803 30.9781 21.1709 31.0875C21.0615 31.1969 21 31.3453 21 31.5C21 31.6547 21.0615 31.8031 21.1709 31.9125C21.2803 32.0219 21.4286 32.0833 21.5833 32.0833H22.75C22.9047 32.0833 23.0531 32.0219 23.1625 31.9125C23.2719 31.8031 23.3333 31.6547 23.3333 31.5C23.3333 31.3453 23.2719 31.1969 23.1625 31.0875C23.0531 30.9781 22.9047 30.9167 22.75 30.9167Z" fill="#0383FD"/>
<path d="M18.0834 29.1667H16.9167C16.762 29.1667 16.6136 29.2281 16.5042 29.3375C16.3948 29.4469 16.3334 29.5953 16.3334 29.75C16.3334 29.9047 16.3948 30.0531 16.5042 30.1625C16.6136 30.2719 16.762 30.3333 16.9167 30.3333H18.0834C18.2381 30.3333 18.3865 30.2719 18.4959 30.1625C18.6052 30.0531 18.6667 29.9047 18.6667 29.75C18.6667 29.5953 18.6052 29.4469 18.4959 29.3375C18.3865 29.2281 18.2381 29.1667 18.0834 29.1667Z" fill="#0383FD"/>
<path d="M10.738 12.3008C10.5971 12.2375 10.4369 12.2326 10.2924 12.2873C10.148 12.342 10.0311 12.4517 9.96744 12.5924L7.87852 17.2591C7.8154 17.4003 7.81097 17.5609 7.86622 17.7054C7.92146 17.8499 8.03185 17.9666 8.1731 18.0297C8.31435 18.0928 8.47489 18.0972 8.6194 18.042C8.76392 17.9867 8.88056 17.8763 8.94369 17.7351L11.0326 13.0684C11.0948 12.9275 11.0988 12.7677 11.0436 12.6239C10.9884 12.48 10.8785 12.3639 10.738 12.3008Z" fill="#0383FD"/>
<path d="M26.0563 17.738C26.0876 17.808 26.1323 17.871 26.1879 17.9237C26.2436 17.9764 26.309 18.0175 26.3806 18.0449C26.4521 18.0722 26.5284 18.0852 26.605 18.0831C26.6815 18.081 26.7569 18.0638 26.8269 18.0326C26.8968 18.0013 26.9599 17.9566 27.0126 17.901C27.0652 17.8453 27.1064 17.7799 27.1338 17.7083C27.1611 17.6368 27.1741 17.5605 27.172 17.4839C27.1699 17.4074 27.1527 17.3319 27.1215 17.262L25.0326 12.5953C25.0013 12.5254 24.9566 12.4623 24.9009 12.4096C24.8453 12.357 24.7798 12.3158 24.7083 12.2885C24.5638 12.2332 24.4032 12.2376 24.262 12.3008C24.192 12.332 24.1289 12.3767 24.0763 12.4324C24.0236 12.488 23.9824 12.5535 23.9551 12.625C23.8998 12.7696 23.9043 12.9301 23.9674 13.0713L26.0563 17.738Z" fill="#0383FD"/>
</g>
<defs>
<clipPath id="clip0_198_18465">
<rect width="35" height="35" fill="white"/>
</clipPath>
</defs>
</svg>
