<svg width="35" height="35" fill="none" xmlns="http://www.w3.org/2000/svg"><path d="M30.847 26.156a5.885 5.885 0 00-3.954-4.627l-4.614-1.538v-.686h-1.072v1.006l-.8 3.202-2.167-2.599h-1.575l-2.166 2.6-.8-3.203v-1.006h-1.072v.686L8.013 21.53a5.887 5.887 0 00-3.954 4.627l-1.182 7.092h29.152l-1.182-7.092zM7.85 32.176H4.144l.172-1.035 3.594.449-.059.586zm6.992 0H8.93l.477-4.773-1.067-.107-.323 3.227-3.524-.44.625-3.751a4.817 4.817 0 013.235-3.785l4.43-1.477 1.19 4.753 1.208-1.452.64.96-.977 6.845zm4.137 0h-3.054l1.014-7.099-1.043-1.565 1.27-1.525h.57l1.272 1.525-1.044 1.565 1.015 7.099zm7.587-4.88l-1.067.106.477 4.773h-5.914l-.978-6.844.64-.96 1.21 1.452 1.188-4.753 4.431 1.477a4.816 4.816 0 013.235 3.785l.625 3.75-3.524.441-.323-3.227zm.488 4.88l-.059-.586 3.594-.45.172 1.036h-3.707z" fill="#0383FD"/><path d="M8.948 10.114a2.655 2.655 0 00-.612 1.684c0 1.376 1.046 2.5 2.383 2.651a5.861 5.861 0 001.49 2.516l2.092 2.091a2.66 2.66 0 001.896.786h2.513c.716 0 1.39-.28 1.896-.785l2.091-2.092a5.866 5.866 0 001.49-2.516 2.676 2.676 0 002.382-2.651c0-.641-.235-1.222-.611-1.684a1.606 1.606 0 001.148-1.534 1.61 1.61 0 00-1.61-1.609h-.075a8.08 8.08 0 00-5.823-6.67V0h-4.29v.302a8.08 8.08 0 00-5.823 6.67H9.41A1.61 1.61 0 007.8 8.58c0 .726.487 1.334 1.148 1.534zm.461 1.684c0-.698.45-1.288 1.072-1.51v2.506c0 .175.01.35.026.522a1.607 1.607 0 01-1.098-1.518zm13.942.996c0 1.29-.501 2.501-1.413 3.413l-2.091 2.091c-.3.3-.714.471-1.138.471h-2.513a1.62 1.62 0 01-1.138-.47l-2.09-2.092a4.795 4.795 0 01-1.415-3.413V10.19h11.798v2.605zm1.048.521c.015-.172.025-.346.025-.52v-2.507a1.607 1.607 0 011.073 1.51c0 .707-.462 1.303-1.098 1.517zM15.308 1.42V5.9h1.072V1.073h2.145v4.826h1.073v-4.48a7.009 7.009 0 014.744 5.552H10.564a7.009 7.009 0 014.744-5.552zM9.409 8.044h16.088a.537.537 0 010 1.072H9.409a.537.537 0 010-1.072z" fill="#0383FD"/><path d="M21.743 4.826h-1.072V5.9h1.072V4.826zm-7.507 0h-1.073V5.9h1.072V4.826z" fill="#0383FD"/></svg>