<svg width="35" height="35" fill="none" xmlns="http://www.w3.org/2000/svg"><g clip-path="url(#clip0_198_18490)" fill="#0383FD"><path d="M21.7 23.975a1.58 1.58 0 002.063.79l4.279-1.919a2.059 2.059 0 001.212-1.613l.48-3.433a2.162 2.162 0 00-.164-1.126l-2.246-5.017a2.056 2.056 0 00-1.377-1.159l-5.023-1.305a3.495 3.495 0 00-.507-1.207v-6.82A1.167 1.167 0 0019.25 0h-3.5a1.167 1.167 0 00-1.167 1.167v6.819a3.497 3.497 0 00-.507 1.207l-5.017 1.301a2.06 2.06 0 00-1.382 1.162l-2.252 5.027a2.159 2.159 0 00-.16 1.128l.48 3.422a2.059 2.059 0 001.21 1.614l4.281 1.92a1.56 1.56 0 001.958-2.254l-.516-.824 3.775-8.43a3.506 3.506 0 002.094 0l3.775 8.43-.513.817a1.553 1.553 0 00-.109 1.469zM19.25 1.167V6.89a3.47 3.47 0 00-3.5 0V1.167h3.5zm-7.656 20.086a1.088 1.088 0 00.073 1.02l.54.86a.395.395 0 01-.496.567l-4.283-1.92a.9.9 0 01-.528-.71l-.477-3.414a.987.987 0 01.07-.507l2.244-5.017a.904.904 0 01.607-.51l4.693-1.216a3.5 3.5 0 001.376 2.314l-3.819 8.533zm3.573-11.336a2.333 2.333 0 114.666 0 2.333 2.333 0 01-4.666 0zm4.418 2.804a3.501 3.501 0 001.377-2.313l4.697 1.218a.9.9 0 01.6.506l2.243 5.01a.987.987 0 01.075.504l-.479 3.426a.9.9 0 01-.53.709l-4.28 1.918a.396.396 0 01-.493-.57l.538-.857a1.088 1.088 0 00.074-1.02l-3.822-8.53zM32.17 29.75a2.946 2.946 0 00-.884.11 3.474 3.474 0 00-2.703-1.277c-.358 0-.713.056-1.055.163a2.909 2.909 0 00-3.66-1.062A3.56 3.56 0 0020.517 27a4.078 4.078 0 00-6.034 0 3.558 3.558 0 00-3.35.684 2.91 2.91 0 00-3.661 1.062 3.534 3.534 0 00-1.055-.163 3.475 3.475 0 00-2.703 1.277 2.814 2.814 0 00-.886-.11A2.906 2.906 0 000 32.667v.583A1.75 1.75 0 001.75 35h31.5A1.75 1.75 0 0035 33.25v-.583a2.907 2.907 0 00-2.83-2.917zm1.663 3.5a.583.583 0 01-.583.583H1.75a.583.583 0 01-.583-.583v-.583a1.724 1.724 0 011.697-1.75h.053a1.64 1.64 0 01.743.171.584.584 0 00.763-.216 2.333 2.333 0 013.056-.865.584.584 0 00.81-.308 1.739 1.739 0 012.608-.81.583.583 0 00.77-.097 2.363 2.363 0 012.738-.566.584.584 0 00.732-.184 2.91 2.91 0 014.722 0 .583.583 0 00.733.184 2.363 2.363 0 012.741.566.583.583 0 00.77.096 1.74 1.74 0 012.608.81.582.582 0 00.81.308 2.333 2.333 0 013.057.865.583.583 0 00.762.216 1.742 1.742 0 012.493 1.58v.583z"/><path d="M18.083 9.333h-1.166a.583.583 0 000 1.167h1.166a.583.583 0 100-1.167zM7.583 31.5H6.417a.583.583 0 000 1.167h1.166a.583.583 0 000-1.167zm5.834-.583H12.25a.583.583 0 100 1.166h1.167a.583.583 0 100-1.166zm15.166.583h-1.166a.583.583 0 000 1.167h1.166a.583.583 0 000-1.167zm-5.833-.583h-1.167a.583.583 0 100 1.166h1.167a.583.583 0 100-1.166zm-4.667-1.75h-1.166a.583.583 0 100 1.166h1.166a.583.583 0 100-1.166zM10.738 12.3a.583.583 0 00-.77.292l-2.09 4.667a.583.583 0 101.066.476l2.089-4.667a.583.583 0 00-.295-.767zm15.318 5.438a.581.581 0 00.957.163.582.582 0 00.108-.639l-2.088-4.667a.584.584 0 00-1.066.476l2.09 4.667z"/></g><defs><clipPath id="clip0_198_18490"><path fill="#fff" d="M0 0h35v35H0z"/></clipPath></defs></svg>