<svg width="35" height="35" fill="none" xmlns="http://www.w3.org/2000/svg"><path d="M18.002 9.74c-4.555 0-8.26 3.704-8.26 8.26 0 4.554 3.705 8.259 8.26 8.259s8.26-3.705 8.26-8.26c0-4.554-3.706-8.26-8.26-8.26zm0 15.339a7.088 7.088 0 01-7.08-7.08 7.088 7.088 0 017.08-7.08 7.088 7.088 0 017.08 7.08 7.088 7.088 0 01-7.08 7.08z" fill="#0383FD"/><path d="M21.125 15.222l-4.303 4.303-1.943-1.943a.59.59 0 10-.835.834l2.36 2.36a.59.59 0 00.835 0l4.72-4.72a.59.59 0 10-.834-.834z" fill="#0383FD"/><path d="M29.725 16.08a.605.605 0 01-.158-.792c.577-.917 1.414-2.842-1.469-3.549-.294-.072-.511-.375-.449-.67.277-1.295-.11-3.174-2.716-2.717-.297.052-.612-.152-.67-.449-.196-.992-1.037-3.002-3.549-1.47-.258.158-.67.073-.792-.157-.39-.737-2.098-2.436-3.84 0-.176.246-.58.309-.792.157-1.144-.819-2.99-1.023-3.549 1.47a.598.598 0 01-.671.448c-1-.19-3.193-.128-2.715 2.716.05.298-.15.627-.448.671-1.164.174-2.959 1.11-1.47 3.548.157.258.112.656-.158.792-1.033.522-2.216 2.38 0 3.843.252.166.315.524.158.782-1.489 2.439.306 3.373 1.47 3.548.299.045.498.373.448.671-.478 2.844 1.715 2.907 2.716 2.716a.598.598 0 01.671.448c.558 2.494 2.406 2.288 3.549 1.47.212-.152.616-.089.792.157 1.743 2.437 3.45.738 3.84 0 .122-.23.534-.316.792-.158 2.512 1.533 3.353-.477 3.548-1.47.059-.296.374-.5.671-.449 2.605.458 2.992-1.421 2.716-2.716-.063-.295.155-.599.45-.67 2.883-.707 2.045-2.633 1.468-3.55a.597.597 0 01.157-.79c.77-.533 2.436-2.027 0-3.83zm-.843 5.878c.2.323.077.767-.38.917-.836.276-2.378.503-1.967 2.945.079.465-.17.743-.702.702-.81-.062-2.476-.39-2.944 1.968-.092.465-.548.566-.916.38-1.589-.802-2.224-.904-3.474.69-.239.306-.737.293-.993 0-.671-.764-1.431-1.94-3.473-.69-.356.218-.76.05-.917-.38-.408-1.118-.528-2.31-2.945-1.966-.373.053-.768-.2-.701-.702.127-.96.272-2.502-1.968-2.945-.346-.068-.616-.53-.38-.917.895-1.463.77-2.38-.704-3.48-.167-.123-.437-.656.013-.978 1.436-1.028 1.586-2.01.69-3.473-.236-.387.035-.85.38-.917 2.241-.443 2.096-1.985 1.969-2.945-.067-.502.329-.755.701-.702 2.417.343 2.537-.848 2.945-1.967.156-.43.561-.598.917-.38 2.042 1.252 2.803.075 3.473-.69.256-.292.754-.305.993 0 1.25 1.595 1.885 1.493 3.474.69.368-.185.824-.084.916.381.468 2.357 2.135 2.03 2.944 1.968.533-.04.78.237.702.701-.41 2.443 1.13 2.67 1.967 2.946.457.15.58.594.38.916-1.312 2.108.075 2.946.691 3.474.24.207.38.694.056.947-.737.51-2.059 1.4-.747 3.507z" fill="#0383FD"/></svg>