<svg width="35" height="35" fill="none" xmlns="http://www.w3.org/2000/svg"><path d="M30.07 9.688h-3.515V8.515h.615c.323 0 .557-.27.557-.594V5.58c0-.324-.233-.579-.557-.579h-7.324c-.324 0-.616.255-.616.579v2.343c0 .324.292.594.616.594h.556v1.171H5.93A2.935 2.935 0 003 12.61v8.965a2.93 2.93 0 002.93 2.937h5.598c.55 0 1.053.249 1.382.67l3.28 4.183a2.949 2.949 0 002.306 1.123H30.07A2.919 2.919 0 0033 27.575v-2.46a.587.587 0 00-1.172 0v2.46c0 .97-.788 1.741-1.758 1.741H18.496c-.533 0-1.05-.245-1.383-.67l-3.28-4.192a2.91 2.91 0 00-2.305-1.114H5.93c-.97 0-1.758-.82-1.758-1.758H5.93c.323 0 .586-.27.586-.593v-2.385c.513-.133.833-.444 1.083-.688.29-.283.445-.419.791-.419.347 0 .502.136.792.42.326.317.771.752 1.61.752.84 0 1.285-.435 1.61-.753.291-.283.446-.419.793-.419.346 0 .501.136.792.42.325.317.771.752 1.61.752.84 0 1.285-.435 1.61-.753.29-.283.446-.419.792-.419.347 0 .502.136.792.42.326.317.772.752 1.61.752.84 0 1.286-.435 1.611-.753.29-.283.445-.419.792-.419.347 0 .502.136.792.42.326.317.771.752 1.61.752.84 0 1.285-.435 1.61-.753.291-.283.446-.419.793-.419.346 0 .501.136.792.42.325.317.771.752 1.61.752.84 0 1.285-.435 1.611-.753.076-.074.143-.137.206-.192v2.117a.587.587 0 001.172 0V12.61a2.935 2.935 0 00-2.93-2.922zm-9.668-3.516h6.153v1.172h-6.153V6.172zM5.344 20.41H4.172v-5.86h1.172v5.86zm25.46-3.332c-.29.283-.446.42-.793.42-.347 0-.502-.137-.792-.42-.325-.318-.771-.753-1.61-.753-.84 0-1.285.435-1.61.753-.29.283-.446.42-.793.42-.346 0-.501-.137-.792-.42-.325-.318-.77-.753-1.61-.753-.839 0-1.285.435-1.61.753-.29.283-.445.42-.792.42-.347 0-.502-.137-.792-.42-.326-.318-.772-.753-1.61-.753-.84 0-1.285.435-1.61.753-.291.283-.446.42-.793.42-.347 0-.502-.137-.792-.42-.325-.318-.771-.753-1.61-.753-.84 0-1.285.435-1.61.753-.29.283-.446.42-.793.42-.346 0-.501-.137-.792-.42-.325-.318-.771-.753-1.61-.753-.839 0-1.284.435-1.61.753a3.41 3.41 0 01-.264.24v-3.36a.58.58 0 00-.586-.58H4.172v-.768c0-.956.788-1.75 1.758-1.75h14.472v3.098a.586.586 0 001.172 0V8.516h3.809v5.442a.586.586 0 001.172 0v-3.099h3.515c.97 0 1.758.795 1.758 1.75v3.797c-.479.141-.784.438-1.024.672z" fill="#0383FD"/><path d="M32.414 23.064a.586.586 0 100-1.172.586.586 0 000 1.172z" fill="#0383FD"/></svg>