<svg width="35" height="35" fill="none" xmlns="http://www.w3.org/2000/svg"><g clip-path="url(#clip0_198_18519)"><mask id="a" style="mask-type:luminance" maskUnits="userSpaceOnUse" x="1" y="1" width="33" height="33"><path d="M1.333 1.333H34V34H1.333V1.333z" fill="#fff"/></mask><g mask="url(#a)" stroke="#0383FD" stroke-width=".957" stroke-miterlimit="10" stroke-linecap="round" stroke-linejoin="round"><path d="M33.01 33.522H2.323a.51.51 0 01-.51-.51v-1.094a.51.51 0 01.51-.51H33.01a.51.51 0 01.51.51v1.093a.51.51 0 01-.51.51z"/><path d="M32.464 31.407h-9.513V19.782h9.513v11.627zm.546-11.627H22.406a.51.51 0 01-.51-.51v-1.093a.51.51 0 01.51-.51H33.01a.51.51 0 01.51.51v1.093a.51.51 0 01-.51.51z"/><path d="M29.84 24.009h-4.264a.51.51 0 01-.51-.51v-1.094a.51.51 0 01.51-.51h4.264a.51.51 0 01.51.51v1.093a.51.51 0 01-.51.51zm-6.889 5.285h9.513m-11.627 2.113H2.868v-1.603a.51.51 0 01.51-.51h16.949a.51.51 0 01.51.51v1.604z"/><path d="M19.78 29.294H3.925V11.252c0-1.127.914-2.041 2.042-2.041h11.771c1.128 0 2.042.914 2.042 2.041v18.041zM3.925 13.439H19.78M3.925 15.553H19.78"/><path d="M10.796 3.926v3.17h2.114V4.984c0-.584.473-1.057 1.057-1.057h11.627c.583 0 1.057.473 1.057 1.057v10.57h2.114V3.926a2.114 2.114 0 00-2.114-2.114H12.91a2.114 2.114 0 00-2.114 2.114z"/><path d="M30.35 17.667h-5.285v-1.604a.51.51 0 01.51-.51h4.265a.51.51 0 01.51.51v1.604zM13.967 9.21H9.739V7.608a.51.51 0 01.51-.51h3.207a.51.51 0 01.51.51v1.604zM6.04 15.553v13.74m2.113-13.74v13.74M6.04 18.195h2.113M6.04 20.31h2.113M6.04 22.423h2.113M6.04 24.537h2.113M6.04 26.651h2.113m18.531-13.212h2.08"/></g></g><defs><clipPath id="clip0_198_18519"><path fill="#fff" transform="translate(1.333 1.333)" d="M0 0h32.667v32.667H0z"/></clipPath></defs></svg>