<svg width="35" height="35" viewBox="0 0 35 35" fill="none" xmlns="http://www.w3.org/2000/svg">
<g clip-path="url(#clip0_198_18519)">
<mask id="mask0_198_18519" style="mask-type:luminance" maskUnits="userSpaceOnUse" x="1" y="1" width="33" height="33">
<path d="M1.33313 1.33332H33.9998V34H1.33313V1.33332Z" fill="white"/>
</mask>
<g mask="url(#mask0_198_18519)">
<path d="M33.0107 33.5215H2.32188C2.04 33.5215 1.81146 33.2929 1.81146 33.0111V31.9179C1.81146 31.636 2.04 31.4075 2.32188 31.4075H33.0107C33.2926 31.4075 33.5211 31.636 33.5211 31.9179V33.0111C33.5211 33.2929 33.2926 33.5215 33.0107 33.5215Z" stroke="#0383FD" stroke-width="0.957032" stroke-miterlimit="10" stroke-linecap="round" stroke-linejoin="round"/>
<path d="M32.4642 31.4075H22.9513V19.7806H32.4642V31.4075Z" stroke="#0383FD" stroke-width="0.957032" stroke-miterlimit="10" stroke-linecap="round" stroke-linejoin="round"/>
<path d="M33.0107 19.7806H22.4047C22.1228 19.7806 21.8943 19.5521 21.8943 19.2702V18.177C21.8943 17.8952 22.1228 17.6666 22.4047 17.6666H33.0107C33.2926 17.6666 33.5211 17.8952 33.5211 18.177V19.2702C33.5211 19.5521 33.2926 19.7806 33.0107 19.7806Z" stroke="#0383FD" stroke-width="0.957032" stroke-miterlimit="10" stroke-linecap="round" stroke-linejoin="round"/>
<path d="M29.8398 24.0086H25.5757C25.2938 24.0086 25.0652 23.7801 25.0652 23.4982V22.405C25.0652 22.1231 25.2938 21.8946 25.5757 21.8946H29.8398C30.1216 21.8946 30.3502 22.1231 30.3502 22.405V23.4982C30.3502 23.7801 30.1216 24.0086 29.8398 24.0086Z" stroke="#0383FD" stroke-width="0.957032" stroke-miterlimit="10" stroke-linecap="round" stroke-linejoin="round"/>
<path d="M22.9513 29.2935H32.4642" stroke="#0383FD" stroke-width="0.957032" stroke-miterlimit="10" stroke-linecap="round" stroke-linejoin="round"/>
<path d="M20.837 31.4075H2.86826V29.8039C2.86826 29.5221 3.09673 29.2935 3.37867 29.2935H20.3266C20.6085 29.2935 20.837 29.5221 20.837 29.8039V31.4075Z" stroke="#0383FD" stroke-width="0.957032" stroke-miterlimit="10" stroke-linecap="round" stroke-linejoin="round"/>
<path d="M19.7801 29.2935H3.92523V11.2524C3.92523 10.1249 4.83932 9.21072 5.9669 9.21072H17.7384C18.866 9.21072 19.7801 10.1249 19.7801 11.2524V29.2935Z" stroke="#0383FD" stroke-width="0.957032" stroke-miterlimit="10" stroke-linecap="round" stroke-linejoin="round"/>
<path d="M3.92523 13.4387H19.7801" stroke="#0383FD" stroke-width="0.957032" stroke-miterlimit="10" stroke-linecap="round" stroke-linejoin="round"/>
<path d="M3.92523 15.5527H19.7801" stroke="#0383FD" stroke-width="0.957032" stroke-miterlimit="10" stroke-linecap="round" stroke-linejoin="round"/>
<path d="M10.7958 3.92576V7.09672H12.9098V4.98277C12.9098 4.39904 13.383 3.92576 13.9668 3.92576H25.5936C26.1774 3.92576 26.6506 4.39904 26.6506 4.98277V15.5527H28.7646V3.92576C28.7646 2.75824 27.8181 1.8118 26.6506 1.8118H12.9098C11.7422 1.8118 10.7958 2.75824 10.7958 3.92576Z" stroke="#0383FD" stroke-width="0.957032" stroke-miterlimit="10" stroke-linecap="round" stroke-linejoin="round"/>
<path d="M30.3502 17.6666H25.0652V16.0631C25.0652 15.7811 25.2938 15.5527 25.5757 15.5527H29.8398C30.1216 15.5527 30.3502 15.7811 30.3502 16.0631V17.6666Z" stroke="#0383FD" stroke-width="0.957032" stroke-miterlimit="10" stroke-linecap="round" stroke-linejoin="round"/>
<path d="M13.9668 9.21075H9.73883V7.60715C9.73883 7.32527 9.96737 7.09673 10.2492 7.09673H13.4564C13.7383 7.09673 13.9668 7.32527 13.9668 7.60715V9.21075Z" stroke="#0383FD" stroke-width="0.957032" stroke-miterlimit="10" stroke-linecap="round" stroke-linejoin="round"/>
<path d="M6.03922 15.5527V29.2935" stroke="#0383FD" stroke-width="0.957032" stroke-miterlimit="10" stroke-linecap="round" stroke-linejoin="round"/>
<path d="M8.15317 15.5527V29.2935" stroke="#0383FD" stroke-width="0.957032" stroke-miterlimit="10" stroke-linecap="round" stroke-linejoin="round"/>
<path d="M6.03922 18.1951H8.15317" stroke="#0383FD" stroke-width="0.957032" stroke-miterlimit="10" stroke-linecap="round" stroke-linejoin="round"/>
<path d="M6.03922 20.3091H8.15317" stroke="#0383FD" stroke-width="0.957032" stroke-miterlimit="10" stroke-linecap="round" stroke-linejoin="round"/>
<path d="M6.03922 22.4231H8.15317" stroke="#0383FD" stroke-width="0.957032" stroke-miterlimit="10" stroke-linecap="round" stroke-linejoin="round"/>
<path d="M6.03922 24.5371H8.15317" stroke="#0383FD" stroke-width="0.957032" stroke-miterlimit="10" stroke-linecap="round" stroke-linejoin="round"/>
<path d="M6.03922 26.6511H8.15317" stroke="#0383FD" stroke-width="0.957032" stroke-miterlimit="10" stroke-linecap="round" stroke-linejoin="round"/>
<path d="M26.6837 13.4387H28.7647" stroke="#0383FD" stroke-width="0.957032" stroke-miterlimit="10" stroke-linecap="round" stroke-linejoin="round"/>
</g>
</g>
<defs>
<clipPath id="clip0_198_18519">
<rect width="32.6667" height="32.6667" fill="white" transform="translate(1.33331 1.33331)"/>
</clipPath>
</defs>
</svg>
