<svg width="35" height="35" fill="none" xmlns="http://www.w3.org/2000/svg"><g clip-path="url(#clip0_198_18569)" fill="#0383FD"><path d="M33.867 31.704v-19.37c0-5.634-4.567-10.2-10.2-10.2-5.634 0-10.2 4.566-10.2 10.2v1.237a1.7 1.7 0 00-1.134 1.596v5.666a1.7 1.7 0 001.134 1.596v1.238a1.133 1.133 0 01-2.267 0V4.296A1.696 1.696 0 0010.633 1H2.7a1.696 1.696 0 00-.567 3.296v19.37c0 5.634 4.567 10.2 10.2 10.2 5.634 0 10.2-4.566 10.2-10.2V22.43a1.7 1.7 0 001.134-1.596v-5.666a1.7 1.7 0 00-1.134-1.596v-1.238a1.133 1.133 0 012.267 0v19.371A1.696 1.696 0 0025.367 35H33.3a1.696 1.696 0 00.567-3.296zM2.7 2.134h7.933a.567.567 0 110 1.133H2.7a.567.567 0 010-1.134zm9.633 30.6a9.077 9.077 0 01-9.066-9.067V4.4h6.8v19.267a2.267 2.267 0 004.533 0v-1.134h6.8v1.134a9.077 9.077 0 01-9.067 9.066zm10.2-11.9a.567.567 0 01-.566.566h-7.934a.567.567 0 01-.566-.567v-5.666c0-.313.253-.567.566-.567h7.934c.313 0 .566.254.566.567v5.666zm1.134-10.767a2.267 2.267 0 00-2.267 2.266v1.134h-6.8v-1.134a9.067 9.067 0 1118.133 0V31.6h-6.8V12.333a2.267 2.267 0 00-2.266-2.266zm9.633 23.8h-7.933a.567.567 0 010-1.134H33.3a.567.567 0 010 1.134z"/><path d="M4.967 5.533A.567.567 0 004.4 6.1v1.133a.567.567 0 001.133 0V6.1a.567.567 0 00-.566-.567zm0 3.4A.567.567 0 004.4 9.5v7.933a.567.567 0 001.133 0V9.5a.567.567 0 00-.566-.567z"/></g><defs><clipPath id="clip0_198_18569"><path fill="#fff" d="M0 0h35v35H0z"/></clipPath></defs></svg>