<svg width="35" height="35" fill="none" xmlns="http://www.w3.org/2000/svg"><g clip-path="url(#clip0_198_18578)" fill="#0383FD"><path d="M15.75 2.333V1.75A1.75 1.75 0 0014 0H7a1.75 1.75 0 00-1.75 1.75v.583a1.75 1.75 0 001.166 1.643V17.5A11.675 11.675 0 0014 28.415v2.502a1.75 1.75 0 00-1.75 1.75v.583c0 .966.783 1.75 1.75 1.75h8.166a1.75 1.75 0 001.75-1.75v-.583a1.75 1.75 0 00-1.75-1.75v-2.502a11.658 11.658 0 00-4.083-22.582c-1.188 0-2.368.185-3.5.546V3.976a1.75 1.75 0 001.167-1.643zM6.416 1.75c0-.322.262-.583.584-.583h7c.322 0 .583.26.583.583v.583a.583.583 0 01-.583.584H7a.583.583 0 01-.584-.584V1.75zM22.75 32.667v.583a.583.583 0 01-.584.583H14a.583.583 0 01-.584-.583v-.583c0-.323.261-.584.584-.584h8.166c.322 0 .584.261.584.584zM21 30.917h-5.834v-2.134c1.911.512 3.923.512 5.834 0v2.134zM28.583 17.5c0 5.799-4.701 10.5-10.5 10.5s-10.5-4.701-10.5-10.5V4.083h5.833v2.742a11.438 11.438 0 00-3.318 2.182.583.583 0 10.803.846A10.476 10.476 0 0118.083 7c5.796.007 10.493 4.704 10.5 10.5z"/><path d="M11.973 11.63a1.16 1.16 0 00-.96.583l-1.05 1.817a1.16 1.16 0 00-.024 1.123l.54 1.036v2.625l-.54 1.035c-.186.354-.177.778.023 1.124l1.05 1.817c.199.347.561.567.96.583l1.17.05 2.275 1.314.628.986c.214.337.585.54.984.54h2.1c.399 0 .77-.203.984-.54l.628-.986 2.278-1.313 1.17-.051c.398-.016.761-.237.96-.583l1.05-1.818c.2-.345.209-.77.023-1.123l-.54-1.035v-2.625l.54-1.036a1.162 1.162 0 00-.024-1.123l-1.05-1.817a1.16 1.16 0 00-.96-.584l-1.17-.05-2.272-1.312-.628-.987a1.163 1.163 0 00-.984-.54h-2.101c-.399 0-.77.204-.984.54l-.629.987-2.275 1.313-1.172.05zm1.628 1.028l2.525-1.458a.59.59 0 00.201-.192l.705-1.108h2.1l.704 1.108a.59.59 0 00.201.192l2.526 1.458a.575.575 0 00.266.078l1.312.058 1.05 1.817-.607 1.162a.588.588 0 00-.066.27v2.915a.59.59 0 00.066.27l.607 1.162-1.05 1.817-1.312.059a.575.575 0 00-.266.077l-2.526 1.459a.59.59 0 00-.2.192l-.705 1.108h-2.1l-.704-1.108a.59.59 0 00-.2-.192l-2.526-1.459a.574.574 0 00-.266-.077l-1.312-.059-1.05-1.816.607-1.163a.587.587 0 00.066-.27v-2.916a.587.587 0 00-.066-.27l-.607-1.162 1.05-1.818 1.312-.058a.573.573 0 00.265-.076z"/><path d="M18.083 22.744a5.244 5.244 0 10-5.25-5.244 5.253 5.253 0 005.25 5.244zm0-9.322a4.078 4.078 0 11-.012 8.156 4.078 4.078 0 01.012-8.155z"/><path d="M18.083 19.25a1.75 1.75 0 100-3.5 1.75 1.75 0 000 3.5zm0-2.333a.583.583 0 110 1.166.583.583 0 010-1.166z"/></g><defs><clipPath id="clip0_198_18578"><path fill="#fff" d="M0 0h35v35H0z"/></clipPath></defs></svg>