<svg width="35" height="35" fill="none" xmlns="http://www.w3.org/2000/svg"><g clip-path="url(#clip0_198_18590)" fill="#0383FD"><path d="M10.59 9.433a11.39 11.39 0 00-3.09 4.302.567.567 0 101.05.428 10.246 10.246 0 012.782-3.873.567.567 0 10-.741-.857z"/><path d="M3.267 20.267h.566v13.6A1.134 1.134 0 004.967 35H6.1a1.133 1.133 0 001.133-1.133v-7.571a13.455 13.455 0 004.534 3.78v3.79A1.134 1.134 0 0012.9 35h1.133a1.133 1.133 0 001.134-1.133v-2.57c1.867.404 3.8.404 5.666 0v2.57A1.133 1.133 0 0021.967 35H23.1a1.134 1.134 0 001.133-1.133v-3.79c1.773-.91 3.321-2.2 4.534-3.781v7.57A1.134 1.134 0 0029.9 35h1.133a1.133 1.133 0 001.134-1.133v-13.6h.566a1.133 1.133 0 001.134-1.134v-2.266a1.133 1.133 0 00-1.134-1.134h-1.339a13.616 13.616 0 00-9.427-10.73V2.7a1.7 1.7 0 00-1.7-1.7h-4.534a1.7 1.7 0 00-1.7 1.7v2.303a13.617 13.617 0 00-9.427 10.73h-1.34a1.133 1.133 0 00-1.133 1.134v2.266a1.133 1.133 0 001.134 1.134zm1.7 13.6v-13.6H6.1v13.6H4.967zM9.5 21.24l-1.218-.974h2.436L9.5 21.24zm2.267-.362v2.176l-1.36-1.088 1.36-1.088zm-3.174 1.088l-1.36 1.088v-2.176l1.36 1.088zm-1.259 2.458L9.5 22.692l2.267 1.813v4.29a12.328 12.328 0 01-4.433-4.37zm5.566 9.442v-13.6h1.133v13.6H12.9zm5.1-12.58l-1.53-1.02h3.06L18 21.287zm2.833-.527v2.416l-1.813-1.21 1.813-1.206zm-3.853 1.207l-1.813 1.208v-2.416l1.813 1.208zm-1.813 8.165v-5.596L18 22.646l2.833 1.89v5.595a12.477 12.477 0 01-5.666 0zm6.8 3.735v-13.6H23.1v13.6h-1.133zm6.8-10.812l-1.36-1.088 1.36-1.088v2.176zM26.5 21.24l-1.218-.974h2.436l-1.218.974zm-.907.726l-1.36 1.088v-2.176l1.36 1.088zm-1.36 6.827v-4.289l2.267-1.813 2.166 1.733a12.327 12.327 0 01-4.433 4.37zm6.8 5.073H29.9v-13.6h1.133v13.6zM15.167 2.7a.567.567 0 01.566-.567h4.534a.567.567 0 01.566.567v2.01a13.09 13.09 0 00-5.666 0V2.7zM18 5.533a12.48 12.48 0 0112.244 10.2H5.756A12.48 12.48 0 0118 5.533zM3.267 16.867h29.466v2.266H3.267v-2.266z"/></g><defs><clipPath id="clip0_198_18590"><path fill="#fff" transform="translate(1 1)" d="M0 0h34v34H0z"/></clipPath></defs></svg>