<svg width="42" height="49" fill="none" xmlns="http://www.w3.org/2000/svg"><path d="M31.03 0H2.993a2.864 2.864 0 00-2.86 2.86v9.728a.954.954 0 001.907 0V2.86c0-.526.427-.954.953-.954H31.03c.525 0 .953.428.953.954v35.474a.955.955 0 01-.953.954H2.993a.955.955 0 01-.953-.954V20.63a.954.954 0 00-1.908 0v17.705a2.864 2.864 0 002.861 2.861H31.03a2.864 2.864 0 002.86-2.86V2.86A2.864 2.864 0 0031.03 0z" fill="#0383FD"/><path d="M1.76 16.183a.96.96 0 00-1.348 0 .964.964 0 00-.28.674.96.96 0 00.28.675.96.96 0 00.674.28.96.96 0 00.674-.28.961.961 0 00.28-.675.963.963 0 00-.28-.674zm3.82 27.206a.96.96 0 00-.674-.28.96.96 0 00-.674.28.96.96 0 00-.28.674.956.956 0 001.628.674.959.959 0 00.28-.674.96.96 0 00-.28-.675zM36.757 3.82a.954.954 0 00-.953.954v37.382a.955.955 0 01-.954.954H8.721a.954.954 0 000 1.907h26.13a2.864 2.864 0 002.86-2.861V4.774a.954.954 0 00-.954-.953z" fill="#0383FD"/><path d="M40.578 7.629a.954.954 0 00-.954.954v37.381a.955.955 0 01-.954.954H8.727a.954.954 0 000 1.907H38.67a2.864 2.864 0 002.861-2.86V8.582a.954.954 0 00-.953-.954zm-24.997-.572H6.426a.954.954 0 00-.953.954v9.154c0 .527.427.954.953.954h9.155a.954.954 0 00.954-.954V8.011a.954.954 0 00-.954-.954zm-.954 9.155H7.38V8.964h7.247v7.248zm-2.114 6.236a.954.954 0 00-1.35 0L8.63 24.983l-1.18-1.179a.954.954 0 00-1.348 1.349l1.853 1.853a.954.954 0 001.348 0l3.21-3.21a.954.954 0 000-1.348z" fill="#0383FD"/><path d="M28.137 23.745H17.012a.954.954 0 000 1.907h11.125a.954.954 0 000-1.907zm-.54-16.688H20.92a.954.954 0 000 1.907h6.676a.954.954 0 000-1.907zm0 4.577H20.92a.954.954 0 000 1.907h6.676a.954.954 0 000-1.907zm0 4.577H20.92a.954.954 0 000 1.908h6.676a.954.954 0 000-1.908zM12.513 29.73a.954.954 0 00-1.35 0L8.63 32.267l-1.18-1.18a.954.954 0 00-1.348 1.349l1.853 1.853a.954.954 0 001.348 0l3.21-3.21a.954.954 0 000-1.348zm15.624 1.263H17.012a.954.954 0 000 1.907h11.125a.954.954 0 100-1.907z" fill="#0383FD"/></svg>