<svg width="54" height="46" fill="none" xmlns="http://www.w3.org/2000/svg"><path d="M16.319 10.709a.87.87 0 00.645-.6.86.86 0 00-.214-.85.878.878 0 00-.853-.228C8.9 10.757 3.99 16.988 4 24.135c0 .478.39.865.873.865a.869.869 0 00.872-.865C5.737 17.783 10.1 12.243 16.32 10.71z" fill="#0383FD"/><path d="M51.3 29.767H39.6v-5.411a19.717 19.717 0 00-3.488-11.236l.488-6.1c.071-.88-.29-1.74-.969-2.302a24.823 24.823 0 00-8.83-4.621 2.676 2.676 0 00-2.59.672l-3.876 3.773c-.175-.005-.355-.026-.535-.026C8.87 4.528.012 13.404 0 24.356v16.233A5.41 5.41 0 005.4 46h27.9a6.304 6.304 0 006.228-5.411H47.7v2.706A2.703 2.703 0 0050.4 46h.9c1.491 0 2.7-1.211 2.7-2.706V32.472a2.703 2.703 0 00-2.7-2.705zM25.47 2.057a.866.866 0 01.839-.228 23.041 23.041 0 018.184 4.286.902.902 0 01.313.763l-.336 4.187c-.223-.246-.433-.503-.669-.739A19.62 19.62 0 0022.704 4.75l2.766-2.693zM10.8 44.197H5.4a3.604 3.604 0 01-3.6-3.608v-8.117a.9.9 0 01.9-.901h.692a.9.9 0 01.79.469 19.687 19.687 0 007.947 7.996c.29.155.472.459.471.788v2.47a.9.9 0 01-.9.902h-.9zm27-4.51a4.51 4.51 0 01-4.5 4.51H14.234a2.68 2.68 0 00.166-.903v-2.47a2.676 2.676 0 00-1.447-2.391 18.199 18.199 0 01-7.193-7.26 2.7 2.7 0 00-2.368-1.406H2.7c-.307.003-.612.06-.9.166v-5.577c0-9.962 8.059-18.037 18-18.037s18 8.076 18 18.037v15.331zm1.8-.902v-7.214h2.7v1.803a.9.9 0 101.8 0v-1.803h3.6v7.214h-8.1zm12.6 4.51a.9.9 0 01-.9.901h-.9a.9.9 0 01-.9-.901V31.57h1.8a.9.9 0 01.9.901v10.822z" fill="#0383FD"/><path d="M20 10a1 1 0 100-2 1 1 0 000 2zm9 28.5a3.5 3.5 0 107 0 3.5 3.5 0 00-7 0zm5.25 0a1.75 1.75 0 11-3.5 0 1.75 1.75 0 013.5 0zM20 15c-5.523 0-10 4.477-10 10s4.477 10 10 10 10-4.477 10-10c-.006-5.52-4.48-9.993-10-10zm0 18.182A8.182 8.182 0 1128.182 25 8.19 8.19 0 0120 33.182z" fill="#0383FD"/></svg>