<svg width="66" height="53" fill="none" xmlns="http://www.w3.org/2000/svg"><path d="M9.507 42.695c-2.018 0-3.66 1.61-3.66 3.59 0 1.978 1.642 3.589 3.66 3.589 2.018 0 3.66-1.61 3.66-3.59 0-1.979-1.642-3.59-3.66-3.59zm0 5.283c-.951 0-1.726-.76-1.726-1.694 0-.934.775-1.694 1.726-1.694.952 0 1.727.76 1.727 1.694 0 .934-.775 1.694-1.727 1.694zm40.721 1.896c2.018 0 3.66-1.61 3.66-3.59 0-1.979-1.642-3.589-3.66-3.589-2.018 0-3.66 1.61-3.66 3.59 0 1.979 1.642 3.589 3.66 3.589zm0-5.283c.952 0 1.726.76 1.726 1.693 0 .934-.774 1.694-1.726 1.694s-1.726-.76-1.726-1.694c0-.934.774-1.693 1.726-1.693zm-36.485-.513a.933.933 0 00-.144.843 4.512 4.512 0 010 2.727.933.933 0 00.145.843.973.973 0 00.778.386h30.691a.973.973 0 00.779-.386.933.933 0 00.145-.843 4.51 4.51 0 010-2.727.934.934 0 00-.145-.843.974.974 0 00-.779-.386H14.522a.974.974 0 00-.779.386zm1.961 1.51h28.327a6.41 6.41 0 000 1.393H15.704a6.439 6.439 0 000-1.393zM25.85 29.815a.957.957 0 00-.967.948c0 .524.433.948.967.948h2.25a.957.957 0 00.966-.948.957.957 0 00-.966-.948h-2.25zM5.502 33.2a.97.97 0 00.87-.533l2.282-4.582a.94.94 0 00-.444-1.268.975.975 0 00-1.293.436l-2.283 4.582a.94.94 0 00.445 1.268.977.977 0 00.423.096zm4.573 0a.969.969 0 00.87-.533l2.282-4.582a.94.94 0 00-.444-1.268.975.975 0 00-1.293.436l-2.283 4.582a.94.94 0 00.444 1.268.979.979 0 00.424.096zm4.573 0a.969.969 0 00.87-.533l2.282-4.582a.94.94 0 00-.445-1.268.975.975 0 00-1.293.436l-2.282 4.582a.94.94 0 00.444 1.268.978.978 0 00.424.096z" fill="#0383FD"/><path d="M65.647 27.8l-2.382-5.41a.934.934 0 00-.041-.081l-4.076-9.547a.974.974 0 00-1.265-.508.941.941 0 00-.518 1.24l3.746 8.776-1.28.542-8.562-16.116-.19-.357-1.133-2.133-.003-.006a1.613 1.613 0 01-.071-.156c-.007-.017-.012-.035-.018-.053a1.523 1.523 0 01-.037-.116l-.013-.056a1.531 1.531 0 01-.038-.309 1.561 1.561 0 01.987-1.475c.809-.326 1.741.052 2.079.843l3.026 7.087a.974.974 0 001.265.508.941.941 0 00.518-1.24l-3.026-7.087C53.868.397 51.806-.439 50.018.282a3.499 3.499 0 00-1.972 2.013 3.379 3.379 0 00-.15.533l-14.702 5.93a5.575 5.575 0 00-.766-.054h-3.914c-1.382 0-2.506 1.103-2.506 2.458v4.072h-2.596c-1.232 0-2.235.983-2.235 2.192v5.384a.3.3 0 01-.303.297H2.236C1.003 23.107 0 24.09 0 25.299v2.3c0 .523.433.948.967.948a.957.957 0 00.967-.948v-2.3a.3.3 0 01.302-.297h18.638c1.233 0 2.236-.983 2.236-2.192v-5.384a.3.3 0 01.302-.297H37.57c.141 0 .267.078.33.202l2.939 5.905c.084.169.128.357.128.545v11.483c0 .199-.165.36-.367.36H2.235a.3.3 0 01-.301-.296v-3.91a.957.957 0 00-.967-.948.957.957 0 00-.967.948v3.91c0 1.209 1.003 2.192 2.236 2.192h17.022v2.071H8.598c-3.763 0-6.825 3.002-6.825 6.694 0 3.69 3.062 6.692 6.825 6.692h42.54c3.763 0 6.824-3.002 6.824-6.694 0-3.69-3.061-6.692-6.825-6.692H39.368v-2.07H40.6c1.269 0 2.3-1.013 2.3-2.257V23.781c0-.474-.111-.95-.324-1.376l-2.94-5.905a2.314 2.314 0 00-1.768-1.246v-.485L50.005 8.42l8.046 15.146-9.076 3.845c-.614.26-1 .83-1.005 1.486a1.633 1.633 0 00.98 1.503l8.738 3.871a4.353 4.353 0 001.775.375 4.36 4.36 0 001.71-.346l2.226-.944c2.182-.924 3.19-3.417 2.248-5.557zM21.19 37.52h16.244v2.071H21.19v-2.07zm29.946 3.967c2.697 0 4.892 2.151 4.892 4.799 0 2.644-2.195 4.796-4.892 4.796H8.598c-2.697 0-4.891-2.152-4.891-4.8 0-2.643 2.194-4.795 4.891-4.795h42.539zM35.934 14.04v1.194h-7.992v-4.072c0-.31.257-.562.573-.562h3.913a3.58 3.58 0 01.955.131c.02.006.04.01.06.017a3.486 3.486 0 01.513.197c.027.012.052.026.078.039a3.514 3.514 0 01.414.247l.069.048a3.464 3.464 0 01.408.35l.038.039c.06.062.12.125.175.192l.002.002c.06.073.119.15.174.227 0 .002.002.003.003.005a3.375 3.375 0 01.158.248 3.394 3.394 0 01.444 1.381l.003.037a3.7 3.7 0 01.012.28zm1.763-1.33a5.279 5.279 0 00-.99-1.96l-.035-.043a5.703 5.703 0 00-.34-.378l-.081-.08a5.222 5.222 0 00-.13-.123l-.043-.039a5.436 5.436 0 00-.362-.296l12.38-4.994.012.024c.038.088.078.176.123.26l.88 1.658-11.414 5.971zm24.935 18.906l-2.227.944a2.43 2.43 0 01-1.92-.016l-8.187-3.627 9.398-3.982c.026-.009.053-.018.08-.03l2.097-.891 1.999 4.537c.52 1.18-.037 2.555-1.24 3.065z" fill="#0383FD"/><path d="M38.082 28.552c.686 0 1.244-.547 1.244-1.22v-3.274c0-.183-.044-.367-.126-.535l-2.235-4.489a1.254 1.254 0 00-1.118-.684h-9.875c-.686 0-1.244.547-1.244 1.22v4.459c0 .323.134.639.37.867l3.41 3.304c.234.227.545.352.874.352h8.7zm-11.42-4.806v-3.5h8.754l1.976 3.969v2.441h-7.727l-3.003-2.91z" fill="#0383FD"/></svg>