<svg width="52" height="52" fill="none" xmlns="http://www.w3.org/2000/svg"><mask id="a" style="mask-type:luminance" maskUnits="userSpaceOnUse" x="0" y="0" width="52" height="52"><path d="M0 0h52v52H0V0z" fill="#fff"/></mask><g mask="url(#a)" stroke="#0383FD" stroke-width="2.206" stroke-miterlimit="10" stroke-linecap="round" stroke-linejoin="round"><path d="M17.535 33.036a2.4 2.4 0 00.378-3.368 2.409 2.409 0 00-3.374-.376l-3.803 3.04a2.402 2.402 0 00-.378 3.37 2.408 2.408 0 003.374.374m3 3.744a2.403 2.403 0 00-.377 3.371 2.408 2.408 0 003.374.377l3.803-3.04a2.403 2.403 0 00.377-3.37 2.408 2.408 0 00-3.374-.375m-.805 6.785a2.402 2.402 0 00-.375 3.37 2.408 2.408 0 003.374.374l2.128-1.702a2.402 2.402 0 00.377-3.368 2.409 2.409 0 00-3.374-.377m13.689-7.961l2.718 2.172c1.03.825 1.2 2.341.377 3.37a2.409 2.409 0 01-3.374.374l-2.948-2.352"/><path d="M32.322 37.468l2.948 2.352c1.03.826 1.2 2.342.374 3.371a2.409 2.409 0 01-3.374.377l-2.945-2.355"/><path d="M29.325 41.213l1.47 1.176a2.405 2.405 0 01.378 3.37 2.409 2.409 0 01-3.374.377l-2.142-1.71m23.368-19.983l1.765 3.117c.409.725.152 1.66-.576 2.062l-2.72 1.507a1.527 1.527 0 01-2.065-.572l-7.842-13.87a1.508 1.508 0 01.573-2.06l2.724-1.507a1.522 1.522 0 012.06.572l1.593 2.813m-3.463 15.671c.641-1.386 2.04-2.413 3.647-2.873"/><path d="M38.267 36.076c1.03.825 2.55.656 3.374-.374a2.402 2.402 0 00-.375-3.37l-3.296-2.635c-1.6-1.277-3.409-2.692-5.124-3.923-3.104-2.223-4.632-3.701-8.522-2.919-2.94.593-5.317-.305-5.936-2.85-.398-1.636.996-2.398 3.757-2.643l4.404-.394c.87-.078 1.388-.158 2.796.334l2.657.929c1.796.627 1.555.793 3.423.253l2.73-.791m-24.316-3.066l-2.72-1.507a1.525 1.525 0 00-2.065.572L1.212 27.56a1.51 1.51 0 00.573 2.062l2.72 1.507c.729.403 1.656.15 2.065-.572l7.842-13.87a1.508 1.508 0 00-.573-2.06zm4.557 4.368l-4.546-1.317m-2.922 14.498c-.645-1.386-2.044-2.413-3.65-2.873M26 9.338V4.164m-6.777 7.316l-2.707-4.293M32.78 11.48l2.703-4.293M13.732 36.076l5.479-4.377a2.411 2.411 0 013.374.376 2.403 2.403 0 01-.377 3.371l-5.476 4.374a2.408 2.408 0 01-3.374-.373 2.403 2.403 0 01.374-3.371zm33.045-15.599v-.004"/></g></svg>