<svg width="64" height="21" fill="none" xmlns="http://www.w3.org/2000/svg"><path d="M27.922 20.268h-5.116L26.023.544h5.116l-3.217 19.724zM18.482.544l-4.905 13.554-.58-2.901-1.74-8.86S11.046.544 8.83.544H.762L.657.86s2.478.528 5.379 2.268l4.482 17.14h5.327L24.019.544h-5.537zM58.88 20.268h4.693L59.459.544h-4.113c-1.899 0-2.373 1.477-2.373 1.477l-7.647 18.247h5.326l1.055-2.953h6.54l.632 2.953zm-5.644-7.014l2.69-7.384 1.53 7.384h-4.22zM45.695 5.29l.738-4.219S44.165.228 41.792.228c-2.531 0-8.596 1.107-8.596 6.539 0 5.116 7.12 5.168 7.12 7.858 0 2.69-6.382 2.215-8.491.527l-.739 4.43s2.268 1.108 5.801 1.108c3.481 0 8.808-1.793 8.808-6.75 0-5.116-7.173-5.59-7.173-7.859 0-2.32 5.01-2.004 7.173-.79z" fill="#fff"/></svg>