<svg width="54" height="18" fill="none" xmlns="http://www.w3.org/2000/svg"><path d="M23.373 16.94H19.1L21.787.466h4.273L23.373 16.94zM15.488.466l-4.096 11.32-.485-2.422-1.453-7.4S9.278.466 7.428.466H.688L.6.73s2.07.44 4.493 1.894L8.837 16.94h4.449L20.113.466h-4.625zM49.23 16.94h3.92L49.714.466h-3.436c-1.585 0-1.982 1.233-1.982 1.233L37.91 16.94h4.45l.88-2.467h5.462l.529 2.467zm-4.714-5.858l2.247-6.167 1.277 6.167h-3.524zM38.217 4.43l.617-3.524S36.94.202 34.958.202c-2.115 0-7.18.925-7.18 5.462 0 4.272 5.946 4.316 5.946 6.563 0 2.246-5.33 1.85-7.091.44l-.617 3.7s1.894.925 4.845.925c2.907 0 7.356-1.497 7.356-5.638 0-4.273-5.99-4.669-5.99-6.563 0-1.938 4.184-1.674 5.99-.66z" fill="#0383FD"/></svg>