<svg width="49" height="31" fill="none" xmlns="http://www.w3.org/2000/svg"><g clip-path="url(#clip0_14_6601)"><path d="M31.026 26.515H18.034V3.174h12.992v23.341z" fill="#FF5F00"/><path d="M18.858 14.845c0-4.735 2.217-8.953 5.67-11.671A14.787 14.787 0 0015.353 0C7.153 0 .506 6.646.506 14.845c0 8.198 6.647 14.845 14.847 14.845a14.786 14.786 0 009.176-3.174 14.818 14.818 0 01-5.671-11.671z" fill="#EB001B"/><path d="M48.553 14.845c0 8.198-6.647 14.845-14.847 14.845a14.79 14.79 0 01-9.177-3.174 14.816 14.816 0 005.672-11.671c0-4.735-2.218-8.953-5.672-11.671A14.791 14.791 0 0133.706 0c8.2 0 14.847 6.646 14.847 14.845" fill="#F79E1B"/><path d="M47.6 17.685v.096h.09a.095.095 0 00.048-.012.043.043 0 00.018-.037.04.04 0 00-.018-.036.086.086 0 00-.048-.012h-.09v.001zm.091-.068a.166.166 0 01.108.032.104.104 0 01.038.085.097.097 0 01-.03.074.148.148 0 01-.087.036l.12.137h-.092l-.11-.136h-.036v.136h-.078v-.363h.169-.002zm-.024.49a.307.307 0 00.28-.185.311.311 0 000-.239.312.312 0 00-.162-.16.315.315 0 00-.238 0 .306.306 0 00-.098.064.31.31 0 000 .433.309.309 0 00.218.089m0-.697a.402.402 0 01.368.24.387.387 0 01-.212.513.399.399 0 01-.556-.365.387.387 0 01.244-.36.4.4 0 01.157-.032M10.887 16.01c0-.693.454-1.262 1.196-1.262.71 0 1.188.545 1.188 1.262 0 .718-.479 1.262-1.188 1.262-.742 0-1.196-.569-1.196-1.262zm3.192 0v-1.971h-.857v.48c-.272-.355-.684-.578-1.245-.578-1.105 0-1.972.867-1.972 2.07 0 1.203.866 2.07 1.972 2.07.56 0 .973-.223 1.245-.578v.479h.856V16.01h.001zm28.968 0c0-.693.454-1.262 1.196-1.262.71 0 1.188.545 1.188 1.262 0 .718-.478 1.262-1.188 1.262-.742 0-1.196-.569-1.196-1.262zm3.193 0v-3.554h-.858v2.063c-.272-.355-.685-.578-1.246-.578-1.105 0-1.972.867-1.972 2.07 0 1.203.867 2.07 1.972 2.07.561 0 .974-.223 1.245-.578v.479h.858V16.01zm-21.52-1.302c.552 0 .907.346.997.956h-2.045c.091-.57.437-.956 1.048-.956m.017-.769c-1.155 0-1.964.84-1.964 2.07 0 1.253.84 2.07 2.021 2.07.594 0 1.138-.148 1.617-.553l-.42-.635a1.88 1.88 0 01-1.148.413c-.552 0-1.055-.256-1.179-.966h2.928c.008-.106.017-.214.017-.33-.009-1.228-.769-2.07-1.873-2.07m10.351 2.07c0-.692.454-1.261 1.196-1.261.71 0 1.188.544 1.188 1.262 0 .717-.479 1.262-1.188 1.262-.742 0-1.196-.57-1.196-1.262m3.192 0v-1.97h-.857v.48c-.273-.355-.684-.578-1.245-.578-1.105 0-1.973.867-1.973 2.07 0 1.203.867 2.07 1.973 2.07.56 0 .972-.223 1.245-.578v.479h.857v-1.974zm-8.033 0c0 1.195.832 2.07 2.103 2.07.594 0 .99-.133 1.417-.47l-.412-.693c-.321.231-.66.355-1.032.355-.685-.009-1.188-.503-1.188-1.262 0-.76.503-1.254 1.188-1.262.372 0 .71.123 1.032.355l.412-.693c-.428-.338-.824-.47-1.417-.47-1.27 0-2.103.874-2.103 2.07zm11.052-2.07c-.495 0-.817.231-1.04.577v-.477h-.85v3.94h.859V15.77c0-.652.28-1.014.84-1.014.184-.003.366.031.537.1l.264-.809a1.823 1.823 0 00-.61-.107m-22.98.412c-.413-.272-.981-.412-1.608-.412-.999 0-1.642.478-1.642 1.261 0 .643.479 1.04 1.36 1.163l.406.058c.47.066.692.19.692.412 0 .305-.313.479-.899.479-.594 0-1.022-.19-1.311-.413l-.403.669c.47.346 1.064.511 1.707.511 1.138 0 1.798-.536 1.798-1.286 0-.693-.52-1.055-1.377-1.18l-.404-.058c-.371-.048-.669-.122-.669-.387 0-.288.28-.461.751-.461.503 0 .99.19 1.23.338l.37-.693-.001-.001zm11.062-.412c-.495 0-.817.232-1.039.578v-.48h-.85v3.942h.858v-2.21c0-.652.28-1.014.84-1.014.184-.003.366.031.537.1l.264-.809a1.823 1.823 0 00-.61-.107m-7.316.099H20.66v-1.196h-.867v1.196h-.8v.783h.8v1.798c0 .914.355 1.459 1.37 1.459.372 0 .8-.115 1.072-.305l-.248-.734a1.588 1.588 0 01-.759.223c-.428 0-.568-.264-.568-.66v-1.78h1.402v-.784zM9.246 17.98v-2.474c0-.931-.594-1.558-1.551-1.566-.504-.009-1.023.148-1.386.7-.272-.436-.7-.7-1.303-.7-.421 0-.833.123-1.155.585v-.487h-.858v3.94h.865v-2.185c0-.684.38-1.047.966-1.047.569 0 .857.37.857 1.039v2.193h.867v-2.185c0-.684.395-1.048.964-1.048.586 0 .865.371.865 1.04v2.193l.869.002zm38.844-4.949v-.576h-.15l-.174.396-.173-.396h-.15v.576h.106v-.434l.163.375h.11l.162-.376v.435h.106zm-.953 0v-.477h.192v-.098h-.49v.098h.192v.477h.106z" fill="#fff"/></g><defs><clipPath id="clip0_14_6601"><path fill="#fff" transform="translate(.506)" d="M0 0h48.042v30.249H0z"/></clipPath></defs></svg>