<svg width="64" height="18" fill="none" xmlns="http://www.w3.org/2000/svg"><path d="M.58.125h5.8a2.768 2.768 0 012.316 1.223c.463.649.63 1.446.87 2.205.705 2.354 1.39 4.725 2.095 7.079.018.222.333.296.389.074.722-2.39 1.408-4.762 2.112-7.153.24-.833.463-1.723 1.02-2.427.37-.445.87-.76 1.426-.908.482-.13.963-.074 1.464-.093 1.704 0 3.39-.018 5.095.019-.018 5.93 0 11.84-.018 17.77-1.835-.019-3.67.018-5.504-.019V7.463c-.018-.315-.518-.278-.555 0-1.094 3.465-2.187 6.949-3.28 10.414-1.297.037-2.594 0-3.891.018-1.094-3.465-2.168-6.948-3.28-10.413-.056-.278-.39-.297-.574-.13v10.543c-1.835.019-3.67 0-5.504.019C.58 11.984.58 6.054.58.125zm25.107.019c1.835-.037 3.67.018 5.503-.019.038 3.521 0 7.042.019 10.544.148.148.445.185.537-.056 1.223-2.557 2.428-5.114 3.65-7.69.39-.796.705-1.649 1.335-2.297.278-.26.63-.52 1.038-.5 1.87 0 3.742-.02 5.614 0v17.77a271.39 271.39 0 01-5.503 0V7.37c0-.296-.52-.278-.575 0l-3.446 7.616c-.352.778-.686 1.556-1.223 2.242-.297.37-.723.704-1.223.686h-5.726V.144zM46.07 8.26c5.762-.037 11.525 0 17.288-.019-.186.797-.704 1.483-1.26 2.076a5.951 5.951 0 01-4.207 1.908c-2.112.019-4.206 0-6.318 0-.019 1.89 0 3.78 0 5.689H46.07c0-3.224.018-6.43 0-9.654z" fill="#3DA536"/><path d="M45.365.144h12.916c1.13.074 2.223.537 3.112 1.223 1.297 1.019 2.168 2.557 2.317 4.206a8.184 8.184 0 01-.075 1.779c-2.63.018-5.28 0-7.912 0-.907 0-1.816.037-2.723-.093-2.02-.26-4.021-1.093-5.467-2.576-1.186-1.223-1.927-2.853-2.168-4.54z" fill="#008CD2"/></svg>