<svg width="50" height="28" fill="none" xmlns="http://www.w3.org/2000/svg"><path d="M10.226 15.492l3.301 2.179v4.024l-3.32 5.946.02-12.149z" fill="#62B22F"/><path d="M7.486 13.78l3.292 1.912-9.78 5.936 3.187-5.813 3.301-2.036z" fill="#974995"/><path d="M22.851 8.29l-6.298-.029-3.035-1.827L10.226.67l12.625 7.62z" fill="#EE7024"/><path d="M10.226.669l3.292 5.765.01 7.945-3.32-1.009.018-12.701z" fill="#FBB61B"/><path d="M.97 6.473l3.224 5.87-.01 3.472-3.186 5.813L.969 6.473z" fill="#5A58A3"/><path d="M.97 6.473L22.802 19.83l-6.26.038-12.349-7.525L.97 6.473z" fill="#2188CB"/><path d="M16.553 8.26l6.298.03-9.324 5.727-.01-3.91 3.036-1.846z" fill="#DA0954"/><path d="M34.705 9.203c.762-.695 1.818-1.047 2.845-1.018 1.075-.02 2.16.047 3.235-.077-.228.714-.704 1.332-1.018 2.008-.77.01-1.541-.01-2.322.01-.989.085-1.94.884-2.036 1.893.904-.904 2.312-.961 3.483-.666.78.266 1.484.856 1.77 1.646.266.694.304 1.455.132 2.178-.257.99-1.056 1.76-1.998 2.122-1.103.418-2.378.438-3.482 0-1.046-.428-1.788-1.418-2.036-2.502-.276-.97-.237-2.398.048-3.378a4.975 4.975 0 011.38-2.216zm2.683 3.777c-.59-.115-1.255.123-1.56.637-.552.942.21 2.34 1.446 2.17 1.36-.2 1.713-2.38.114-2.808zm-8.771-2.436c1.217-.305 2.616-.21 3.653.552-.343.552-.657 1.132-.97 1.703-.505-.171-1.009-.438-1.551-.428-.58-.02-1.218.209-1.551.713a1.699 1.699 0 00-.029 1.808c.305.514.914.751 1.485.799.447-.048.903-.114 1.312-.305.096-.066.21-.057.324-.047.2.58.647 1.056.818 1.636-1.122.6-2.464.723-3.691.428-.847-.247-1.656-.732-2.14-1.493-.771-1.18-.743-2.845.142-3.949.533-.723 1.35-1.189 2.197-1.417zm13.376.028c2.369-.018 4.738-.018 7.107 0-.02 2.255-.01 4.5-.01 6.755-.799 0-1.598.01-2.388 0 .038-1.474-.038-2.949.01-4.424a.648.648 0 00-.076-.323c-.723.019-1.456.019-2.188 0-.048 1.58-.01 3.159-.02 4.747-.808.01-1.626.01-2.435 0 0-2.254.01-4.5 0-6.755z" fill="#fff"/><path d="M13.527 21.695l3.016-1.827 6.26-.038-12.596 7.811 3.32-5.946z" fill="#037F37"/></svg>