<svg width="41" height="23" fill="none" xmlns="http://www.w3.org/2000/svg"><path d="M8.532 12.61l2.757 1.82v3.36l-2.773 4.967.016-10.147z" fill="#62B22F"/><path d="M6.243 11.18l2.75 1.597-8.17 4.958 2.663-4.855 2.757-1.7z" fill="#974995"/><path d="M19.076 6.594l-5.26-.024-2.535-1.525L8.53.229l10.545 6.365z" fill="#EE7024"/><path d="M8.532.23l2.749 4.815.008 6.635-2.773-.842L8.532.229z" fill="#FBB61B"/><path d="M.8 5.077l2.693 4.902-.008 2.9-2.662 4.856L.8 5.077z" fill="#5A58A3"/><path d="M.8 5.077l18.236 11.156-5.228.032L3.493 9.979.8 5.077z" fill="#2188CB"/><path d="M13.816 6.57l5.26.024-7.787 4.784-.008-3.266 2.535-1.542z" fill="#DA0954"/><path d="M28.977 7.357c.636-.58 1.518-.874 2.376-.85.898-.016 1.804.04 2.702-.064-.19.596-.588 1.113-.85 1.677-.644.008-1.288-.008-1.94.008-.826.071-1.62.739-1.7 1.581.755-.755 1.931-.802 2.909-.556.651.222 1.24.715 1.478 1.375a3.09 3.09 0 01.11 1.82c-.214.826-.881 1.47-1.668 1.771-.922.35-1.986.366-2.908 0-.874-.357-1.494-1.184-1.7-2.09-.231-.81-.2-2.002.04-2.82.206-.7.61-1.351 1.151-1.852zm2.241 3.155c-.492-.096-1.049.103-1.303.532-.46.787.175 1.955 1.208 1.812 1.136-.167 1.43-1.987.095-2.344zm-7.326-2.034c1.017-.255 2.185-.175 3.051.46-.286.461-.548.946-.81 1.423-.422-.143-.843-.366-1.296-.358-.485-.016-1.017.175-1.295.596a1.419 1.419 0 00-.024 1.51c.254.43.763.628 1.24.668.373-.04.755-.096 1.096-.255.08-.055.175-.047.27-.04.167.485.54.883.684 1.367-.938.5-2.058.604-3.083.358-.708-.207-1.383-.612-1.788-1.248-.644-.985-.62-2.376.119-3.297.445-.604 1.128-.994 1.836-1.184zm11.172.023c1.979-.016 3.957-.016 5.936 0-.016 1.884-.008 3.759-.008 5.642-.667 0-1.335.008-1.994 0 .031-1.231-.032-2.463.008-3.695a.543.543 0 00-.064-.27c-.604.016-1.216.016-1.828 0-.04 1.32-.008 2.638-.016 3.965-.675.008-1.358.008-2.034 0 0-1.883.008-3.758 0-5.642z" fill="#000"/><path d="M11.289 17.79l2.519-1.525 5.229-.032-10.521 6.524 2.773-4.966z" fill="#037F37"/></svg>