<svg width="36" height="36" fill="none" xmlns="http://www.w3.org/2000/svg"><g clip-path="url(#clip0_426_41899)"><path d="M18 35c9.389 0 17-7.611 17-17S27.389 1 18 1 1 8.611 1 18s7.611 17 17 17z" fill="url(#paint0_linear_426_41899)"/><path fill-rule="evenodd" clip-rule="evenodd" d="M8.695 17.82c4.956-2.159 8.26-3.582 9.914-4.27 4.721-1.964 5.702-2.305 6.342-2.316.14-.002.455.033.658.198.303.245.304.777.27 1.13-.255 2.688-1.362 9.21-1.925 12.222-.239 1.274-.708 1.7-1.162 1.742-.987.091-1.737-.652-2.693-1.279-1.496-.98-2.342-1.591-3.794-2.548-1.678-1.106-.59-1.714.366-2.708.25-.26 4.6-4.216 4.684-4.575.011-.045.02-.212-.079-.3-.1-.089-.246-.059-.352-.035-.15.034-2.54 1.614-7.17 4.74-.679.466-1.293.693-1.844.68-.607-.012-1.774-.342-2.642-.624-1.065-.346-1.911-.53-1.838-1.117.039-.306.46-.62 1.265-.94z" fill="#fff"/></g><defs><linearGradient id="paint0_linear_426_41899" x1="18" y1="1" x2="18" y2="34.734" gradientUnits="userSpaceOnUse"><stop stop-color="#2AABEE"/><stop offset="1" stop-color="#229ED9"/></linearGradient><clipPath id="clip0_426_41899"><path fill="#fff" transform="translate(1 1)" d="M0 0h34v34H0z"/></clipPath></defs></svg>