<svg width="36" height="37" fill="none" xmlns="http://www.w3.org/2000/svg"><path d="M21.6 1h-7.2C7.452 1 1.8 6.652 1.8 13.6V19c0 4.883 2.813 9.306 7.2 11.39v6.016c0 .522.653.792 1.022.423l5.229-5.224h6.35c6.947 0 12.6-5.652 12.6-12.605v-5.4C34.2 6.652 28.547 1 21.6 1zm4.716 23.616l-1.822 1.782c-1.917 1.877-6.921-.265-11.331-4.77-4.41-4.509-6.345-9.558-4.523-11.434l1.823-1.782c.67-.657 1.809-.644 2.56.027l2.628 2.687c.936.958.54 2.565-.697 2.934-.855.274-1.436 1.214-1.161 2.07.454 1.998 2.988 4.495 4.878 4.99.85.198 1.804-.265 2.101-1.116.392-1.229 2.007-1.593 2.948-.63l2.623 2.682c.657.67.648 1.809-.027 2.56zM19.638 9.55c-.18 0-.36.009-.535.032a.6.6 0 01-.13-1.193 6.005 6.005 0 016.628 6.628.607.607 0 01-.662.532.607.607 0 01-.53-.662 4.809 4.809 0 00-4.77-5.337zm3.6 4.801a.605.605 0 01-.603.599.604.604 0 01-.598-.598 2.4 2.4 0 00-2.399-2.399.603.603 0 01-.603-.603c0-.329.27-.598.603-.598 1.985 0 3.6 1.615 3.6 3.6zm4.577 1.94a.611.611 0 01-.743.441.61.61 0 01-.427-.72 7.07 7.07 0 00.193-1.66c0-3.97-3.23-7.2-7.2-7.2-.184 0-.373.004-.558.022a.6.6 0 01-.09-1.197 7.8 7.8 0 01.648-.027c4.63 0 8.402 3.771 8.402 8.401 0 .653-.077 1.305-.225 1.94z" fill="#665CAC"/></svg>