<svg width="36" height="36" fill="none" xmlns="http://www.w3.org/2000/svg"><g clip-path="url(#clip0_426_41895)"><path d="M2 17.333C2 10.105 2 6.491 4.245 4.246 6.492 2 10.105 2 17.334 2h1.334c7.228 0 10.842 0 13.087 2.245C34 6.492 34 10.105 34 17.334v1.334c0 7.228 0 10.842-2.246 13.087C29.51 34 25.894 34 18.667 34h-1.334c-7.228 0-10.842 0-13.087-2.245C2 29.509 2 25.895 2 18.666v-1.334z" fill="#2787F5"/><path fill-rule="evenodd" clip-rule="evenodd" d="M10.667 12H8.333c-.666 0-.8.314-.8.66 0 .618.791 3.683 3.684 7.737 1.929 2.769 4.646 4.27 7.119 4.27 1.483 0 1.667-.334 1.667-.908v-2.092c0-.667.14-.8.61-.8.346 0 .94.173 2.324 1.508 1.583 1.582 1.844 2.292 2.734 2.292h2.334c.666 0 1-.334.808-.992-.211-.655-.966-1.606-1.97-2.734-.543-.643-1.359-1.335-1.606-1.68-.346-.446-.247-.644 0-1.04 0 0 2.843-4.004 3.14-5.363.148-.495 0-.858-.706-.858h-2.334c-.593 0-.867.314-1.015.66 0 0-1.187 2.892-2.868 4.77-.544.545-.791.718-1.088.718-.149 0-.363-.173-.363-.668v-4.622c0-.594-.172-.858-.667-.858h-3.668c-.37 0-.593.275-.593.536 0 .563.84.692.927 2.274v3.437c0 .753-.136.89-.433.89-.791 0-2.716-2.906-3.857-6.23-.224-.646-.448-.907-1.045-.907z" fill="#fff"/></g><defs><clipPath id="clip0_426_41895"><path fill="#fff" transform="translate(2 2)" d="M0 0h32v32H0z"/></clipPath></defs></svg>