<svg width="40" height="40" fill="none" xmlns="http://www.w3.org/2000/svg"><g clip-path="url(#clip0_257_14774)" fill="#0383FD"><path d="M31.676 31.89a.775.775 0 10-.942 1.232l1.325 1.012a.773.773 0 001.045-.095l2.532-2.796a.775.775 0 10-1.15-1.04l-2.052 2.267-.758-.58z"/><path d="M39.906 27.753a.775.775 0 00-.708-.755c-1.844-.161-4.113-1.4-5.78-3.156a.775.775 0 00-1.124 0 11.737 11.737 0 01-2.515 1.998c-1.574-1.756-3.51-3.05-5.78-3.866a15.913 15.913 0 00-.597-.2c1.92-1.915 3.21-4.431 3.21-6.689v-1.217a2.569 2.569 0 001.545-2.354 2.567 2.567 0 00-1.654-2.395A9.562 9.562 0 0019.637.924 1.165 1.165 0 0018.499 0h-2.81c-.539 0-.992.37-1.123.869A9.584 9.584 0 007.504 9.12a2.567 2.567 0 00-1.654 2.395 2.57 2.57 0 001.546 2.353v1.217c0 2.256 1.292 4.773 3.212 6.689a15.913 15.913 0 00-.62.209c-2.541.917-4.662 2.434-6.324 4.53C2.067 28.526.931 31.015.29 33.908c-.23 1.034-.401 2.334.304 3.212.689.857 1.921.967 2.918.967h5.07a.775.775 0 000-1.55h-5.07c-.927 0-1.502-.13-1.71-.388-.218-.273-.218-.914.001-1.905.806-3.629 2.775-8.07 7.521-10.311-.146 2.618 1.273 4.33 2.175 5.416a.775.775 0 001.137.061l4.368-4.248 4.371 4.248a.776.776 0 001.137-.061c.901-1.088 2.318-2.8 2.173-5.413a12.358 12.358 0 013.64 2.614 6.698 6.698 0 01-1.812.447.775.775 0 00-.707.754c-.065 2.771.397 4.757 1.646 7.08.01.02.433.777 1.091 1.706H15.6a.775.775 0 000 1.55h14.174C30.708 39.121 31.81 40 32.855 40c2.522 0 5.376-5.115 5.404-5.167 1.247-2.324 1.709-4.31 1.647-7.08zM24.92 8.952h-4.267c-.807-2.107-.96-3.843-.987-6.393a8.014 8.014 0 015.254 6.393zM16.077 1.55h2.034c.005 3 .081 5.033.894 7.402h-3.82c.811-2.37.887-4.402.892-7.402zm-1.555.948c-.026 2.583-.174 4.33-.985 6.454h-4.45c.442-2.975 2.581-5.51 5.435-6.454zm-6.107 8.004h5.186c.045.037.09.042.127 0h11.866a1.014 1.014 0 010 2.027H8.415c-.56 0-1.015-.455-1.015-1.014 0-.559.456-1.013 1.015-1.013zm.532 4.583V14.08h16.115v1.005c0 2.956-2.863 6.61-6.127 7.822-1.428.531-2.442.53-3.873-.001-3.258-1.217-6.115-4.871-6.115-7.82zm3.217 12.622c-.803-1.047-1.575-2.422-1.204-4.419.342-.11.695-.21 1.062-.3a10.421 10.421 0 002.498 1.37c.282.105.552.191.817.263l-3.173 3.086zm9.68 0L18.67 24.62c.262-.071.529-.156.806-.26a10.412 10.412 0 002.51-1.372c.363.088.716.188 1.062.3.372 1.993-.4 3.37-1.202 4.418zM36.893 34.1c-.916 1.711-3.063 4.35-4.037 4.35-.974 0-3.12-2.639-4.038-4.35-1.024-1.905-1.445-3.494-1.467-5.656.836-.16 1.706-.471 2.563-.907a13.06 13.06 0 002.942-2.07c1.65 1.54 3.66 2.626 5.505 2.977-.025 2.163-.445 3.751-1.468 5.656z"/><path d="M12.09 36.538a.775.775 0 000 1.55h.005a.773.773 0 00.772-.775.777.777 0 00-.777-.775z"/></g><defs><clipPath id="clip0_257_14774"><path fill="#fff" d="M0 0h40v40H0z"/></clipPath></defs></svg>