<svg width="40" height="40" fill="none" xmlns="http://www.w3.org/2000/svg"><g clip-path="url(#clip0_257_14973)" fill="#0383FD"><path d="M39.595 8.651L24.016.097a.782.782 0 00-.752 0L17.392 3.32a.783.783 0 00-.335.184L7.686 8.651a.78.78 0 00-.405.685v10.346a10.341 10.341 0 00-4.234 2.571 10.397 10.397 0 00-1.992 11.915.78.78 0 101.403-.686 8.835 8.835 0 011.693-10.124 8.775 8.775 0 016.246-2.587c2.36 0 4.577.918 6.246 2.587a8.775 8.775 0 012.587 6.245c0 2.36-.92 4.578-2.588 6.246A8.835 8.835 0 016.52 37.542a.78.78 0 10-.686 1.404 10.4 10.4 0 0011.915-1.992 10.391 10.391 0 002.15-3.12l3.366 1.85a.78.78 0 00.752 0l15.579-8.555c.25-.137.405-.4.405-.685v-5.429a.781.781 0 10-1.563 0v4.967l-14.013 7.695V18.351l4.625-2.54v4.026a.781.781 0 001.158.685l3.338-1.838A.78.78 0 0033.95 18v-4.88l4.489-2.464v4.11a.781.781 0 101.562 0v-5.43a.781.781 0 00-.405-.685zM23.64 1.673l13.956 7.663-4.403 2.417L19.238 4.09l4.402-2.417zm0 15.326L9.685 9.336l4.563-2.506 13.956 7.663-4.564 2.506zm6.187-3.397L15.87 5.939l1.744-.958 13.955 7.663-1.743.958zm-12.08 8.651a10.327 10.327 0 00-7.35-3.045c-.525 0-1.044.04-1.554.115v-8.667l14.019 7.698V33.68l-2.434-1.336c.24-.882.364-1.802.364-2.74a10.32 10.32 0 00-3.045-7.35zm14.64-4.715l-1.776.978v-3.562l1.776-.975v3.56z"/><path d="M39.219 17.105a.787.787 0 00-.553.229.787.787 0 00-.228.552c0 .205.083.407.228.552a.786.786 0 00.553.229.786.786 0 00.552-.229.787.787 0 00.229-.552.787.787 0 00-.229-.552.787.787 0 00-.552-.23zM7.77 30.384a.781.781 0 00.552-1.334l-.54-.54h4.617c1.12 0 2.031.91 2.031 2.03 0 1.12-.911 2.032-2.031 2.032H9.663a.781.781 0 100 1.562h2.736a3.598 3.598 0 003.594-3.593 3.598 3.598 0 00-3.594-3.594H7.782l.54-.541A.781.781 0 007.219 25.3l-1.875 1.875a.782.782 0 000 1.105l1.875 1.874a.779.779 0 00.552.23zm-4.17 6.8a.778.778 0 01-.597-.278L3 36.904a.781.781 0 11.599.28z"/></g><defs><clipPath id="clip0_257_14973"><path fill="#fff" d="M0 0h40v40H0z"/></clipPath></defs></svg>