<svg width="40" height="40" fill="none" xmlns="http://www.w3.org/2000/svg"><g clip-path="url(#clip0_257_16078)" fill="#0383FD"><path d="M8.594 9.844a.782.782 0 100 1.563.782.782 0 000-1.563z"/><path d="M36.791 16.526l-1.13-2.261a2.33 2.33 0 00-2.097-1.296H27.03V7.501a2.346 2.346 0 00-2.344-2.344H2.345A2.346 2.346 0 000 7.5v20.311a2.346 2.346 0 002.344 2.344h2.343c0 1.2.454 2.295 1.198 3.125H.78a.781.781 0 000 1.562h38.436a.781.781 0 100-1.562H37.24a4.668 4.668 0 001.197-3.125c0-.045-.002-.089-.003-.133a2.347 2.347 0 001.565-2.21v-4.32c0-.911.18-.06-3.207-6.967zm-1.181 1.13l2.343 4.688h-7.798v-4.688h5.454zm-34.048 6.25h1.563v1.563H1.562v-1.563zm7.813 9.375a3.128 3.128 0 01-3.062-3.751 3.132 3.132 0 013.062-2.5 3.132 3.132 0 013.061 2.5v.003a3.128 3.128 0 01-3.062 3.748zm0-7.813a4.703 4.703 0 00-4.42 3.125H2.344a.782.782 0 01-.782-.78v-.782h2.344a.78.78 0 00.781-.781v-3.125a.781.781 0 00-.78-.782H1.561V7.501c0-.431.35-.782.782-.782h22.343c.43 0 .78.35.78.782v21.092H13.795a4.704 4.704 0 00-4.42-3.125zm3.49 7.813a4.668 4.668 0 001.197-3.125h15c0 1.2.453 2.295 1.197 3.125H12.864zm20.884 0a3.128 3.128 0 01-3.062-3.751 3.132 3.132 0 013.062-2.5 3.132 3.132 0 013.061 2.5v.003a3.128 3.128 0 01-3.062 3.748zm4.687-5.469a.78.78 0 01-.324.632 4.705 4.705 0 00-4.363-2.975 4.704 4.704 0 00-4.42 3.124H27.03V14.531h6.534c.298 0 .566.166.699.433l.565 1.13h-5.454a.781.781 0 00-.781.781v6.25c0 .431.35.781.78.781h9.063v3.906z"/><path d="M21.562 9.844H11.72a.781.781 0 000 1.563h9.843a.781.781 0 100-1.563zm-.001 3.126h-6.718a.781.781 0 100 1.562h6.718a.781.781 0 000-1.563zm12.188 15.623c-.862 0-1.563.701-1.563 1.563a1.563 1.563 0 101.563-1.563zm-24.374 0c-.862 0-1.563.701-1.563 1.563a1.563 1.563 0 101.563-1.563z"/></g><defs><clipPath id="clip0_257_16078"><path fill="#fff" d="M0 0h40v40H0z"/></clipPath></defs></svg>