<svg width="40" height="40" fill="none" xmlns="http://www.w3.org/2000/svg"><g clip-path="url(#clip0_257_14829)" fill="#0383FD"><path d="M35.001 7.266c.431 0 .781-.35.781-.782v-4.14A2.346 2.346 0 0033.44 0H2.344A2.346 2.346 0 000 2.344v35.312A2.346 2.346 0 002.345 40h31.093a2.346 2.346 0 002.344-2.344V35.47a.781.781 0 10-1.562 0v2.187c0 .431-.35.782-.782.782H2.345a.782.782 0 01-.782-.782V2.344c0-.431.351-.781.782-.781h31.093c.431 0 .782.35.782.78v4.141c0 .432.35.782.781.782z"/><path d="M31.25 3.75H4.532a.781.781 0 00-.781.781V20.86a.781.781 0 101.563 0V5.312H30.47v1.25a.781.781 0 101.562 0v-2.03a.781.781 0 00-.781-.782zM5.084 23.198a.785.785 0 00-.553-.23.787.787 0 00-.552.23.787.787 0 00-.229.552c0 .206.084.407.229.552a.787.787 0 00.552.23.785.785 0 00.782-.782.784.784 0 00-.23-.552zm26.166 9.771a.781.781 0 00-.78.781v.938H5.313v-7.93a.781.781 0 10-1.563 0v8.71c0 .432.35.782.781.782h26.72c.431 0 .781-.35.781-.781V33.75a.781.781 0 00-.781-.781z"/><path d="M24.212 27.604a.781.781 0 00-1.105 0l-1.544 1.544-.96-.96a1.556 1.556 0 00-2.198 0l-.624.625a.781.781 0 001.105 1.105l.618-.619.96.96a1.55 1.55 0 001.099.455 1.55 1.55 0 001.099-.455l1.55-1.55a.781.781 0 000-1.105z"/><path d="M39.64 16.39a2.278 2.278 0 00.282-1.816 2.277 2.277 0 00-1.151-1.43.712.712 0 01-.384-.664 2.276 2.276 0 00-2.376-2.376.71.71 0 01-.664-.384 2.277 2.277 0 00-1.43-1.151 2.277 2.277 0 00-1.815.282.712.712 0 01-.767 0 2.277 2.277 0 00-1.815-.282 2.278 2.278 0 00-1.43 1.151.714.714 0 01-.664.384 2.277 2.277 0 00-1.713.663 2.278 2.278 0 00-.663 1.713.712.712 0 01-.384.664 2.278 2.278 0 00-1.207 2.325H9.826a.781.781 0 100 1.562h14.032a.701.701 0 01-.061.125 2.278 2.278 0 00-.2 2.063H9.827a.781.781 0 100 1.562h15.176c.034.09.051.186.046.285a2.275 2.275 0 002.376 2.376.712.712 0 01.665.383c.093.181.21.348.347.495v7.297a.781.781 0 001.332.554l1.95-1.94 1.948 1.94A.781.781 0 0035 31.617V24.32c.136-.147.254-.314.347-.495a.713.713 0 01.664-.384 2.274 2.274 0 002.376-2.375.712.712 0 01.384-.665 2.278 2.278 0 001.151-1.43 2.278 2.278 0 00-.282-1.815.712.712 0 010-.767zm-6.203 13.348l-1.168-1.162a.781.781 0 00-1.102 0L30 29.738V25.05c.467.022.936-.1 1.335-.356a.712.712 0 01.767 0 2.28 2.28 0 001.228.359c.036 0 .071-.002.107-.004v4.688zm4.976-11.171a.702.702 0 01-.36.447 2.279 2.279 0 00-1.226 2.124.702.702 0 01-.208.535.703.703 0 01-.535.208 2.279 2.279 0 00-2.125 1.226.702.702 0 01-.447.36.702.702 0 01-.567-.088 2.272 2.272 0 00-2.453 0 .703.703 0 01-.568.088.703.703 0 01-.447-.36 2.278 2.278 0 00-2.124-1.226.703.703 0 01-.536-.207.702.702 0 01-.207-.536 2.278 2.278 0 00-1.226-2.124.702.702 0 01-.36-.447.702.702 0 01.088-.568 2.279 2.279 0 000-2.453.702.702 0 01-.088-.567.702.702 0 01.36-.447 2.279 2.279 0 001.226-2.125.702.702 0 01.208-.535.703.703 0 01.535-.207 2.279 2.279 0 002.124-1.227.702.702 0 01.448-.36.702.702 0 01.567.088 2.279 2.279 0 002.453 0 .7.7 0 01.567-.088.7.7 0 01.447.36 2.279 2.279 0 002.125 1.226.702.702 0 01.535.208.702.702 0 01.208.535 2.279 2.279 0 001.226 2.125c.18.092.308.251.36.447a.702.702 0 01-.088.567 2.279 2.279 0 000 2.453c.11.17.14.372.088.568z"/><path d="M35.434 14.647a.781.781 0 00-1.105 0l-2.593 2.594-1.032-1.033a.781.781 0 00-1.105 1.105l1.585 1.585a.779.779 0 001.104 0l3.146-3.146a.781.781 0 000-1.105zM9.537 9.448a.787.787 0 00-.553-.23.787.787 0 00-.552.23.787.787 0 00-.229.552c0 .206.084.407.229.552a.787.787 0 00.552.23.787.787 0 00.553-.23.787.787 0 00.229-.552.787.787 0 00-.23-.552zm6.166-.229H11.9a.781.781 0 100 1.562h3.803a.781.781 0 100-1.562zm7.956 13.75h-8.931a.781.781 0 100 1.562h8.93a.781.781 0 100-1.562z"/></g><defs><clipPath id="clip0_257_14829"><path fill="#fff" d="M0 0h40v40H0z"/></clipPath></defs></svg>