<svg width="20" height="20" viewBox="0 0 20 20" fill="none" xmlns="http://www.w3.org/2000/svg">
<path fill-rule="evenodd" clip-rule="evenodd" d="M13.332 0.916504C13.7462 0.916504 14.082 1.25229 14.082 1.6665V4.99984C14.082 5.41405 13.7462 5.74984 13.332 5.74984C12.9178 5.74984 12.582 5.41405 12.582 4.99984V1.6665C12.582 1.25229 12.9178 0.916504 13.332 0.916504Z" fill="#0383FD"/>
<path fill-rule="evenodd" clip-rule="evenodd" d="M6.66797 0.916504C7.08218 0.916504 7.41797 1.25229 7.41797 1.6665V4.99984C7.41797 5.41405 7.08218 5.74984 6.66797 5.74984C6.25376 5.74984 5.91797 5.41405 5.91797 4.99984V1.6665C5.91797 1.25229 6.25376 0.916504 6.66797 0.916504Z" fill="#0383FD"/>
<path fill-rule="evenodd" clip-rule="evenodd" d="M1.75 7.5C1.75 7.08579 2.08579 6.75 2.5 6.75H17.5C17.9142 6.75 18.25 7.08579 18.25 7.5C18.25 7.91421 17.9142 8.25 17.5 8.25H2.5C2.08579 8.25 1.75 7.91421 1.75 7.5Z" fill="#0383FD"/>
<path fill-rule="evenodd" clip-rule="evenodd" d="M1.75 4.99967C1.75 3.66463 2.83162 2.58301 4.16667 2.58301H15.8333C17.1684 2.58301 18.25 3.66463 18.25 4.99967V15.833C18.25 17.1681 17.1684 18.2497 15.8333 18.2497H4.16667C2.83162 18.2497 1.75 17.1681 1.75 15.833V4.99967ZM4.16667 4.08301C3.66005 4.08301 3.25 4.49305 3.25 4.99967V15.833C3.25 16.3396 3.66005 16.7497 4.16667 16.7497H15.8333C16.34 16.7497 16.75 16.3396 16.75 15.833V4.99967C16.75 4.49305 16.34 4.08301 15.8333 4.08301H4.16667Z" fill="#0383FD"/>
<path fill-rule="evenodd" clip-rule="evenodd" d="M5.08203 10.833C5.08203 10.4188 5.41782 10.083 5.83203 10.083H14.1654C14.5796 10.083 14.9154 10.4188 14.9154 10.833C14.9154 11.2472 14.5796 11.583 14.1654 11.583H5.83203C5.41782 11.583 5.08203 11.2472 5.08203 10.833Z" fill="#0383FD"/>
<path fill-rule="evenodd" clip-rule="evenodd" d="M5.08203 14.1665C5.08203 13.7523 5.41782 13.4165 5.83203 13.4165H14.1654C14.5796 13.4165 14.9154 13.7523 14.9154 14.1665C14.9154 14.5807 14.5796 14.9165 14.1654 14.9165H5.83203C5.41782 14.9165 5.08203 14.5807 5.08203 14.1665Z" fill="#0383FD"/>
</svg>
