<svg width="20" height="20" viewBox="0 0 20 20" fill="none" xmlns="http://www.w3.org/2000/svg">
<path fill-rule="evenodd" clip-rule="evenodd" d="M1.75 17.5C1.75 17.0858 2.08579 16.75 2.5 16.75L17.5 16.75C17.9142 16.75 18.25 17.0858 18.25 17.5C18.25 17.9142 17.9142 18.25 17.5 18.25L2.5 18.25C2.08579 18.25 1.75 17.9142 1.75 17.5Z" fill="#0383FD"/>
<path fill-rule="evenodd" clip-rule="evenodd" d="M11.9442 18.25C11.5299 18.25 11.1942 17.9142 11.1942 17.5L11.1942 7.5C11.1942 7.08579 11.5299 6.75 11.9442 6.75L15 6.75C15.8742 6.75 16.5833 7.45912 16.5833 8.33333L16.5833 17.5C16.5833 17.9142 16.2475 18.25 15.8333 18.25L11.9442 18.25ZM12.6942 16.75L15.0833 16.75L15.0833 8.33333C15.0833 8.28755 15.0458 8.25 15 8.25L12.6942 8.25L12.6942 16.75Z" fill="#0383FD"/>
<path fill-rule="evenodd" clip-rule="evenodd" d="M8.05585 18.25C7.64163 18.25 7.30585 17.9142 7.30585 17.5L7.30585 3.33333C7.30585 2.45912 8.01497 1.75 8.88918 1.75L11.1117 1.75C11.9859 1.75 12.695 2.45912 12.695 3.33333L12.695 17.5C12.695 17.9142 12.3592 18.25 11.945 18.25L8.05585 18.25ZM8.80585 16.75L11.195 16.75L11.195 3.33333C11.195 3.28755 11.1575 3.25 11.1117 3.25L8.88918 3.25C8.84339 3.25 8.80585 3.28755 8.80585 3.33333L8.80585 16.75Z" fill="#0383FD"/>
<path fill-rule="evenodd" clip-rule="evenodd" d="M4.16669 18.25C3.75247 18.25 3.41669 17.9142 3.41669 17.5L3.41669 5.83333C3.41669 4.95912 4.12581 4.25 5.00002 4.25L8.05585 4.25C8.47007 4.25 8.80585 4.58579 8.80585 5L8.80585 17.5C8.80585 17.9142 8.47007 18.25 8.05585 18.25L4.16669 18.25ZM4.91669 16.75L7.30585 16.75L7.30585 5.75L5.00002 5.75C4.95423 5.75 4.91669 5.78755 4.91669 5.83333L4.91669 16.75Z" fill="#0383FD"/>
</svg>
