<svg width="20" height="20" viewBox="0 0 20 20" fill="none" xmlns="http://www.w3.org/2000/svg">
<path fill-rule="evenodd" clip-rule="evenodd" d="M13.189 2.30084C12.178 1.88205 11.0943 1.6665 9.99998 1.6665C8.90563 1.6665 7.822 1.88205 6.81095 2.30084C5.7999 2.71963 4.88125 3.33346 4.10742 4.10728C3.3336 4.8811 2.71977 5.79976 2.30098 6.81081C1.88219 7.82186 1.66665 8.90549 1.66665 9.99984C1.66665 11.0942 1.88219 12.1778 2.30098 13.1889C2.71977 14.1999 3.3336 15.1186 4.10742 15.8924C4.88125 16.6662 5.7999 17.28 6.81095 17.6988C7.822 18.1176 8.90563 18.3332 9.99998 18.3332C11.0943 18.3332 12.178 18.1176 13.189 17.6988C14.2001 17.28 15.1187 16.6662 15.8925 15.8924C16.6664 15.1186 17.2802 14.1999 17.699 13.1889C18.1178 12.1778 18.3333 11.0942 18.3333 9.99984C18.3333 8.90549 18.1178 7.82186 17.699 6.81081C17.2802 5.79976 16.6664 4.8811 15.8925 4.10728C15.1187 3.33346 14.2001 2.71963 13.189 2.30084ZM9.99998 3.33317C10.8755 3.33317 11.7424 3.50561 12.5512 3.84064C13.36 4.17567 14.095 4.66673 14.714 5.28579C15.3331 5.90485 15.8241 6.63978 16.1592 7.44861C16.4942 8.25745 16.6666 9.12436 16.6666 9.99984C16.6666 10.8753 16.4942 11.7422 16.1592 12.5511C15.8241 13.3599 15.3331 14.0948 14.714 14.7139C14.095 15.3329 13.36 15.824 12.5512 16.159C11.7424 16.4941 10.8755 16.6665 9.99998 16.6665C9.1245 16.6665 8.25759 16.4941 7.44876 16.159C6.63992 15.824 5.90499 15.3329 5.28594 14.7139C4.66688 14.0948 4.17581 13.3599 3.84078 12.5511C3.50575 11.7422 3.33331 10.8753 3.33331 9.99984C3.33331 9.12436 3.50575 8.25745 3.84078 7.44861C4.17581 6.63978 4.66688 5.90485 5.28594 5.28579C5.90499 4.66673 6.63992 4.17567 7.44876 3.84064C8.25759 3.50561 9.1245 3.33317 9.99998 3.33317ZM9.99998 4.99984C9.53974 4.99984 9.16665 5.37293 9.16665 5.83317V9.99984C9.16665 10.2785 9.3059 10.5387 9.53773 10.6932L12.0377 12.3599C12.4207 12.6152 12.9381 12.5117 13.1934 12.1288C13.4486 11.7458 13.3452 11.2284 12.9622 10.9731L10.8333 9.55385V5.83317C10.8333 5.37293 10.4602 4.99984 9.99998 4.99984Z" fill="black"/>
</svg>
