<svg width="24" height="24" viewBox="0 0 24 24" fill="none" xmlns="http://www.w3.org/2000/svg">
<path fill-rule="evenodd" clip-rule="evenodd" d="M11 9.75C10.3092 9.75 9.75 10.3092 9.75 11V19C9.75 19.6908 10.3092 20.25 11 20.25H19C19.6908 20.25 20.25 19.6908 20.25 19V11C20.25 10.3092 19.6908 9.75 19 9.75H11ZM8.25 11C8.25 9.48079 9.48079 8.25 11 8.25H19C20.5192 8.25 21.75 9.48079 21.75 11V19C21.75 20.5192 20.5192 21.75 19 21.75H11C9.48079 21.75 8.25 20.5192 8.25 19V11Z" fill="#6D7680"/>
<path fill-rule="evenodd" clip-rule="evenodd" d="M5 3.75C4.30921 3.75 3.75 4.30921 3.75 5V13C3.75 13.6908 4.30921 14.25 5 14.25H13C13.6908 14.25 14.25 13.6908 14.25 13V5C14.25 4.30921 13.6908 3.75 13 3.75H5ZM2.25 5C2.25 3.48079 3.48079 2.25 5 2.25H13C14.5192 2.25 15.75 3.48079 15.75 5V13C15.75 14.5192 14.5192 15.75 13 15.75H5C3.48079 15.75 2.25 14.5192 2.25 13V5Z" fill="#6D7680"/>
</svg>
