<svg width="20" height="20" viewBox="0 0 20 20" fill="none" xmlns="http://www.w3.org/2000/svg">
<path fill-rule="evenodd" clip-rule="evenodd" d="M1.76251 6.29234C1.76251 4.70396 3.04997 3.4165 4.63835 3.4165H15.3742C16.9628 3.4165 18.25 4.70415 18.25 6.29317C18.25 7.24631 17.778 8.13824 16.9876 8.67311M16.9876 8.67311L13.2326 11.2189C11.2843 12.5395 8.72831 12.5396 6.78004 11.219L3.02513 8.67322C3.02508 8.67319 3.02519 8.67326 3.02513 8.67322C2.23497 8.13773 1.76251 7.24585 1.76251 6.29234M3.26251 6.29234C3.26251 6.74876 3.48848 7.17527 3.86656 7.43145L7.62165 9.97735C7.62167 9.97736 7.62163 9.97733 7.62165 9.97735C9.06168 10.9534 10.9508 10.9534 12.3908 9.97739C12.3908 9.97738 12.3908 9.97741 12.3908 9.97739L16.1458 7.43156C16.5232 7.17637 16.75 6.74972 16.75 6.29317C16.75 5.53219 16.1339 4.9165 15.3742 4.9165H4.63835C3.87839 4.9165 3.26251 5.53238 3.26251 6.29234Z" fill="#0383FD"/>
<path fill-rule="evenodd" clip-rule="evenodd" d="M2.5 5.54248C2.91421 5.54248 3.25 5.87827 3.25 6.29248V14.1666C3.25 15.1333 4.03338 15.9166 5 15.9166H15C15.9666 15.9166 16.75 15.1333 16.75 14.1666V6.29331C16.75 5.8791 17.0858 5.54331 17.5 5.54331C17.9142 5.54331 18.25 5.8791 18.25 6.29331V14.1666C18.25 15.9617 16.795 17.4166 15 17.4166H5C3.20495 17.4166 1.75 15.9617 1.75 14.1666V6.29248C1.75 5.87827 2.08579 5.54248 2.5 5.54248Z" fill="#0383FD"/>
</svg>
