<svg width="24" height="24" viewBox="0 0 24 24" fill="none" xmlns="http://www.w3.org/2000/svg">
<path fill-rule="evenodd" clip-rule="evenodd" d="M17.25 5C17.25 4.58579 17.5858 4.25 18 4.25H21C21.4142 4.25 21.75 4.58579 21.75 5C21.75 5.41421 21.4142 5.75 21 5.75H18C17.5858 5.75 17.25 5.41421 17.25 5Z" fill="white"/>
<path fill-rule="evenodd" clip-rule="evenodd" d="M2.25 5C2.25 4.58579 2.58579 4.25 3 4.25H14C14.4142 4.25 14.75 4.58579 14.75 5C14.75 5.41421 14.4142 5.75 14 5.75H3C2.58579 5.75 2.25 5.41421 2.25 5Z" fill="white"/>
<path fill-rule="evenodd" clip-rule="evenodd" d="M9.25 12C9.25 11.5858 9.58579 11.25 10 11.25H21C21.4142 11.25 21.75 11.5858 21.75 12C21.75 12.4142 21.4142 12.75 21 12.75H10C9.58579 12.75 9.25 12.4142 9.25 12Z" fill="white"/>
<path fill-rule="evenodd" clip-rule="evenodd" d="M2.25 12C2.25 11.5858 2.58579 11.25 3 11.25H6C6.41421 11.25 6.75 11.5858 6.75 12C6.75 12.4142 6.41421 12.75 6 12.75H3C2.58579 12.75 2.25 12.4142 2.25 12Z" fill="white"/>
<path fill-rule="evenodd" clip-rule="evenodd" d="M17.25 19C17.25 18.5858 17.5858 18.25 18 18.25H21C21.4142 18.25 21.75 18.5858 21.75 19C21.75 19.4142 21.4142 19.75 21 19.75H18C17.5858 19.75 17.25 19.4142 17.25 19Z" fill="white"/>
<path fill-rule="evenodd" clip-rule="evenodd" d="M2.25 19C2.25 18.5858 2.58579 18.25 3 18.25H14C14.4142 18.25 14.75 18.5858 14.75 19C14.75 19.4142 14.4142 19.75 14 19.75H3C2.58579 19.75 2.25 19.4142 2.25 19Z" fill="white"/>
<path fill-rule="evenodd" clip-rule="evenodd" d="M16.8839 4.11612C16.3957 3.62796 15.6043 3.62796 15.1161 4.11612C14.628 4.60427 14.628 5.39573 15.1161 5.88389C15.6043 6.37204 16.3957 6.37204 16.8839 5.88389C17.372 5.39573 17.372 4.60427 16.8839 4.11612ZM17.9437 3.0546C16.8697 1.98151 15.1291 1.9818 14.0555 3.05546L14.0555 3.05546C12.9815 4.1294 12.9815 5.8706 14.0555 6.94455C15.1294 8.01849 16.8706 8.01849 17.9445 6.94455C19.0185 5.8706 19.0185 4.1294 17.9445 3.05546C17.9443 3.05517 17.944 3.05488 17.9437 3.0546Z" fill="white"/>
<path fill-rule="evenodd" clip-rule="evenodd" d="M8.88389 11.1161C8.39573 10.628 7.60427 10.628 7.11612 11.1161C6.62796 11.6043 6.62796 12.3957 7.11612 12.8839C7.60427 13.372 8.39573 13.372 8.88389 12.8839C9.37204 12.3957 9.37204 11.6043 8.88389 11.1161ZM9.94369 10.0546C8.86968 8.98151 7.12911 8.9818 6.05546 10.0555L6.05546 10.0555C4.98151 11.1294 4.98151 12.8706 6.05546 13.9445C7.1294 15.0185 8.8706 15.0185 9.94455 13.9445C11.0185 12.8706 11.0185 11.1294 9.94455 10.0555C9.94426 10.0552 9.94397 10.0549 9.94369 10.0546Z" fill="white"/>
<path fill-rule="evenodd" clip-rule="evenodd" d="M16.8839 18.1161C16.3957 17.628 15.6043 17.628 15.1161 18.1161C14.628 18.6043 14.628 19.3957 15.1161 19.8839C15.6043 20.372 16.3957 20.372 16.8839 19.8839C17.372 19.3957 17.372 18.6043 16.8839 18.1161ZM17.9437 17.0546C16.8697 15.9815 15.1291 15.9818 14.0555 17.0555L14.0555 17.0555C12.9815 18.1294 12.9815 19.8706 14.0555 20.9445C15.1294 22.0185 16.8706 22.0185 17.9445 20.9445C19.0185 19.8706 19.0185 18.1294 17.9445 17.0555C17.9443 17.0552 17.944 17.0549 17.9437 17.0546Z" fill="white"/>
</svg>
