<svg width="20" height="20" viewBox="0 0 20 20" fill="none" xmlns="http://www.w3.org/2000/svg">
<path fill-rule="evenodd" clip-rule="evenodd" d="M6.91667 4.0835C4.79879 4.0835 3.25 6.11223 3.25 8.1335C3.25 9.1074 3.63295 10.0815 4.27356 11.0247C4.91346 11.9669 5.78246 12.8361 6.67982 13.5831C7.57427 14.3276 8.47619 14.9336 9.16293 15.3533C9.5058 15.5628 9.79176 15.7239 9.99233 15.8308C9.9949 15.8322 9.99746 15.8335 10 15.8349C10.0025 15.8335 10.0051 15.8322 10.0077 15.8308C10.2082 15.7239 10.4942 15.5628 10.8371 15.3533C11.5238 14.9336 12.4257 14.3276 13.3202 13.5831C14.2175 12.8361 15.0865 11.9669 15.7264 11.0247C16.367 10.0815 16.75 9.1074 16.75 8.1335C16.75 6.11223 15.2012 4.0835 13.0833 4.0835C11.8486 4.0835 11.0483 4.69145 10.5679 5.24834C10.4255 5.41352 10.2181 5.5085 10 5.5085C9.78186 5.5085 9.57453 5.41352 9.43206 5.24834C8.95175 4.69145 8.15135 4.0835 6.91667 4.0835ZM1.75 8.1335C1.75 5.52143 3.75121 2.5835 6.91667 2.5835C8.28646 2.5835 9.29916 3.11054 10 3.70482C10.7008 3.11054 11.7135 2.5835 13.0833 2.5835C16.2488 2.5835 18.25 5.52143 18.25 8.1335C18.25 9.50543 17.7121 10.7709 16.9673 11.8675C16.2218 12.9652 15.2408 13.9361 14.2798 14.736C13.3159 15.5383 12.3512 16.186 11.6192 16.6332C11.2527 16.8572 10.9412 17.0329 10.7134 17.1544C10.6001 17.2148 10.5038 17.2638 10.4296 17.2992C10.3934 17.3165 10.3558 17.3338 10.3209 17.3483C10.3043 17.3552 10.279 17.3654 10.25 17.3751C10.2357 17.3799 10.2117 17.3876 10.1821 17.3948L10.1816 17.3949C10.1627 17.3995 10.0917 17.4168 10 17.4168C9.9083 17.4168 9.83728 17.3995 9.81841 17.3949L9.81791 17.3948C9.78829 17.3876 9.76432 17.3799 9.75005 17.3751C9.72097 17.3654 9.69567 17.3552 9.67912 17.3483C9.64416 17.3338 9.60656 17.3165 9.57043 17.2992C9.49617 17.2638 9.39989 17.2148 9.28658 17.1544C9.05876 17.0329 8.74733 16.8572 8.38082 16.6332C7.64881 16.186 6.68406 15.5383 5.72018 14.736C4.75921 13.9361 3.77821 12.9652 3.03269 11.8675C2.28788 10.7709 1.75 9.50543 1.75 8.1335Z" fill="#0383FD"/>
</svg>
