<svg width="16" height="16" viewBox="0 0 16 16" fill="none" xmlns="http://www.w3.org/2000/svg">
<path fill-rule="evenodd" clip-rule="evenodd" d="M8 2.5C4.96214 2.5 2.5 4.96214 2.5 8C2.5 11.0379 4.96214 13.5 8 13.5C11.0379 13.5 13.5 11.0379 13.5 8C13.5 4.96214 11.0379 2.5 8 2.5ZM8 1.5C4.40986 1.5 1.5 4.40986 1.5 8C1.5 11.5901 4.40986 14.5 8 14.5C11.5901 14.5 14.5 11.5901 14.5 8C14.5 4.40986 11.5901 1.5 8 1.5Z" fill="#0383FD"/>
<path fill-rule="evenodd" clip-rule="evenodd" d="M6.83337 8C6.83337 7.72386 7.05723 7.5 7.33337 7.5H8.00004C8.27618 7.5 8.50004 7.72386 8.50004 8V11.3333C8.50004 11.6095 8.27618 11.8333 8.00004 11.8333C7.7239 11.8333 7.50004 11.6095 7.50004 11.3333V8.5H7.33337C7.05723 8.5 6.83337 8.27614 6.83337 8Z" fill="#0383FD"/>
<path d="M7.16663 5.50182C7.16493 5.131 7.46579 4.83334 7.83263 4.83334C8.20014 4.83334 8.49996 5.13057 8.49996 5.50001C8.49996 5.86815 8.20144 6.16668 7.8333 6.16668C7.46576 6.16668 7.16761 5.86913 7.16663 5.50182Z" fill="#0383FD"/>
</svg>
