<svg width="20" height="20" viewBox="0 0 20 20" fill="none" xmlns="http://www.w3.org/2000/svg">
<path fill-rule="evenodd" clip-rule="evenodd" d="M6.59697 8.95875C6.02192 8.3837 5.08959 8.3837 4.51454 8.95875C3.93949 9.5338 3.93949 10.4661 4.51454 11.0412C5.08959 11.6162 6.02192 11.6162 6.59697 11.0412C7.17202 10.4661 7.17202 9.5338 6.59697 8.95875ZM7.65763 7.89809C6.4968 6.73726 4.61471 6.73726 3.45388 7.89809C2.29304 9.05893 2.29304 10.941 3.45388 12.1018C4.61471 13.2627 6.4968 13.2627 7.65763 12.1018C8.81847 10.941 8.81847 9.05893 7.65763 7.89809Z" fill="#0383FD"/>
<path fill-rule="evenodd" clip-rule="evenodd" d="M15.4854 4.5146C14.9103 3.93955 13.978 3.93955 13.403 4.5146C12.8279 5.08965 12.8279 6.02198 13.403 6.59703C13.978 7.17208 14.9103 7.17208 15.4854 6.59703C16.0604 6.02198 16.0604 5.08965 15.4854 4.5146ZM16.5461 3.45394C15.3852 2.2931 13.5031 2.2931 12.3423 3.45394C11.1815 4.61477 11.1815 6.49686 12.3423 7.65769C13.5031 8.81853 15.3852 8.81853 16.5461 7.65769C17.7069 6.49686 17.7069 4.61477 16.5461 3.45394Z" fill="#0383FD"/>
<path fill-rule="evenodd" clip-rule="evenodd" d="M15.4854 13.4029C14.9103 12.8279 13.978 12.8279 13.403 13.4029C12.8279 13.978 12.8279 14.9103 13.403 15.4853C13.978 16.0604 14.9103 16.0604 15.4854 15.4853C16.0604 14.9103 16.0604 13.978 15.4854 13.4029ZM16.5461 12.3422C15.3852 11.1814 13.5031 11.1814 12.3423 12.3422C11.1815 13.5031 11.1815 15.3852 12.3423 16.546C13.5031 17.7068 15.3852 17.7068 16.5461 16.546C17.7069 15.3852 17.7069 13.5031 16.5461 12.3422Z" fill="#0383FD"/>
<path fill-rule="evenodd" clip-rule="evenodd" d="M13.1375 6.20626C13.3228 6.57674 13.1726 7.02725 12.8021 7.21249L7.86878 9.67916C7.49829 9.8644 7.04779 9.71423 6.86255 9.34375C6.67731 8.97326 6.82747 8.52276 7.19796 8.33751L12.1313 5.87085C12.5018 5.68561 12.9523 5.83577 13.1375 6.20626Z" fill="#0383FD"/>
<path fill-rule="evenodd" clip-rule="evenodd" d="M6.86255 10.6562C7.04779 10.2857 7.49829 10.1356 7.86878 10.3208L12.8021 12.7875C13.1726 12.9727 13.3228 13.4232 13.1375 13.7937C12.9523 14.1642 12.5018 14.3143 12.1313 14.1291L7.19796 11.6624C6.82747 11.4772 6.67731 11.0267 6.86255 10.6562Z" fill="#0383FD"/>
</svg>
