<svg width="24" height="24" viewBox="0 0 24 24" fill="none" xmlns="http://www.w3.org/2000/svg">
<path fill-rule="evenodd" clip-rule="evenodd" d="M16.7461 6.55241C14.1248 3.9311 9.87476 3.9311 7.25344 6.55241C4.63212 9.17373 4.63212 13.4237 7.25344 16.0451L11.2866 20.0783C11.6805 20.4721 12.319 20.4721 12.7129 20.0783L16.7461 16.0451C19.3674 13.4237 19.3674 9.17373 16.7461 6.55241ZM17.8067 5.49175C21.0138 8.69886 21.0138 13.8986 17.8067 17.1057L13.7735 21.1389C12.7939 22.1185 11.2056 22.1185 10.226 21.1389L6.19278 17.1057C2.98567 13.8986 2.98567 8.69886 6.19278 5.49175C9.39988 2.28465 14.5996 2.28465 17.8067 5.49175Z" fill="#323232"/>
<path fill-rule="evenodd" clip-rule="evenodd" d="M16.7461 6.55241C14.1248 3.9311 9.87476 3.9311 7.25344 6.55241C4.63212 9.17373 4.63212 13.4237 7.25344 16.0451L11.2866 20.0783C11.6805 20.4721 12.319 20.4721 12.7129 20.0783L16.7461 16.0451C19.3674 13.4237 19.3674 9.17373 16.7461 6.55241ZM17.8067 5.49175C21.0138 8.69886 21.0138 13.8986 17.8067 17.1057L13.7735 21.1389C12.7939 22.1185 11.2056 22.1185 10.226 21.1389L6.19278 17.1057C2.98567 13.8986 2.98567 8.69886 6.19278 5.49175C9.39988 2.28465 14.5996 2.28465 17.8067 5.49175Z" fill="#323232"/>
<path fill-rule="evenodd" clip-rule="evenodd" d="M8.68958 11.2989C8.68958 9.47061 10.1717 7.98848 12 7.98848C13.8283 7.98848 15.3104 9.47061 15.3104 11.2989C15.3104 13.1272 13.8283 14.6093 12 14.6093C10.1717 14.6093 8.68958 13.1272 8.68958 11.2989ZM12 9.48848C11.0001 9.48848 10.1896 10.299 10.1896 11.2989C10.1896 12.2988 11.0001 13.1093 12 13.1093C12.9999 13.1093 13.8104 12.2988 13.8104 11.2989C13.8104 10.299 12.9999 9.48848 12 9.48848Z" fill="#323232"/>
</svg>
