<svg width="20" height="20" viewBox="0 0 20 20" fill="none" xmlns="http://www.w3.org/2000/svg">
<path fill-rule="evenodd" clip-rule="evenodd" d="M13.8667 5.54874C11.7311 3.41313 8.26856 3.41313 6.13294 5.54874C3.99732 7.68436 3.99732 11.1469 6.13294 13.2825L9.49395 16.6435C9.77333 16.9229 10.2263 16.9229 10.5057 16.6435L13.8667 13.2825C16.0023 11.1469 16.0023 7.68436 13.8667 5.54874ZM14.9274 4.48808C17.6488 7.20949 17.6488 11.6218 14.9274 14.3432L11.5663 17.7042C10.7012 18.5693 9.29846 18.5693 8.43329 17.7042L5.07228 14.3432C2.35088 11.6218 2.35088 7.20949 5.07228 4.48808C7.79368 1.76668 12.206 1.76668 14.9274 4.48808Z" fill="#0383FD"/>
<path fill-rule="evenodd" clip-rule="evenodd" d="M13.8667 5.54874C11.7311 3.41313 8.26856 3.41313 6.13294 5.54874C3.99732 7.68436 3.99732 11.1469 6.13294 13.2825L9.49395 16.6435C9.77333 16.9229 10.2263 16.9229 10.5057 16.6435L13.8667 13.2825C16.0023 11.1469 16.0023 7.68436 13.8667 5.54874ZM14.9274 4.48808C17.6488 7.20949 17.6488 11.6218 14.9274 14.3432L11.5663 17.7042C10.7012 18.5693 9.29846 18.5693 8.43329 17.7042L5.07228 14.3432C2.35088 11.6218 2.35088 7.20949 5.07228 4.48808C7.79368 1.76668 12.206 1.76668 14.9274 4.48808Z" fill="#0383FD"/>
<path fill-rule="evenodd" clip-rule="evenodd" d="M7.11633 9.41543C7.11633 7.82281 8.4074 6.53174 10 6.53174C11.5926 6.53174 12.8837 7.82281 12.8837 9.41543C12.8837 11.008 11.5926 12.2991 10 12.2991C8.4074 12.2991 7.11633 11.008 7.11633 9.41543ZM10 8.03174C9.23583 8.03174 8.61633 8.65124 8.61633 9.41543C8.61633 10.1796 9.23583 10.7991 10 10.7991C10.7642 10.7991 11.3837 10.1796 11.3837 9.41543C11.3837 8.65124 10.7642 8.03174 10 8.03174Z" fill="#0383FD"/>
</svg>
