<svg width="20" height="20" viewBox="0 0 20 20" fill="none" xmlns="http://www.w3.org/2000/svg">
<g clip-path="url(#clip0_14_6698)">
<path d="M3.93417 10.7341C3.42333 11.7382 4.00333 12.2182 5.32667 13.0382C6.45167 13.7332 8.00583 13.9874 9.00417 14.0891C8.595 14.4824 10.47 12.6791 5.07 17.8732C3.925 18.9707 5.76833 20.7316 6.9125 19.6574L10.01 16.6699C11.1958 17.8107 12.3325 18.9041 13.1075 19.6616C14.2525 20.7399 16.095 18.9941 14.9625 17.8774C14.8775 17.7966 10.765 13.8516 11.0158 14.0932C12.0267 13.9916 13.5575 13.7224 14.6692 13.0424L14.6683 13.0416C15.9917 12.2174 16.5717 11.7382 16.0683 10.7341C15.7642 10.1641 14.9442 9.68741 13.8525 10.5116C13.8525 10.5116 12.3783 11.6407 10.0008 11.6407C7.6225 11.6407 6.14917 10.5116 6.14917 10.5116C5.05833 9.68324 4.235 10.1641 3.93417 10.7341Z" fill="#5E81B5"/>
<path d="M9.99917 10.1183C12.8975 10.1183 15.2642 7.85333 15.2642 5.065C15.2642 2.265 12.8975 0 9.99917 0C7.1 0 4.73333 2.265 4.73333 5.065C4.73333 7.85333 7.1 10.1183 9.99917 10.1183ZM9.99917 2.56583C11.4233 2.56583 12.585 3.68333 12.585 5.065C12.585 6.435 11.4233 7.5525 9.99917 7.5525C8.575 7.5525 7.41333 6.435 7.41333 5.065C7.4125 3.6825 8.57417 2.56583 9.99917 2.56583Z" fill="#5E81B5"/>
</g>
<defs>
<clipPath id="clip0_14_6698">
<rect width="20" height="20" fill="white"/>
</clipPath>
</defs>
</svg>
