<svg width="20" height="20" viewBox="0 0 20 20" fill="none" xmlns="http://www.w3.org/2000/svg">
<path d="M6.39453 17V4.55554H10.8303C11.7985 4.55554 12.6005 4.73176 13.2365 5.08419C13.8725 5.43662 14.3485 5.91868 14.6645 6.53037C14.9805 7.13801 15.1385 7.82261 15.1385 8.58419C15.1385 9.34981 14.9784 10.0385 14.6584 10.6502C14.3424 11.2578 13.8644 11.7399 13.2244 12.0963C12.5884 12.4488 11.7883 12.625 10.8242 12.625H7.77387V11.033H10.6541C11.2658 11.033 11.762 10.9276 12.1428 10.717C12.5236 10.5023 12.8031 10.2106 12.9813 9.842C13.1596 9.47337 13.2487 9.0541 13.2487 8.58419C13.2487 8.11428 13.1596 7.69704 12.9813 7.33245C12.8031 6.96787 12.5216 6.68228 12.1367 6.47568C11.7559 6.26908 11.2536 6.16579 10.6298 6.16579H8.27214V17H6.39453Z" fill="#0383FD"/>
</svg>
