<svg width="20" height="20" viewBox="0 0 20 20" fill="none" xmlns="http://www.w3.org/2000/svg">
<g opacity="0.9">
<path fill-rule="evenodd" clip-rule="evenodd" d="M5.4165 12.4167C5.83072 12.4167 6.1665 12.7525 6.1665 13.1667V14.7388C6.16687 14.7404 6.16739 14.7425 6.16811 14.745C6.17199 14.7587 6.17946 14.7785 6.19144 14.8007C6.20335 14.8228 6.21677 14.8419 6.22936 14.8565C6.237 14.8653 6.24284 14.8707 6.24615 14.8735L9.46449 16.854C9.81305 17.0487 10.27 17.0487 10.6185 16.854L13.8422 14.8702C13.8814 14.8427 13.8977 14.8205 13.9041 14.8096C13.9089 14.8014 13.9165 14.7863 13.9165 14.75V13.1667C13.9165 12.7525 14.2523 12.4167 14.6665 12.4167C15.0807 12.4167 15.4165 12.7525 15.4165 13.1667V14.75C15.4165 15.3743 15.0887 15.8422 14.6659 16.1241C14.6583 16.1291 14.6506 16.134 14.6429 16.1388L11.3929 18.1388C11.386 18.143 11.379 18.1472 11.3719 18.1512C10.558 18.6163 9.52497 18.6163 8.71107 18.1512C8.70401 18.1472 8.69702 18.143 8.6901 18.1388L5.4401 16.1388C5.43236 16.134 5.42471 16.1291 5.41715 16.1241C5.17015 15.9594 4.98944 15.7323 4.87073 15.5118C4.75388 15.2948 4.6665 15.0272 4.6665 14.75V13.1667C4.6665 12.7525 5.00229 12.4167 5.4165 12.4167Z" fill="#0383FD"/>
<path fill-rule="evenodd" clip-rule="evenodd" d="M9.60039 4.19864C9.84461 4.04487 10.1554 4.04487 10.3996 4.19864L14.8996 7.03197C15.1162 7.16835 15.2483 7.40577 15.25 7.66171C15.2517 7.91766 15.1227 8.1568 14.9079 8.29601L10.4079 11.2127C10.1598 11.3735 9.84024 11.3735 9.59208 11.2127L5.09208 8.29601C4.87729 8.1568 4.74833 7.91766 4.75002 7.66171C4.7517 7.40577 4.88379 7.16835 5.10039 7.03197L9.60039 4.19864ZM6.89307 7.67581L10 9.68955L13.1069 7.67581L10 5.71959L6.89307 7.67581Z" fill="#0383FD"/>
<path fill-rule="evenodd" clip-rule="evenodd" d="M4.96855 3.14374L2.49564 4.70992C2.474 4.72583 2.45825 4.75156 2.45825 4.79167C2.45825 4.83346 2.47535 4.85964 2.49839 4.87537L5.91241 7.12362C6.12501 7.26363 6.25208 7.50191 6.24989 7.75645C6.2477 8.011 6.11655 8.24706 5.90158 8.38338L2.49572 10.5432C2.47404 10.5591 2.45825 10.5848 2.45825 10.625C2.45825 10.6651 2.474 10.6908 2.49563 10.7067L4.98454 12.2831L4.99928 12.2926C5.22732 12.4447 5.57951 12.4777 5.94732 12.2733L9.59726 9.95059C9.8392 9.79663 10.1478 9.79411 10.3922 9.94409L14.0588 12.1941C14.0669 12.199 14.0748 12.2041 14.0826 12.2093C14.3108 12.3614 14.6632 12.3944 15.0313 12.1896L17.5042 10.6234C17.5258 10.6075 17.5416 10.5818 17.5416 10.5417C17.5416 10.5015 17.5258 10.4758 17.5041 10.4599L14.0983 8.30005C13.8814 8.1625 13.7499 7.92352 13.7499 7.66667C13.7499 7.40982 13.8814 7.17084 14.0983 7.03329L17.5041 4.87348C17.5258 4.85757 17.5416 4.83183 17.5416 4.79167C17.5416 4.75156 17.5258 4.72583 17.5042 4.70992L15.0153 3.13362L15.0006 3.12404C14.7725 2.97201 14.4203 2.93897 14.0525 3.14339L10.4026 5.46608C10.1569 5.62242 9.84294 5.62242 9.59726 5.46608L5.9306 3.13275L5.91723 3.12404C5.68905 2.97192 5.33659 2.93893 4.96855 3.14374ZM6.74196 1.87111C5.974 1.36344 5.0025 1.39662 4.21115 1.84882C4.20129 1.85445 4.19156 1.86031 4.18196 1.86639L1.68196 3.44972L1.66723 3.4593C0.721927 4.0895 0.721927 5.49384 1.66723 6.12404L4.11821 7.73812L1.6816 9.28329L1.66723 9.29263C0.721927 9.92283 0.721927 11.3272 1.66723 11.9574L1.68196 11.9669L4.17526 13.546C4.94311 14.0532 5.91425 14.0199 6.70536 13.5679C6.71569 13.5619 6.72587 13.5558 6.73591 13.5494L10.0071 11.4677L13.2635 13.4659C14.0306 13.9697 14.9993 13.9356 15.7887 13.4845C15.7985 13.4789 15.8083 13.473 15.8179 13.4669L18.3179 11.8836L18.3326 11.874C19.2779 11.2438 19.2779 9.8395 18.3326 9.2093L18.3182 9.19995L15.9004 7.66667L18.3182 6.13338L18.3326 6.12404C19.2779 5.49384 19.2779 4.0895 18.3326 3.4593L18.3179 3.44972L15.8246 1.87062C15.0567 1.36346 14.0856 1.39676 13.2945 1.84882C13.2842 1.85472 13.274 1.86087 13.2639 1.86726L9.99992 3.94435L6.74196 1.87111Z" fill="#0383FD"/>
</g>
</svg>
