<svg width="20" height="20" viewBox="0 0 20 20" fill="none" xmlns="http://www.w3.org/2000/svg">
<path fill-rule="evenodd" clip-rule="evenodd" d="M10.0035 2C11.5683 1.99978 13.0991 2.45606 14.4084 3.31293C15.7177 4.16982 16.7486 5.39008 17.3747 6.82415C17.5214 7.16018 17.368 7.55151 17.0319 7.69821C16.6959 7.84492 16.3046 7.69145 16.1579 7.35542C15.6351 6.15812 14.7745 5.13934 13.6813 4.42393C12.5882 3.70852 11.3101 3.32757 10.0036 3.32777H10.0035C7.10903 3.32777 4.64167 5.16055 3.6998 7.72845L4.30192 7.29054C4.59844 7.07488 5.01365 7.14044 5.22931 7.43697C5.44496 7.73349 5.37941 8.1487 5.08288 8.36435L3.05438 9.83964C2.84285 9.99348 2.56072 10.0088 2.33379 9.87874C2.10686 9.74868 1.97745 9.49751 2.00325 9.23724C2.40615 5.17363 5.83412 2.00005 10.0034 2" fill="black"/>
<path fill-rule="evenodd" clip-rule="evenodd" d="M17.7127 10.2035C17.9381 10.334 18.0665 10.5843 18.0407 10.8436C17.6378 14.9072 14.2098 18.0808 10.0397 18.0808C6.74207 18.0808 3.90942 16.0952 2.66867 13.2569C2.5218 12.921 2.6751 12.5296 3.01105 12.3827C3.34701 12.2358 3.73841 12.3891 3.88527 12.7251C4.92238 15.0975 7.28869 16.753 10.0397 16.753C12.9443 16.753 15.4183 14.9083 16.3533 12.3273L15.7005 12.7936C15.4022 13.0067 14.9875 12.9376 14.7744 12.6392C14.5613 12.3409 14.6304 11.9263 14.9288 11.7131L16.9942 10.2378C17.2062 10.0864 17.4872 10.073 17.7127 10.2035Z" fill="black"/>
<path d="M11.8482 12.254C11.946 12.254 12.0399 12.2151 12.109 12.1459C12.1782 12.0768 12.2171 11.9829 12.2171 11.8851C12.2171 11.7873 12.1782 11.6934 12.109 11.6243C12.0399 11.5551 11.946 11.5162 11.8482 11.5162C11.7504 11.5162 11.6565 11.5551 11.5874 11.6243C11.5182 11.6934 11.4793 11.7873 11.4793 11.8851C11.4793 11.9829 11.5182 12.0768 11.5874 12.1459C11.6565 12.2151 11.7504 12.254 11.8482 12.254ZM8.15941 8.56518C8.25724 8.56518 8.35107 8.52632 8.42025 8.45714C8.48942 8.38796 8.52829 8.29414 8.52829 8.1963C8.52829 8.09847 8.48942 8.00464 8.42025 7.93547C8.35107 7.86629 8.25724 7.82742 8.15941 7.82742C8.06157 7.82742 7.96775 7.86629 7.89857 7.93547C7.82939 8.00464 7.79053 8.09847 7.79053 8.1963C7.79053 8.29414 7.82939 8.38796 7.89857 8.45714C7.96775 8.52632 8.06157 8.56518 8.15941 8.56518Z" fill="black"/>
<path fill-rule="evenodd" clip-rule="evenodd" d="M7.50741 7.54434C7.68036 7.37139 7.91492 7.27423 8.1595 7.27423C8.40409 7.27423 8.63865 7.37139 8.8116 7.54434C8.98455 7.71728 9.08171 7.95185 9.08171 8.19643C9.08171 8.44101 8.98455 8.67558 8.8116 8.84853C8.63865 9.02147 8.40409 9.11863 8.1595 9.11863C7.91492 9.11863 7.68036 9.02147 7.50741 8.84853C7.33446 8.67558 7.2373 8.44101 7.2373 8.19643C7.2373 7.95185 7.33446 7.71728 7.50741 7.54434ZM8.1595 8.38087C8.20842 8.38087 8.25533 8.36144 8.28992 8.32685C8.32451 8.29226 8.34395 8.24535 8.34395 8.19643C8.34395 8.14752 8.32451 8.1006 8.28992 8.06601C8.25533 8.03142 8.20842 8.01199 8.1595 8.01199C8.11059 8.01199 8.06368 8.03142 8.02909 8.06601C7.9945 8.1006 7.97506 8.14752 7.97506 8.19643C7.97506 8.24535 7.9945 8.29226 8.02909 8.32685C8.06368 8.36144 8.11059 8.38087 8.1595 8.38087ZM11.1962 11.2331C11.3692 11.0602 11.6037 10.963 11.8483 10.963C12.0929 10.963 12.3275 11.0602 12.5004 11.2331C12.6733 11.4061 12.7705 11.6407 12.7705 11.8852C12.7705 12.1298 12.6733 12.3644 12.5004 12.5373C12.3275 12.7103 12.0929 12.8074 11.8483 12.8074C11.6037 12.8074 11.3692 12.7103 11.1962 12.5373C11.0233 12.3644 10.9261 12.1298 10.9261 11.8852C10.9261 11.6407 11.0233 11.4061 11.1962 11.2331ZM11.8483 12.0697C11.8972 12.0697 11.9441 12.0502 11.9787 12.0157C12.0133 11.9811 12.0327 11.9341 12.0327 11.8852C12.0327 11.8363 12.0133 11.7894 11.9787 11.7548C11.9441 11.7202 11.8972 11.7008 11.8483 11.7008C11.7994 11.7008 11.7525 11.7202 11.7179 11.7548C11.6833 11.7894 11.6639 11.8363 11.6639 11.8852C11.6639 11.9341 11.6833 11.9811 11.7179 12.0157C11.7525 12.0502 11.7994 12.0697 11.8483 12.0697Z" fill="black"/>
<path fill-rule="evenodd" clip-rule="evenodd" d="M12.6866 7.35802C12.9459 7.61732 12.9459 8.03773 12.6866 8.29704L8.26008 12.7236C8.00078 12.9829 7.58037 12.9829 7.32106 12.7236C7.06176 12.4643 7.06176 12.0439 7.32106 11.7846L11.7476 7.35802C12.0069 7.09872 12.4273 7.09872 12.6866 7.35802Z" fill="black"/>
</svg>
