<svg width="20" height="20" viewBox="0 0 20 20" fill="none" xmlns="http://www.w3.org/2000/svg">
<path fill-rule="evenodd" clip-rule="evenodd" d="M6.66683 3.25C6.62104 3.25 6.5835 3.28755 6.5835 3.33333V6.66667C6.5835 7.08088 6.24771 7.41667 5.8335 7.41667C5.41928 7.41667 5.0835 7.08088 5.0835 6.66667V3.33333C5.0835 2.45912 5.79262 1.75 6.66683 1.75H13.3335C14.2077 1.75 14.9168 2.45912 14.9168 3.33333V6.66667C14.9168 7.08088 14.581 7.41667 14.1668 7.41667C13.7526 7.41667 13.4168 7.08088 13.4168 6.66667V3.33333C13.4168 3.28755 13.3793 3.25 13.3335 3.25H6.66683Z" fill="#0383FD"/>
<path fill-rule="evenodd" clip-rule="evenodd" d="M4.16667 7.41669C3.66005 7.41669 3.25 7.82673 3.25 8.33335V12.5C3.25 13.0066 3.66005 13.4167 4.16667 13.4167H5.83333C6.24755 13.4167 6.58333 13.7525 6.58333 14.1667C6.58333 14.5809 6.24755 14.9167 5.83333 14.9167H4.16667C2.83162 14.9167 1.75 13.8351 1.75 12.5V8.33335C1.75 6.99831 2.83162 5.91669 4.16667 5.91669H15.8333C17.1684 5.91669 18.25 6.99831 18.25 8.33335V12.5C18.25 13.8351 17.1684 14.9167 15.8333 14.9167H14.1667C13.7525 14.9167 13.4167 14.5809 13.4167 14.1667C13.4167 13.7525 13.7525 13.4167 14.1667 13.4167H15.8333C16.34 13.4167 16.75 13.0066 16.75 12.5V8.33335C16.75 7.82673 16.34 7.41669 15.8333 7.41669H4.16667Z" fill="#0383FD"/>
<path fill-rule="evenodd" clip-rule="evenodd" d="M5.0835 11.5C5.0835 11.0858 5.41928 10.75 5.8335 10.75H14.1668C14.581 10.75 14.9168 11.0858 14.9168 11.5V16.6667C14.9168 17.5409 14.2077 18.25 13.3335 18.25H6.66683C5.79262 18.25 5.0835 17.5409 5.0835 16.6667V11.5ZM6.5835 12.25V16.6667C6.5835 16.7125 6.62104 16.75 6.66683 16.75H13.3335C13.3793 16.75 13.4168 16.7125 13.4168 16.6667V12.25H6.5835Z" fill="#0383FD"/>
<path fill-rule="evenodd" clip-rule="evenodd" d="M5.0835 9.16669C5.0835 8.75247 5.41928 8.41669 5.8335 8.41669H6.66683C7.08104 8.41669 7.41683 8.75247 7.41683 9.16669C7.41683 9.5809 7.08104 9.91669 6.66683 9.91669H5.8335C5.41928 9.91669 5.0835 9.5809 5.0835 9.16669Z" fill="#0383FD"/>
</svg>
