<svg width="27" height="38" viewBox="0 0 27 38" fill="none" xmlns="http://www.w3.org/2000/svg">
<path d="M8.60699 25.9062V25.0663C8.60699 23.1415 8.75864 21.6074 9.06195 20.4642C9.36525 19.321 9.81438 18.4052 10.4093 17.717C11.0043 17.017 11.7334 16.3871 12.5966 15.8271C13.3432 15.3372 14.0081 14.8647 14.5914 14.4098C15.1864 13.9548 15.653 13.4707 15.9913 12.9574C16.3413 12.4441 16.5162 11.8609 16.5162 11.2076C16.5162 10.6243 16.3763 10.111 16.0963 9.66773C15.8163 9.22444 15.4372 8.8803 14.9589 8.63533C14.4806 8.39035 13.9498 8.26786 13.3665 8.26786C12.7366 8.26786 12.1533 8.41368 11.6167 8.70532C11.0918 8.99696 10.666 9.39942 10.3393 9.9127C10.0244 10.426 9.86687 11.0209 9.86687 11.6975H0.907715C0.931046 9.13111 1.51432 7.04881 2.65755 5.45063C3.80078 3.84078 5.3173 2.66255 7.20712 1.91596C9.09694 1.1577 11.1734 0.778564 13.4365 0.778564C15.933 0.778564 18.1611 1.14603 20.1209 1.88096C22.0807 2.60423 23.6264 3.70079 24.758 5.17065C25.8895 6.62885 26.4553 8.45451 26.4553 10.6476C26.4553 12.0592 26.2103 13.3016 25.7204 14.3748C25.2421 15.4364 24.5713 16.3754 23.7081 17.192C22.8565 17.9969 21.8591 18.7319 20.7159 19.3968C19.8759 19.8868 19.1702 20.3942 18.5985 20.9192C18.0269 21.4325 17.5953 22.0216 17.3037 22.6865C17.012 23.3398 16.8662 24.133 16.8662 25.0663V25.9062H8.60699ZM12.8766 37.6651C11.5234 37.6651 10.3627 37.1926 9.39442 36.2477C8.43784 35.2911 7.96538 34.1304 7.97705 32.7656C7.96538 31.4357 8.43784 30.2983 9.39442 29.3534C10.3627 28.4085 11.5234 27.936 12.8766 27.936C14.1598 27.936 15.2914 28.4085 16.2713 29.3534C17.2628 30.2983 17.7645 31.4357 17.7761 32.7656C17.7645 33.6755 17.5253 34.5037 17.0587 35.2503C16.6037 35.9853 16.0088 36.5744 15.2739 37.0177C14.5389 37.4493 13.7398 37.6651 12.8766 37.6651Z" fill="white"/>
</svg>
