<svg width="20" height="20" viewBox="0 0 20 20" fill="none" xmlns="http://www.w3.org/2000/svg">
<path fill-rule="evenodd" clip-rule="evenodd" d="M12.5645 6.22867C10.8149 4.47912 7.97837 4.47912 6.22882 6.22867C4.47927 7.97821 4.47927 10.8148 6.22882 12.5643C7.97837 14.3139 10.8149 14.3139 12.5645 12.5643C14.314 10.8148 14.314 7.97821 12.5645 6.22867ZM13.6252 5.16801C11.2898 2.83267 7.50349 2.83267 5.16816 5.16801C2.83282 7.50334 2.83282 11.2897 5.16816 13.625C7.50349 15.9603 11.2898 15.9603 13.6252 13.625C15.9605 11.2897 15.9605 7.50334 13.6252 5.16801Z" fill="#10D0FF"/>
<path fill-rule="evenodd" clip-rule="evenodd" d="M12.5613 12.5615C12.8542 12.2686 13.3291 12.2686 13.622 12.5615L16.3637 15.3031C16.6566 15.596 16.6566 16.0709 16.3637 16.3638C16.0708 16.6567 15.5959 16.6567 15.303 16.3638L12.5613 13.6221C12.2685 13.3292 12.2685 12.8544 12.5613 12.5615Z" fill="#10D0FF"/>
</svg>
