<svg width="24" height="24" viewBox="0 0 24 24" fill="none" xmlns="http://www.w3.org/2000/svg">
<path fill-rule="evenodd" clip-rule="evenodd" d="M5.0004 7.2239C6.01255 7.96183 6.77869 8.99862 7.43102 9.95128L7.94231 10.7028C8.10108 10.9348 8.17373 11.215 8.14768 11.4949C8.12163 11.7749 7.99852 12.0368 7.79966 12.2356L6.71297 13.322L6.82757 13.5656C7.10806 14.1337 7.5921 14.9517 8.32056 15.6809C8.82358 16.1762 9.39066 16.6019 10.0067 16.9468L10.3008 17.1046L10.5629 17.2344L10.6799 17.2881L11.7657 16.2017C11.9653 16.0024 12.2285 15.8795 12.5094 15.8545C12.7904 15.8294 13.0711 15.9038 13.3028 16.0646L14.1154 16.6279C15.0386 17.2769 16.0027 18.0164 16.752 18.9763C16.8815 19.1429 16.9639 19.3412 16.9906 19.5505C17.0172 19.7598 16.9871 19.9724 16.9035 20.1661C16.2327 21.7309 14.5354 23.0634 12.7699 22.9977L12.5295 22.9848L12.3427 22.9688L12.136 22.9448L11.9108 22.9143L11.6664 22.8735L11.4051 22.8222L11.1278 22.7605L10.8345 22.6852L10.526 22.5971L10.2038 22.4929C8.72447 21.9913 6.8468 21.0058 4.92026 19.0797C2.99451 17.1543 2.0088 15.277 1.50713 13.798L1.40295 13.4759L1.3148 13.1674L1.23946 12.8742L1.17696 12.5969C1.1589 12.5101 1.14207 12.423 1.12647 12.3357L1.0864 12.0914L1.05434 11.8662L1.0311 11.6595L1.01508 11.4728L1.00225 11.2324C0.93734 9.47294 2.28448 7.76393 3.84239 7.0965C4.02989 7.01555 4.23523 6.98473 4.43824 7.00707C4.64126 7.0294 4.83498 7.10412 5.0004 7.2239ZM4.25751 8.67252C3.39841 9.12121 2.56657 10.1468 2.60424 11.1732L2.62026 11.436L2.63789 11.6002L2.66113 11.7845L2.69319 11.9872L2.73406 12.2091L2.78615 12.4479L2.85026 12.7043L2.9272 12.9759L3.01855 13.2628C3.05221 13.3605 3.08747 13.4607 3.12594 13.5632L3.24936 13.8773L3.3904 14.2034C3.89367 15.3107 4.7143 16.6071 6.05503 17.9467C7.39496 19.2864 8.69161 20.1076 9.79913 20.6108L10.1253 20.7518L10.4394 20.8752C10.542 20.9137 10.6422 20.9489 10.74 20.9826L11.0269 21.0739L11.2993 21.1508L11.555 21.2149L11.7938 21.267L12.0158 21.3079L12.2193 21.3399L12.4037 21.364L12.5671 21.38L12.83 21.396C13.843 21.4337 14.8768 20.6068 15.3239 19.7591C14.7533 19.0901 14.0449 18.5412 13.2635 17.9884L12.6641 17.571L12.5118 17.7304L12.1865 18.0853L12.0142 18.2664C11.5446 18.7448 10.9964 19.151 10.3393 18.8858L10.1582 18.8097L9.93697 18.7103L9.81356 18.6518L9.54269 18.5164L9.24537 18.3562C8.49296 17.9375 7.80091 17.4187 7.1882 16.8138C6.58321 16.2012 6.06424 15.5093 5.64552 14.757L5.48524 14.4606L5.349 14.189L5.19193 13.8444L5.115 13.6618C4.86576 13.0456 5.20876 12.5256 5.64712 12.0753L5.82663 11.8991L6.27301 11.488L6.43329 11.3358L6.05423 10.7805C5.49085 9.9633 4.94029 9.22617 4.25671 8.67172L4.25751 8.67252Z" fill="#0383FD"/>
<path fill-rule="evenodd" clip-rule="evenodd" d="M16.3221 2.75C13.5993 2.75 11.3931 4.95721 11.3931 7.678C11.3931 8.42312 11.5581 9.12841 11.8521 9.76076C11.9203 9.90733 11.9393 10.072 11.9062 10.2303L11.4102 12.6065L13.7803 12.1034C13.939 12.0697 14.1043 12.0883 14.2515 12.1566C14.8538 12.4358 15.5207 12.5979 16.2267 12.612C16.2579 12.608 16.2898 12.606 16.3221 12.606C19.0428 12.606 21.2501 10.3988 21.2501 7.678C21.2501 4.95704 19.0447 2.75 16.3221 2.75ZM16.437 14.105C19.9332 14.0436 22.7501 11.1888 22.7501 7.678C22.7501 4.12896 19.8734 1.25 16.3221 1.25C12.7708 1.25 9.89305 4.12879 9.89305 7.678C9.89305 8.55627 10.0697 9.39496 10.3887 10.1591L9.70688 13.4257C9.65509 13.6739 9.73211 13.9313 9.91163 14.1102C10.0912 14.2891 10.3489 14.3653 10.5968 14.3126L13.8557 13.6208C14.6169 13.9375 15.4513 14.113 16.3271 14.113C16.3644 14.113 16.4011 14.1103 16.437 14.105Z" fill="#0383FD"/>
<path fill-rule="evenodd" clip-rule="evenodd" d="M13.0714 7.2243C13.3838 6.91189 13.8903 6.91189 14.2027 7.2243C14.5151 7.53672 14.5151 8.04326 14.2027 8.35568C13.8903 8.66809 13.3838 8.66809 13.0714 8.35568C12.7589 8.04326 12.7589 7.53672 13.0714 7.2243Z" fill="#0383FD"/>
<path fill-rule="evenodd" clip-rule="evenodd" d="M15.6773 7.2243C15.9897 6.91189 16.4963 6.91189 16.8087 7.2243C17.1211 7.53672 17.1211 8.04326 16.8087 8.35568C16.4963 8.66809 15.9897 8.66809 15.6773 8.35568C15.3649 8.04326 15.3649 7.53672 15.6773 7.2243Z" fill="#0383FD"/>
<path fill-rule="evenodd" clip-rule="evenodd" d="M18.2824 7.2243C18.5948 6.91189 19.1014 6.91189 19.4138 7.2243C19.7262 7.53672 19.7262 8.04326 19.4138 8.35568C19.1014 8.66809 18.5948 8.66809 18.2824 8.35568C17.97 8.04326 17.97 7.53672 18.2824 7.2243Z" fill="#0383FD"/>
</svg>
