<svg width="24" height="24" viewBox="0 0 24 24" fill="none" xmlns="http://www.w3.org/2000/svg">
<path fill-rule="evenodd" clip-rule="evenodd" d="M7.50045 3.25189C8.63912 4.08206 9.50102 5.24845 10.2349 6.32019L10.8101 7.16568C10.9887 7.42669 11.0704 7.74192 11.0411 8.05681C11.0118 8.37171 10.8733 8.66645 10.6496 8.89003L9.42709 10.1123L9.55602 10.3863C9.87156 11.0254 10.4161 11.9457 11.2356 12.766C11.8015 13.3232 12.4395 13.8022 13.1325 14.1901L13.4634 14.3677L13.7582 14.5137L13.8898 14.5741L15.1115 13.3519C15.336 13.1277 15.6321 12.9895 15.9481 12.9613C16.2641 12.9331 16.58 13.0168 16.8407 13.1977L17.7549 13.8314C18.7935 14.5615 19.878 15.3935 20.721 16.4733C20.8667 16.6607 20.9594 16.8838 20.9894 17.1193C21.0194 17.3548 20.9855 17.594 20.8914 17.8119C20.1368 19.5723 18.2273 21.0713 16.2411 20.9974L15.9707 20.983L15.7606 20.9649L15.528 20.9379L15.2746 20.9036L14.9997 20.8577L14.7058 20.8L14.3938 20.7306L14.0638 20.6458L13.7167 20.5467L13.3543 20.4295C11.69 19.8652 9.57765 18.7565 7.41029 16.5896C5.24383 14.4236 4.1349 12.3117 3.57052 10.6477L3.45332 10.2854L3.35415 9.93833L3.2694 9.60843L3.19908 9.29655C3.17876 9.19887 3.15983 9.10091 3.14228 9.0027L3.0972 8.72778L3.06114 8.47449L3.03499 8.24193L3.01696 8.03191L3.00253 7.7615C2.92951 5.78206 4.44504 3.85942 6.19768 3.10857C6.40863 3.0175 6.63963 2.98282 6.86803 3.00795C7.09642 3.03308 7.31435 3.11714 7.50045 3.25189ZM6.66469 4.88158C5.69822 5.38636 4.76239 6.54012 4.80476 7.69479L4.8228 7.99045L4.84263 8.17523L4.86878 8.38255L4.90484 8.6106L4.95082 8.86028L5.00942 9.12889L5.08155 9.41733L5.1681 9.7229L5.27087 10.0456C5.30874 10.1556 5.34841 10.2682 5.39168 10.3836L5.53053 10.737L5.6892 11.1038C6.25538 12.3495 7.17859 13.808 8.68691 15.3151C10.1943 16.8222 11.6531 17.7461 12.899 18.3122L13.266 18.4708L13.6194 18.6096C13.7348 18.6529 13.8475 18.6925 13.9575 18.7304L14.2802 18.8332L14.5868 18.9197L14.8744 18.9918L15.143 19.0504L15.3928 19.0964L15.6218 19.1324L15.8291 19.1595L16.013 19.1775L16.3087 19.1955C17.4483 19.2379 18.6113 18.3077 19.1144 17.354C18.4725 16.6013 17.6755 15.9839 16.7965 15.3619L16.1221 14.8923L15.9508 15.0717L15.5848 15.471L15.391 15.6747C14.8626 16.2128 14.246 16.6698 13.5067 16.3715L13.3029 16.2859L13.0541 16.1741L12.9153 16.1083L12.6105 15.956L12.276 15.7757C11.4296 15.3047 10.651 14.721 9.96172 14.0405C9.28111 13.3513 8.69727 12.573 8.22621 11.7267L8.04589 11.3932L7.89263 11.0876L7.71592 10.7L7.62937 10.4945C7.34898 9.80132 7.73485 9.21633 8.22801 8.70975L8.42996 8.51145L8.93213 8.04904L9.11245 7.87777L8.68601 7.25312C8.0522 6.33371 7.43283 5.50444 6.66379 4.88068L6.66469 4.88158Z" fill="#0383FD"/>
</svg>
