<svg width="24" height="24" viewBox="0 0 24 24" fill="none" xmlns="http://www.w3.org/2000/svg">
<path fill-rule="evenodd" clip-rule="evenodd" d="M17.8336 6.16637C14.6118 2.94454 9.3882 2.94454 6.16637 6.16637L6.16637 6.16637C2.94454 9.38818 2.94454 14.6118 6.16637 17.8336C9.38818 21.0554 14.6118 21.0554 17.8336 17.8336C21.0553 14.6119 21.0554 9.38857 17.834 6.16671C17.8338 6.1666 17.8337 6.16648 17.8336 6.16637ZM18.8943 5.10571C22.7019 8.91332 22.7019 15.0867 18.8943 18.8943C15.0867 22.7019 8.9133 22.7019 5.10571 18.8943C1.2981 15.0867 1.2981 8.9133 5.10571 5.10571C8.91332 1.2981 15.0867 1.2981 18.8943 5.10571Z" fill="#323232"/>
<path fill-rule="evenodd" clip-rule="evenodd" d="M5.95872 19.1038C6.44595 16.7691 9.11531 15.25 11.9999 15.25C14.8845 15.25 17.5539 16.7691 18.0411 19.1038C18.1257 19.5093 17.8656 19.9066 17.4601 19.9912C17.0546 20.0758 16.6573 19.8157 16.5727 19.4102C16.292 18.0649 14.5253 16.75 11.9999 16.75C9.47449 16.75 7.70785 18.0649 7.42708 19.4102C7.34246 19.8157 6.94516 20.0758 6.53968 19.9912C6.1342 19.9066 5.8741 19.5093 5.95872 19.1038Z" fill="#323232"/>
<path fill-rule="evenodd" clip-rule="evenodd" d="M13.5909 8.40901C12.7122 7.53033 11.2876 7.53033 10.4089 8.40901C9.53021 9.28768 9.53021 10.7123 10.4089 11.591C11.2876 12.4697 12.7122 12.4697 13.5909 11.591C14.4695 10.7123 14.4695 9.28768 13.5909 8.40901ZM14.6515 7.34835C13.1871 5.88388 10.8127 5.88388 9.34823 7.34835C7.88376 8.81281 7.88376 11.1872 9.34823 12.6516C10.8127 14.1161 13.1871 14.1161 14.6515 12.6516C16.116 11.1872 16.116 8.81281 14.6515 7.34835Z" fill="#323232"/>
</svg>
