<svg width="20" height="20" viewBox="0 0 20 20" fill="none" xmlns="http://www.w3.org/2000/svg">
<path d="M12.2783 2.60889H9.07827C5.99827 2.60889 3.47827 5.12889 3.47827 8.20889V10.6089C3.47827 12.7689 4.73827 14.7489 6.67827 15.6689V18.3489C6.67827 18.5889 6.97827 18.7089 7.13827 18.5289L9.45827 16.2089H12.2783C15.3583 16.2089 17.8783 13.6889 17.8783 10.6089V8.20889C17.8783 5.12889 15.3583 2.60889 12.2783 2.60889ZM14.3783 13.1089L13.5583 13.9089C12.6983 14.7489 10.4783 13.7889 8.51827 11.7889C6.55827 9.78889 5.69827 7.54889 6.51827 6.70889L7.31827 5.90889C7.61827 5.60889 8.11827 5.62889 8.45827 5.92889L9.61827 7.12889C10.0383 7.54889 9.85827 8.26889 9.31827 8.42889C8.93827 8.54889 8.67827 8.96889 8.79827 9.34889C8.99827 10.2289 10.1183 11.3489 10.9583 11.5689C11.3383 11.6489 11.7583 11.4489 11.8983 11.0689C12.0783 10.5289 12.7983 10.3689 13.1983 10.7889L14.3583 11.9889C14.6783 12.2689 14.6783 12.7689 14.3783 13.1089ZM11.3983 6.40889C11.3183 6.40889 11.2383 6.40889 11.1583 6.42889C11.0183 6.44889 10.8783 6.32889 10.8583 6.18889C10.8383 6.04889 10.9583 5.90889 11.0983 5.88889C11.1983 5.86889 11.2983 5.86889 11.3983 5.86889C12.8583 5.86889 14.0583 7.06889 14.0583 8.52889C14.0583 8.62889 14.0583 8.72889 14.0383 8.82889C14.0183 8.96889 13.8783 9.08889 13.7383 9.06889C13.5983 9.04889 13.4783 8.90889 13.4983 8.76889C13.4983 8.68889 13.5183 8.60889 13.5183 8.52889C13.5383 7.36889 12.5783 6.40889 11.3983 6.40889ZM12.9983 8.54889C12.9983 8.68889 12.8783 8.80889 12.7383 8.80889C12.5983 8.80889 12.4783 8.68889 12.4783 8.54889C12.4783 7.96889 11.9983 7.48889 11.4183 7.48889C11.2783 7.48889 11.1583 7.36889 11.1583 7.22889C11.1583 7.08889 11.2783 6.96889 11.4183 6.96889C12.2783 6.94889 12.9983 7.66889 12.9983 8.54889ZM15.0383 9.40889C14.9983 9.54889 14.8583 9.64889 14.6983 9.60889C14.5583 9.56889 14.4783 9.42889 14.5183 9.28889C14.5783 9.04889 14.5983 8.80889 14.5983 8.54889C14.5983 6.78889 13.1583 5.34889 11.3983 5.34889C11.3183 5.34889 11.2383 5.34889 11.1583 5.34889C11.0183 5.34889 10.8783 5.24889 10.8783 5.10889C10.8783 4.96889 10.9783 4.82889 11.1183 4.82889C11.2183 4.82889 11.3183 4.80889 11.3983 4.80889C13.4583 4.80889 15.1383 6.48889 15.1383 8.54889C15.1383 8.82889 15.0983 9.12889 15.0383 9.40889Z" fill="#B1CEEA"/>
</svg>
