<svg width="30" height="30" viewBox="0 0 30 30" fill="none" xmlns="http://www.w3.org/2000/svg">
<path fill-rule="evenodd" clip-rule="evenodd" d="M13.75 4.5C13.4742 4.5 13.25 4.72421 13.25 5V7.5C13.25 7.77579 13.4742 8 13.75 8H25C25.2758 8 25.5 7.77579 25.5 7.5V5C25.5 4.72421 25.2758 4.5 25 4.5H13.75ZM11.75 5C11.75 3.89579 12.6458 3 13.75 3H25C26.1042 3 27 3.89579 27 5V7.5C27 8.60421 26.1042 9.5 25 9.5H13.75C12.6458 9.5 11.75 8.60421 11.75 7.5V5Z" fill="#9DA5AE"/>
<path fill-rule="evenodd" clip-rule="evenodd" d="M13.75 13.25C13.4742 13.25 13.25 13.4742 13.25 13.75V16.25C13.25 16.5258 13.4742 16.75 13.75 16.75H25C25.2758 16.75 25.5 16.5258 25.5 16.25V13.75C25.5 13.4742 25.2758 13.25 25 13.25H13.75ZM11.75 13.75C11.75 12.6458 12.6458 11.75 13.75 11.75H25C26.1042 11.75 27 12.6458 27 13.75V16.25C27 17.3542 26.1042 18.25 25 18.25H13.75C12.6458 18.25 11.75 17.3542 11.75 16.25V13.75Z" fill="#9DA5AE"/>
<path fill-rule="evenodd" clip-rule="evenodd" d="M13.75 22C13.4742 22 13.25 22.2242 13.25 22.5V25C13.25 25.2758 13.4742 25.5 13.75 25.5H25C25.2758 25.5 25.5 25.2758 25.5 25V22.5C25.5 22.2242 25.2758 22 25 22H13.75ZM11.75 22.5C11.75 21.3958 12.6458 20.5 13.75 20.5H25C26.1042 20.5 27 21.3958 27 22.5V25C27 26.1042 26.1042 27 25 27H13.75C12.6458 27 11.75 26.1042 11.75 25V22.5Z" fill="#9DA5AE"/>
<path fill-rule="evenodd" clip-rule="evenodd" d="M5 4.5C4.72421 4.5 4.5 4.72421 4.5 5V7.5C4.5 7.77579 4.72421 8 5 8H7.5C7.77579 8 8 7.77579 8 7.5V5C8 4.72421 7.77579 4.5 7.5 4.5H5ZM3 5C3 3.89579 3.89579 3 5 3H7.5C8.60421 3 9.5 3.89579 9.5 5V7.5C9.5 8.60421 8.60421 9.5 7.5 9.5H5C3.89579 9.5 3 8.60421 3 7.5V5Z" fill="#9DA5AE"/>
<path fill-rule="evenodd" clip-rule="evenodd" d="M5 13.25C4.72421 13.25 4.5 13.4742 4.5 13.75V16.25C4.5 16.5258 4.72421 16.75 5 16.75H7.5C7.77579 16.75 8 16.5258 8 16.25V13.75C8 13.4742 7.77579 13.25 7.5 13.25H5ZM3 13.75C3 12.6458 3.89579 11.75 5 11.75H7.5C8.60421 11.75 9.5 12.6458 9.5 13.75V16.25C9.5 17.3542 8.60421 18.25 7.5 18.25H5C3.89579 18.25 3 17.3542 3 16.25V13.75Z" fill="#9DA5AE"/>
<path fill-rule="evenodd" clip-rule="evenodd" d="M5 22C4.72421 22 4.5 22.2242 4.5 22.5V25C4.5 25.2758 4.72421 25.5 5 25.5H7.5C7.77579 25.5 8 25.2758 8 25V22.5C8 22.2242 7.77579 22 7.5 22H5ZM3 22.5C3 21.3958 3.89579 20.5 5 20.5H7.5C8.60421 20.5 9.5 21.3958 9.5 22.5V25C9.5 26.1042 8.60421 27 7.5 27H5C3.89579 27 3 26.1042 3 25V22.5Z" fill="#9DA5AE"/>
</svg>
