<svg width="20" height="20" viewBox="0 0 20 20" fill="none" xmlns="http://www.w3.org/2000/svg">
<g clip-path="url(#clip0_14_6687)">
<path d="M17.7331 9.06471C18.0175 8.69705 18.2433 8.40205 18.41 8.17948C19.6109 6.58283 20.1315 5.56287 19.9719 5.11819L19.9093 5.01404C19.8678 4.95149 19.7599 4.89405 19.5865 4.84205C19.4129 4.79009 19.1908 4.78179 18.9202 4.81609L15.9213 4.83724C15.8518 4.83033 15.7824 4.83194 15.7129 4.84205C15.6435 4.85261 15.5985 4.8632 15.5775 4.87331C15.5566 4.8839 15.5393 4.89239 15.5255 4.89931L15.484 4.93056C15.4492 4.95127 15.4111 4.98782 15.3695 5.04004C15.3278 5.09223 15.2929 5.15272 15.2653 5.22237C14.939 6.06229 14.5677 6.84338 14.1511 7.56536C13.8942 7.9958 13.6581 8.36921 13.4431 8.68465C13.2279 9.00081 13.0474 9.23329 12.9016 9.38226C12.7559 9.53148 12.6238 9.65148 12.5059 9.74143C12.3878 9.83201 12.2976 9.86995 12.2353 9.85617C12.1727 9.84238 12.1137 9.82859 12.0583 9.81431C11.961 9.75202 11.8828 9.66715 11.824 9.55932C11.7649 9.45199 11.7251 9.31651 11.7042 9.15327C11.6835 8.99025 11.6711 8.84955 11.6678 8.73135C11.6642 8.61342 11.666 8.44695 11.6731 8.23148C11.68 8.01624 11.6835 7.87073 11.6835 7.79416C11.6835 7.53065 11.6888 7.24417 11.6992 6.93516C11.7095 6.62637 11.7183 6.38149 11.7251 6.20096C11.732 6.0207 11.7355 5.82962 11.7355 5.6282C11.7355 5.42724 11.7233 5.26903 11.6988 5.15433C11.6745 5.04004 11.6379 4.92899 11.5897 4.82116C11.5409 4.71378 11.4698 4.6303 11.376 4.57147C11.2823 4.51237 11.1661 4.46571 11.0273 4.43073C10.6591 4.34725 10.1905 4.30265 9.62146 4.29533C8.33017 4.28199 7.50059 4.36521 7.1327 4.54547C6.98693 4.62204 6.85494 4.72596 6.73701 4.85794C6.61194 5.01085 6.59469 5.09429 6.68505 5.10763C7.10167 5.17019 7.39648 5.31964 7.57005 5.55554L7.63261 5.68039C7.68111 5.77097 7.72965 5.93057 7.77838 6.15956C7.82692 6.38859 7.85818 6.64196 7.87219 6.91972C7.90691 7.42646 7.90691 7.86014 7.87219 8.22137C7.83748 8.58257 7.8046 8.86356 7.77335 9.06452C7.74205 9.26594 7.69516 9.42896 7.63283 9.5538C7.57028 9.6791 7.52869 9.75544 7.50776 9.78324C7.48684 9.81082 7.46959 9.82829 7.4558 9.83524C7.36545 9.86973 7.27186 9.8872 7.17463 9.8872C7.07736 9.8872 6.95939 9.83843 6.82053 9.74116C6.68163 9.64438 6.53748 9.51056 6.38847 9.3404C6.23902 9.17051 6.07093 8.93254 5.8833 8.62694C5.6959 8.32184 5.50137 7.9606 5.30018 7.54421L5.1337 7.24207C5.02956 7.04802 4.88721 6.76497 4.70672 6.39362C4.52623 6.02228 4.36641 5.66314 4.22777 5.31573C4.17213 5.17019 4.08888 5.05913 3.97786 4.98256L3.9259 4.9513C3.89118 4.92369 3.83554 4.89405 3.7592 4.86298C3.68263 4.83172 3.60309 4.80917 3.51961 4.79516L0.66642 4.81586C0.374875 4.81586 0.177143 4.8821 0.0729989 5.01404L0.0313711 5.07637C0.0103318 5.11131 0 5.16696 0 5.24307C0 5.31964 0.0209266 5.41323 0.0625544 5.52406C0.47917 6.5031 0.932154 7.4472 1.42143 8.35633C1.91097 9.26594 2.33611 9.99848 2.69709 10.5538C3.05806 11.1095 3.42595 11.6333 3.80098 12.1262C4.176 12.6192 4.42408 12.9349 4.54547 13.0735C4.66686 13.2126 4.76228 13.3168 4.83175 13.386L5.09204 13.6361C5.25851 13.8027 5.50339 14.0022 5.82623 14.2349C6.14904 14.4676 6.50637 14.6966 6.89886 14.9219C7.29091 15.1477 7.74754 15.3314 8.26807 15.474C8.78864 15.6165 9.29539 15.6738 9.78835 15.6457H10.9859C11.2289 15.625 11.4128 15.549 11.5377 15.4167L11.5793 15.3647C11.6069 15.3233 11.6331 15.259 11.6574 15.1723C11.6816 15.0856 11.6941 14.9899 11.6941 14.886C11.6869 14.5876 11.7097 14.3181 11.7616 14.079C11.8136 13.8394 11.8727 13.6591 11.9387 13.5373C12.0047 13.4161 12.0792 13.3136 12.1626 13.2301C12.2459 13.1466 12.3047 13.0967 12.3397 13.0792C12.3744 13.0622 12.4023 13.05 12.423 13.0427C12.5894 12.9872 12.7855 13.0411 13.0113 13.2041C13.2369 13.3676 13.4487 13.5685 13.6466 13.8081C13.8443 14.0477 14.0821 14.3165 14.3599 14.6151C14.6374 14.9136 14.8804 15.1357 15.0887 15.2815L15.297 15.4068C15.4359 15.4898 15.6162 15.5661 15.8385 15.6358C16.0606 15.705 16.2552 15.7225 16.4216 15.6878L19.0874 15.6459C19.3511 15.6459 19.556 15.6027 19.7018 15.5158C19.8475 15.4296 19.9343 15.3334 19.9621 15.2295C19.9897 15.1254 19.9915 15.0079 19.9674 14.8757C19.943 14.7439 19.9187 14.6519 19.8945 14.6C19.8702 14.548 19.8476 14.5043 19.8267 14.4698C19.4795 13.8451 18.8166 13.0778 17.8378 12.1685L17.8168 12.1478L17.8065 12.1372L17.7962 12.1271H17.7857C17.3413 11.7035 17.0603 11.4189 16.9423 11.2729C16.7271 10.9956 16.6784 10.7144 16.7966 10.4297C16.8793 10.2139 17.1916 9.75912 17.7331 9.06471Z" fill="#5E81B5"/>
</g>
<defs>
<clipPath id="clip0_14_6687">
<rect width="20" height="20" fill="white"/>
</clipPath>
</defs>
</svg>
