<svg width="20" height="20" viewBox="0 0 20 20" fill="none" xmlns="http://www.w3.org/2000/svg">
<path fill-rule="evenodd" clip-rule="evenodd" d="M5 3.25C4.03338 3.25 3.25 4.03338 3.25 5V5.23583C3.25 5.65005 2.91421 5.98583 2.5 5.98583C2.08579 5.98583 1.75 5.65005 1.75 5.23583V5C1.75 3.20495 3.20495 1.75 5 1.75H15C16.795 1.75 18.25 3.20495 18.25 5V12.5C18.25 14.295 16.795 15.75 15 15.75H14.1667C13.7525 15.75 13.4167 15.4142 13.4167 15C13.4167 14.5858 13.7525 14.25 14.1667 14.25H15C15.9666 14.25 16.75 13.4666 16.75 12.5V5C16.75 4.03338 15.9666 3.25 15 3.25H5Z" fill="#0383FD"/>
<path fill-rule="evenodd" clip-rule="evenodd" d="M13.418 7.5C13.418 7.08579 13.7538 6.75 14.168 6.75H17.5013C17.9155 6.75 18.2513 7.08579 18.2513 7.5C18.2513 7.91421 17.9155 8.25 17.5013 8.25H14.168C13.7538 8.25 13.418 7.91421 13.418 7.5Z" fill="#0383FD"/>
<path fill-rule="evenodd" clip-rule="evenodd" d="M4.71032 2.88151C3.19514 2.53132 1.75 3.68188 1.75 5.23563ZM4.71032 2.88151L12.3978 4.65566C12.3978 4.65567 12.3978 4.65566 12.3978 4.65566C13.8723 4.99589 14.9167 6.30901 14.9167 7.8223V14.999C14.9167 17.0888 12.9721 18.6357 10.9355 18.1656L4.26889 16.6264C4.26886 16.6264 4.26893 16.6264 4.26889 16.6264C2.79435 16.2862 1.75 14.9731 1.75 13.4598V5.23563M4.37268 4.34301C3.79798 4.21011 3.25 4.64617 3.25 5.23563V13.4598C3.25 14.2748 3.81237 14.9817 4.60611 15.1648L11.2729 16.704C11.2729 16.704 11.2729 16.704 11.2729 16.704C12.3696 16.9572 13.4167 16.1241 13.4167 14.999V7.8223C13.4167 7.00727 12.8543 6.30039 12.0606 6.11727L4.37268 4.34301Z" fill="#0383FD"/>
</svg>
