<svg width="20" height="20" viewBox="0 0 20 20" fill="none" xmlns="http://www.w3.org/2000/svg">
<path d="M10.0008 1.6665C14.6033 1.6665 18.3342 5.39734 18.3342 9.99984C18.3342 14.6023 14.6033 18.3332 10.0008 18.3332C8.52814 18.3355 7.08137 17.9458 5.80916 17.204L1.67083 18.3332L2.79749 14.1932C2.05507 12.9206 1.66503 11.4732 1.66749 9.99984C1.66749 5.39734 5.39833 1.6665 10.0008 1.6665ZM7.16083 6.08317L6.99416 6.08984C6.88626 6.09641 6.78081 6.12476 6.68416 6.17317C6.59376 6.22436 6.51124 6.28836 6.43916 6.36317C6.33916 6.45734 6.28249 6.539 6.22166 6.61817C5.91343 7.01892 5.74747 7.51093 5.74999 8.0165C5.75166 8.42484 5.85833 8.82234 6.02499 9.194C6.36583 9.94567 6.92666 10.7415 7.66666 11.479C7.84499 11.6565 8.01999 11.8348 8.20833 12.0007C9.12782 12.8102 10.2235 13.394 11.4083 13.7057L11.8817 13.7782C12.0358 13.7865 12.19 13.7748 12.345 13.7673C12.5877 13.7548 12.8247 13.6891 13.0392 13.5748C13.1483 13.5186 13.2548 13.4574 13.3583 13.3915C13.3583 13.3915 13.3942 13.3682 13.4625 13.3165C13.575 13.2332 13.6442 13.174 13.7375 13.0765C13.8067 13.0048 13.8667 12.9207 13.9125 12.8248C13.9775 12.689 14.0425 12.4298 14.0692 12.214C14.0892 12.049 14.0833 11.959 14.0808 11.9032C14.0775 11.814 14.0033 11.7215 13.9225 11.6823L13.4375 11.4648C13.4375 11.4648 12.7125 11.149 12.2692 10.9473C12.2228 10.9271 12.1731 10.9155 12.1225 10.9132C12.0655 10.9073 12.0079 10.9137 11.9535 10.932C11.8992 10.9502 11.8494 10.9799 11.8075 11.019C11.8033 11.0173 11.7475 11.0648 11.145 11.7948C11.1104 11.8413 11.0628 11.8764 11.0082 11.8957C10.9535 11.915 10.8944 11.9176 10.8383 11.9032C10.784 11.8886 10.7309 11.8702 10.6792 11.8482C10.5758 11.8048 10.54 11.7882 10.4692 11.7582C9.99088 11.5495 9.54806 11.2675 9.15666 10.9223C9.05166 10.8307 8.95416 10.7307 8.85416 10.634C8.52631 10.32 8.24059 9.96484 8.00416 9.57734L7.95499 9.49817C7.91968 9.44497 7.89112 9.38759 7.86999 9.32734C7.83833 9.20484 7.92083 9.1065 7.92083 9.1065C7.92083 9.1065 8.12333 8.88484 8.21749 8.76484C8.30916 8.64817 8.38666 8.53484 8.43666 8.454C8.53499 8.29567 8.56583 8.13317 8.51416 8.00734C8.28083 7.43734 8.03916 6.86984 7.79083 6.3065C7.74166 6.19484 7.59583 6.11484 7.46333 6.099C7.41833 6.094 7.37332 6.089 7.32832 6.08567C7.21641 6.08011 7.10427 6.08122 6.99249 6.089L7.15999 6.08234L7.16083 6.08317Z" fill="black"/>
</svg>
