<svg width="20" height="20" viewBox="0 0 20 20" fill="none" xmlns="http://www.w3.org/2000/svg">
<path d="M13.3592 2H11.0859C8.78275 2 6.45885 3.7007 6.45885 7.5002C6.45885 9.46825 7.293 11.001 8.822 11.8728L6.0234 16.9381C5.89075 17.1776 5.8873 17.4491 6.01415 17.6643C6.138 17.8745 6.3644 18 6.61975 18H8.0353C8.3569 18 8.6077 17.8446 8.7279 17.5723L11.3519 12.44H11.5434V17.3604C11.5434 17.7071 11.836 18 12.1823 18H13.419C13.8074 18 14.0786 17.7288 14.0786 17.3405V2.7001C14.0786 2.2879 13.7828 2 13.3592 2ZM11.5434 10.1602H11.2056C9.89575 10.1602 9.11375 9.091 9.11375 7.3001C9.11375 5.07325 10.1016 4.27985 11.0261 4.27985H11.5434V10.1602Z" fill="#5E81B5"/>
</svg>
