<svg width="36" height="36" viewBox="0 0 36 36" fill="none" xmlns="http://www.w3.org/2000/svg">
<path d="M18.5152 10.0177C13.8304 10.0177 10.0195 13.8286 10.0195 18.5133C10.0195 23.1981 13.8304 27.009 18.5152 27.009C23.1999 27.009 27.0108 23.1981 27.0108 18.5133C27.0108 13.8286 23.1999 10.0177 18.5152 10.0177ZM18.5152 25.7953C14.4998 25.7953 11.2332 22.5288 11.2332 18.5133C11.2332 14.4979 14.4998 11.2314 18.5152 11.2314C22.5306 11.2314 25.7972 14.4979 25.7972 18.5133C25.7972 22.5288 22.5306 25.7953 18.5152 25.7953Z" fill="#0383FD"/>
<path d="M21.7281 15.657L17.3025 20.0826L15.3036 18.0843C15.0663 17.8471 14.6828 17.8471 14.4455 18.0843C14.2083 18.3216 14.2083 18.7057 14.4455 18.9424L16.8735 21.3697C16.9924 21.4881 17.1478 21.5475 17.3025 21.5475C17.4572 21.5475 17.6132 21.4881 17.7315 21.3697L22.5862 16.5151C22.8235 16.2778 22.8235 15.8943 22.5862 15.657C22.3489 15.4197 21.9654 15.4197 21.7281 15.657Z" fill="#0383FD"/>
<path d="M30.5738 16.5393C30.3238 16.3543 30.2461 15.9883 30.4118 15.725C31.0047 14.782 31.8658 12.8013 28.9008 12.0749C28.5986 12.0008 28.3747 11.6883 28.439 11.3849C28.7236 10.0535 28.3249 8.12015 25.6451 8.59106C25.3399 8.64446 25.0152 8.43449 24.9552 8.12926C24.7543 7.10857 23.889 5.04109 21.3057 6.61764C21.0399 6.77966 20.6163 6.69167 20.4913 6.45501C20.0902 5.69708 18.3334 3.9494 16.5408 6.45501C16.36 6.70806 15.9443 6.77299 15.7265 6.61703C14.5504 5.77475 12.6504 5.56418 12.0764 8.12804C12.0102 8.42236 11.6971 8.6481 11.3858 8.58924C10.3578 8.39384 8.10162 8.45816 8.59376 11.3831C8.64534 11.6895 8.43963 12.0275 8.13257 12.0737C6.93529 12.2527 5.08931 13.2145 6.62034 15.7232C6.78237 15.9883 6.73564 16.3973 6.45832 16.5375C5.39576 17.0746 4.17906 18.9849 6.45832 20.4898C6.71744 20.6609 6.78237 21.0293 6.62034 21.2945C5.08931 23.8031 6.93529 24.7643 8.13257 24.944C8.44023 24.9901 8.64534 25.3281 8.59376 25.6345C8.10162 28.5595 10.3578 28.6238 11.387 28.4278C11.6983 28.3683 12.0114 28.5947 12.0776 28.889C12.6516 31.4534 14.5516 31.2423 15.7277 30.4C15.9455 30.244 16.3612 30.309 16.542 30.562C18.3346 33.0682 20.0914 31.3206 20.4925 30.562C20.6175 30.326 21.0411 30.2374 21.3069 30.3994C23.8902 31.9759 24.7555 29.9085 24.9564 28.8878C25.0165 28.5825 25.3411 28.3726 25.6463 28.426C28.3261 28.8969 28.7242 26.9635 28.4402 25.6321C28.3753 25.3287 28.5998 25.0162 28.902 24.9421C31.8676 24.2158 31.0065 22.2351 30.413 21.292C30.2473 21.0287 30.319 20.6549 30.5738 20.4789C31.3663 19.9309 33.08 18.3938 30.5738 16.5393ZM29.7073 22.5858C29.9136 22.9177 29.7862 23.3741 29.3165 23.5288C28.456 23.8128 26.8703 24.0465 27.2933 26.5581C27.374 27.0357 27.1185 27.3215 26.5712 27.2797C25.7386 27.2159 24.0243 26.8791 23.5431 29.3034C23.4478 29.7822 22.9787 29.886 22.6001 29.6948C20.9665 28.8702 20.3129 28.7646 19.0276 30.4054C18.7819 30.7192 18.2697 30.7058 18.0063 30.4054C17.3158 29.6184 16.5336 28.4084 14.4333 29.6955C14.068 29.9194 13.6517 29.7464 13.4903 29.3047C13.071 28.1541 12.9472 26.9277 10.4616 27.2815C10.0781 27.3361 9.6715 27.0764 9.74007 26.56C9.87054 25.572 10.0204 23.9858 7.71568 23.5307C7.36007 23.4603 7.08214 22.9857 7.32488 22.5876C8.24544 21.0821 8.11801 20.1403 6.60093 19.0085C6.4298 18.8811 6.15126 18.3331 6.61428 18.0018C8.09191 16.9447 8.24544 15.9355 7.32488 14.4294C7.08154 14.0313 7.36007 13.5562 7.71568 13.4864C10.0204 13.0312 9.87054 11.445 9.74007 10.4571C9.6715 9.94065 10.0787 9.68093 10.4616 9.73554C12.9472 10.0887 13.071 8.86292 13.4903 7.71236C13.6511 7.26998 14.068 7.09764 14.4333 7.32156C16.5342 8.60865 17.3164 7.39863 18.0063 6.61157C18.2697 6.31119 18.7813 6.29784 19.0276 6.61157C20.3129 8.25244 20.9665 8.14686 22.6001 7.32217C22.9787 7.13102 23.4478 7.23479 23.5431 7.71358C24.0243 10.1379 25.7386 9.80108 26.5712 9.73736C27.1191 9.69549 27.374 9.98131 27.2933 10.4589C26.8703 12.9712 28.456 13.2042 29.3165 13.4882C29.7862 13.6429 29.9136 14.0999 29.7073 14.4312C28.3577 16.5988 29.7837 17.4605 30.4179 18.0042C30.6655 18.2166 30.8081 18.7185 30.4749 18.9782C29.717 19.5025 28.3577 20.4182 29.7073 22.5858Z" fill="#0383FD"/>
</svg>
