<svg width="36" height="36" viewBox="0 0 36 36" fill="none" xmlns="http://www.w3.org/2000/svg">
<path d="M31.0703 9.6875H27.5547V8.51562H28.1699C28.4935 8.51562 28.7266 8.24598 28.7266 7.92242V5.57867C28.7266 5.25512 28.4935 5 28.1699 5H20.8457C20.5221 5 20.2305 5.25506 20.2305 5.57867V7.92242C20.2305 8.24598 20.5221 8.51562 20.8457 8.51562H21.4023V9.6875H6.92969C5.31426 9.6875 4 11.0077 4 12.6099V21.5748C4 23.2034 5.31426 24.5117 6.92969 24.5117H12.5277C13.0771 24.5117 13.5811 24.761 13.9104 25.1811L17.1906 29.3649C17.744 30.071 18.6057 30.4883 19.4957 30.4883H31.0703C32.6857 30.4883 34 29.1907 34 27.5752V25.1143C34 24.7914 33.7369 24.5284 33.4141 24.5284C33.0912 24.5284 32.8281 24.7914 32.8281 25.1143V27.5752C32.8281 28.5445 32.0396 29.3164 31.0703 29.3164H19.4957C18.9629 29.3164 18.446 29.0711 18.1131 28.6463L14.8328 24.4542C14.2798 23.7487 13.4396 23.3398 12.5277 23.3398H6.92969C5.96043 23.3398 5.17188 22.5195 5.17188 21.582H6.92969C7.2533 21.582 7.51562 21.3124 7.51562 20.9888V18.6039C8.02879 18.4711 8.34941 18.1596 8.59873 17.9163C8.88889 17.6332 9.04375 17.4971 9.39004 17.4971C9.73674 17.4971 9.89172 17.6332 10.1821 17.9165C10.5075 18.234 10.9534 18.669 11.7924 18.669C12.6314 18.669 13.0772 18.234 13.4027 17.9165C13.693 17.6332 13.848 17.4971 14.1947 17.4971C14.5415 17.4971 14.6964 17.6332 14.9867 17.9165C15.3122 18.234 15.7581 18.669 16.5971 18.669C17.4361 18.669 17.8819 18.234 18.2074 17.9165C18.4977 17.6332 18.6527 17.4971 18.9994 17.4971C19.3462 17.4971 19.5011 17.6332 19.7914 17.9165C20.1169 18.234 20.5628 18.669 21.4018 18.669C22.2408 18.669 22.6866 18.234 23.0121 17.9165C23.3024 17.6332 23.4573 17.4971 23.8041 17.4971C24.1509 17.4971 24.3058 17.6332 24.5961 17.9165C24.9216 18.234 25.3674 18.669 26.2064 18.669C27.0454 18.669 27.4913 18.234 27.8168 17.9165C28.1071 17.6332 28.262 17.4971 28.6088 17.4971C28.9555 17.4971 29.1105 17.6332 29.4008 17.9165C29.7263 18.234 30.1721 18.669 31.0111 18.669C31.8505 18.669 32.2964 18.234 32.6221 17.9165C32.6981 17.8423 32.7648 17.7785 32.8281 17.7243V19.8409C32.8281 20.1637 33.0912 20.4268 33.4141 20.4268C33.7369 20.4268 34 20.1637 34 19.8409V12.6099C34 11.0077 32.6857 9.6875 31.0703 9.6875ZM21.4023 6.17188H27.5547V7.34375H21.4023V6.17188ZM6.34375 20.4102H5.17188V14.5508H6.34375V20.4102ZM31.8038 17.0776C31.5133 17.3609 31.3582 17.4971 31.0111 17.4971C30.6644 17.4971 30.5095 17.361 30.2191 17.0777C29.8936 16.7602 29.4478 16.3252 28.6088 16.3252C27.7698 16.3252 27.3239 16.7602 26.9985 17.0777C26.7081 17.361 26.5532 17.4971 26.2064 17.4971C25.8597 17.4971 25.7048 17.361 25.4144 17.0777C25.0889 16.7602 24.6431 16.3252 23.8041 16.3252C22.9651 16.3252 22.5193 16.7602 22.1938 17.0777C21.9034 17.361 21.7485 17.4971 21.4018 17.4971C21.055 17.4971 20.9001 17.361 20.6097 17.0777C20.2843 16.7602 19.8384 16.3252 18.9994 16.3252C18.1604 16.3252 17.7146 16.7602 17.3891 17.0777C17.0988 17.361 16.9438 17.4971 16.5971 17.4971C16.2503 17.4971 16.0954 17.361 15.8051 17.0777C15.4796 16.7602 15.0337 16.3252 14.1947 16.3252C13.3557 16.3252 12.9099 16.7602 12.5844 17.0777C12.2941 17.361 12.1391 17.4971 11.7924 17.4971C11.4456 17.4971 11.2907 17.361 11.0004 17.0777C10.6749 16.7602 10.229 16.3252 9.39004 16.3252C8.55133 16.3252 8.10566 16.7601 7.78023 17.0776C7.68045 17.175 7.59666 17.2546 7.51557 17.3177V13.9576C7.51557 13.634 7.25324 13.3789 6.92963 13.3789H5.17188V12.6099C5.17188 11.6538 5.96043 10.8594 6.92969 10.8594H21.4023V13.9578C21.4023 14.2813 21.6647 14.5437 21.9883 14.5437C22.3119 14.5437 22.5742 14.2813 22.5742 13.9578V8.51562H26.3828V13.9578C26.3828 14.2813 26.6451 14.5437 26.9688 14.5437C27.2924 14.5437 27.5547 14.2813 27.5547 13.9578V10.8594H31.0703C32.0396 10.8594 32.8281 11.6538 32.8281 12.6099V16.4063C32.3491 16.547 32.0435 16.8438 31.8038 17.0776Z" fill="#0383FD"/>
<path d="M33.4141 23.0635C33.7377 23.0635 34 22.8012 34 22.4776C34 22.154 33.7377 21.8917 33.4141 21.8917C33.0905 21.8917 32.8281 22.154 32.8281 22.4776C32.8281 22.8012 33.0905 23.0635 33.4141 23.0635Z" fill="#0383FD"/>
</svg>
