<svg width="36" height="36" viewBox="0 0 36 36" fill="none" xmlns="http://www.w3.org/2000/svg">
<mask id="mask0_343_36065" style="mask-type:luminance" maskUnits="userSpaceOnUse" x="2" y="2" width="33" height="33">
<path d="M2 2.33332H34.6667V35H2V2.33332Z" fill="white"/>
</mask>
<g mask="url(#mask0_343_36065)">
<path d="M33.6778 34.5215H2.98893C2.70705 34.5215 2.47852 34.2929 2.47852 34.0111V32.9179C2.47852 32.636 2.70705 32.4075 2.98893 32.4075H33.6778C33.9596 32.4075 34.1882 32.636 34.1882 32.9179V34.0111C34.1882 34.2929 33.9596 34.5215 33.6778 34.5215Z" stroke="#0383FD" stroke-width="0.957032" stroke-miterlimit="10" stroke-linecap="round" stroke-linejoin="round"/>
<path d="M33.132 32.4075H23.6191V20.7806H33.132V32.4075Z" stroke="#0383FD" stroke-width="0.957032" stroke-miterlimit="10" stroke-linecap="round" stroke-linejoin="round"/>
<path d="M33.677 20.7806H23.071C22.789 20.7806 22.5605 20.5521 22.5605 20.2702V19.177C22.5605 18.8952 22.789 18.6666 23.071 18.6666H33.677C33.9589 18.6666 34.1874 18.8952 34.1874 19.177V20.2702C34.1874 20.5521 33.9589 20.7806 33.677 20.7806Z" stroke="#0383FD" stroke-width="0.957032" stroke-miterlimit="10" stroke-linecap="round" stroke-linejoin="round"/>
<path d="M30.5069 25.0086H26.2428C25.961 25.0086 25.7324 24.7801 25.7324 24.4982V23.405C25.7324 23.1231 25.961 22.8946 26.2428 22.8946H30.5069C30.7888 22.8946 31.0173 23.1231 31.0173 23.405V24.4982C31.0173 24.7801 30.7888 25.0086 30.5069 25.0086Z" stroke="#0383FD" stroke-width="0.957032" stroke-miterlimit="10" stroke-linecap="round" stroke-linejoin="round"/>
<path d="M23.6191 30.2935H33.132" stroke="#0383FD" stroke-width="0.957032" stroke-miterlimit="10" stroke-linecap="round" stroke-linejoin="round"/>
<path d="M21.5039 32.4075H3.53516V30.8039C3.53516 30.5221 3.76363 30.2935 4.04557 30.2935H20.9935C21.2754 30.2935 21.5039 30.5221 21.5039 30.8039V32.4075Z" stroke="#0383FD" stroke-width="0.957032" stroke-miterlimit="10" stroke-linecap="round" stroke-linejoin="round"/>
<path d="M20.4486 30.2935H4.59375V12.2524C4.59375 11.1249 5.50784 10.2107 6.63542 10.2107H18.4069C19.5345 10.2107 20.4486 11.1249 20.4486 12.2524V30.2935Z" stroke="#0383FD" stroke-width="0.957032" stroke-miterlimit="10" stroke-linecap="round" stroke-linejoin="round"/>
<path d="M4.59375 14.4387H20.4486" stroke="#0383FD" stroke-width="0.957032" stroke-miterlimit="10" stroke-linecap="round" stroke-linejoin="round"/>
<path d="M4.59375 16.5527H20.4486" stroke="#0383FD" stroke-width="0.957032" stroke-miterlimit="10" stroke-linecap="round" stroke-linejoin="round"/>
<path d="M11.4629 4.92576V8.09672H13.5768V5.98277C13.5768 5.39904 14.0501 4.92576 14.6339 4.92576H26.2607C26.8445 4.92576 27.3177 5.39904 27.3177 5.98277V16.5527H29.4317V4.92576C29.4317 3.75824 28.4852 2.8118 27.3177 2.8118H13.5768C12.4093 2.8118 11.4629 3.75824 11.4629 4.92576Z" stroke="#0383FD" stroke-width="0.957032" stroke-miterlimit="10" stroke-linecap="round" stroke-linejoin="round"/>
<path d="M31.0173 18.6666H25.7324V17.0631C25.7324 16.7811 25.961 16.5527 26.2428 16.5527H30.5069C30.7888 16.5527 31.0173 16.7811 31.0173 17.0631V18.6666Z" stroke="#0383FD" stroke-width="0.957032" stroke-miterlimit="10" stroke-linecap="round" stroke-linejoin="round"/>
<path d="M14.6342 10.2108H10.4062V8.60715C10.4062 8.32527 10.6348 8.09673 10.9167 8.09673H14.1238C14.4057 8.09673 14.6342 8.32527 14.6342 8.60715V10.2108Z" stroke="#0383FD" stroke-width="0.957032" stroke-miterlimit="10" stroke-linecap="round" stroke-linejoin="round"/>
<path d="M6.70703 16.5527V30.2935" stroke="#0383FD" stroke-width="0.957032" stroke-miterlimit="10" stroke-linecap="round" stroke-linejoin="round"/>
<path d="M8.82031 16.5527V30.2935" stroke="#0383FD" stroke-width="0.957032" stroke-miterlimit="10" stroke-linecap="round" stroke-linejoin="round"/>
<path d="M6.70703 19.1951H8.82099" stroke="#0383FD" stroke-width="0.957032" stroke-miterlimit="10" stroke-linecap="round" stroke-linejoin="round"/>
<path d="M6.70703 21.3091H8.82099" stroke="#0383FD" stroke-width="0.957032" stroke-miterlimit="10" stroke-linecap="round" stroke-linejoin="round"/>
<path d="M6.70703 23.4231H8.82099" stroke="#0383FD" stroke-width="0.957032" stroke-miterlimit="10" stroke-linecap="round" stroke-linejoin="round"/>
<path d="M6.70703 25.5371H8.82099" stroke="#0383FD" stroke-width="0.957032" stroke-miterlimit="10" stroke-linecap="round" stroke-linejoin="round"/>
<path d="M6.70703 27.6511H8.82099" stroke="#0383FD" stroke-width="0.957032" stroke-miterlimit="10" stroke-linecap="round" stroke-linejoin="round"/>
<path d="M27.3516 14.4387H29.4325" stroke="#0383FD" stroke-width="0.957032" stroke-miterlimit="10" stroke-linecap="round" stroke-linejoin="round"/>
</g>
</svg>
