<svg width="36" height="36" viewBox="0 0 36 36" fill="none" xmlns="http://www.w3.org/2000/svg">
<path d="M33.8661 31.7043V12.3333C33.8661 6.70003 29.2994 2.13334 23.6661 2.13334C18.0328 2.13334 13.4661 6.70003 13.4661 12.3333V13.5709C12.7893 13.8102 12.3357 14.4488 12.3327 15.1667V20.8333C12.3357 21.5512 12.7893 22.1898 13.4661 22.4291V23.6667C13.4661 24.2926 12.9587 24.8 12.3327 24.8C11.7068 24.8 11.1994 24.2926 11.1994 23.6667V4.29574C11.9795 4.02099 12.4476 3.22369 12.3075 2.40864C12.1673 1.59358 11.4598 0.998436 10.6327 1H2.69941C1.87239 0.998436 1.16483 1.59358 1.02469 2.40864C0.884548 3.22369 1.3527 4.02099 2.13274 4.29574V23.6667C2.13274 29.3 6.69944 33.8667 12.3327 33.8667C17.966 33.8667 22.5327 29.3 22.5327 23.6667V22.4291C23.2095 22.1898 23.6631 21.5512 23.6661 20.8333V15.1667C23.6631 14.4488 23.2095 13.8102 22.5327 13.5709V12.3333C22.5327 11.7074 23.0402 11.2 23.6661 11.2C24.292 11.2 24.7994 11.7074 24.7994 12.3333V31.7043C24.0194 31.979 23.5512 32.7763 23.6914 33.5914C23.8315 34.4064 24.5391 35.0016 25.3661 35H33.2994C34.1264 35.0016 34.834 34.4064 34.9741 33.5914C35.1143 32.7763 34.6461 31.979 33.8661 31.7043ZM2.69941 2.13334H10.6327C10.9457 2.13334 11.1994 2.38704 11.1994 2.7C11.1994 3.01296 10.9457 3.26667 10.6327 3.26667H2.69941C2.38645 3.26667 2.13274 3.01296 2.13274 2.7C2.13274 2.38704 2.38645 2.13334 2.69941 2.13334ZM12.3327 32.7333C7.32782 32.7274 3.27201 28.6716 3.26607 23.6667V4.4H10.0661V23.6667C10.0661 24.9185 11.0809 25.9333 12.3327 25.9333C13.5846 25.9333 14.5994 24.9185 14.5994 23.6667V22.5333H21.3994V23.6667C21.3935 28.6716 17.3377 32.7274 12.3327 32.7333ZM22.5327 20.8333C22.5327 21.1463 22.279 21.4 21.9661 21.4H14.0327C13.7198 21.4 13.4661 21.1463 13.4661 20.8333V15.1667C13.4661 14.8537 13.7198 14.6 14.0327 14.6H21.9661C22.279 14.6 22.5327 14.8537 22.5327 15.1667V20.8333ZM23.6661 10.0667C22.4142 10.0667 21.3994 11.0815 21.3994 12.3333V13.4667H14.5994V12.3333C14.5994 7.32595 18.6587 3.26667 23.6661 3.26667C28.6735 3.26667 32.7327 7.32595 32.7327 12.3333V31.6H25.9327V12.3333C25.9327 11.0815 24.9179 10.0667 23.6661 10.0667ZM33.2994 33.8667H25.3661C25.0531 33.8667 24.7994 33.613 24.7994 33.3C24.7994 32.987 25.0531 32.7333 25.3661 32.7333H33.2994C33.6124 32.7333 33.8661 32.987 33.8661 33.3C33.8661 33.613 33.6124 33.8667 33.2994 33.8667Z" fill="#0383FD"/>
<path d="M4.9651 5.53333C4.65214 5.53333 4.39844 5.78703 4.39844 6.09999V7.23333C4.39844 7.54629 4.65214 7.79999 4.9651 7.79999C5.27807 7.79999 5.53177 7.54629 5.53177 7.23333V6.09999C5.53177 5.78703 5.27807 5.53333 4.9651 5.53333Z" fill="#0383FD"/>
<path d="M4.9651 8.93335C4.65214 8.93335 4.39844 9.18705 4.39844 9.50002V17.4334C4.39844 17.7463 4.65214 18 4.9651 18C5.27807 18 5.53177 17.7463 5.53177 17.4334V9.50002C5.53177 9.18705 5.27807 8.93335 4.9651 8.93335Z" fill="#0383FD"/>
</svg>
