<svg width="36" height="36" viewBox="0 0 36 36" fill="none" xmlns="http://www.w3.org/2000/svg">
<path d="M16.5 3.33331V2.75C16.5 1.78354 15.7165 1 14.75 1H7.75C6.78354 1 6 1.78354 6 2.75V3.33331C6.00308 4.07228 6.46997 4.72969 7.16669 4.97599V18.5C7.17489 23.3625 10.196 27.7107 14.75 29.4147V31.9166C13.7835 31.9166 13 32.7002 13 33.6666V34.2499C13 35.2164 13.7835 35.9999 14.75 35.9999H22.9167C23.8832 35.9999 24.6667 35.2165 24.6667 34.2499V33.6666C24.6667 32.7002 23.8832 31.9166 22.9167 31.9166V29.4147C28.2023 27.4426 31.3174 21.9688 30.3135 16.4173C29.3097 10.8658 24.4749 6.82955 18.8333 6.83331C17.6455 6.83372 16.4649 7.01767 15.3333 7.37875V4.97599C16.03 4.72969 16.4969 4.07228 16.5 3.33331ZM7.16669 2.75C7.16669 2.42782 7.42789 2.16669 7.75 2.16669H14.75C15.0722 2.16669 15.3333 2.42789 15.3333 2.75V3.33331C15.3333 3.65549 15.0722 3.91662 14.75 3.91662H7.75C7.42782 3.91662 7.16669 3.65542 7.16669 3.33331V2.75ZM23.5 33.6667V34.25C23.5 34.5722 23.2389 34.8333 22.9167 34.8333H14.75C14.4278 34.8333 14.1667 34.5722 14.1667 34.25V33.6667C14.1667 33.3445 14.4279 33.0834 14.75 33.0834H22.9167C23.2388 33.0833 23.5 33.3445 23.5 33.6667ZM21.75 31.9167H15.9167V29.7828C17.8275 30.2947 19.8393 30.2947 21.75 29.7828V31.9167ZM29.3333 18.5C29.3333 24.299 24.6323 29 18.8333 29C13.0343 29 8.33331 24.299 8.33331 18.5V5.08331H14.1666V7.825C12.9419 8.35321 11.819 9.09156 10.8486 10.0067C10.6931 10.1491 10.6265 10.3643 10.6745 10.5696C10.7224 10.7748 10.8774 10.9384 11.0799 10.9971C11.2824 11.0559 11.5008 11.0008 11.6513 10.853C13.5942 9.02149 16.1631 8.00096 18.8332 7.99993C24.6295 8.00677 29.3266 12.7038 29.3333 18.5Z" fill="#0383FD"/>
<path d="M12.7239 12.6294C12.3247 12.6456 11.962 12.866 11.7637 13.2127L10.7137 15.0304C10.5131 15.3757 10.5041 15.7998 10.6898 16.1533L11.2305 17.1887V19.8137L10.6898 20.8492C10.5041 21.2029 10.5131 21.6272 10.7137 21.9727L11.7637 23.7897C11.962 24.1365 12.3247 24.3568 12.7239 24.373L13.8934 24.4238L16.1684 25.7369L16.7961 26.7233C17.0099 27.06 17.3813 27.2638 17.7802 27.2629H19.8802C20.2792 27.2637 20.6508 27.0598 20.8643 26.7227L21.492 25.7369L23.7699 24.4238L24.9395 24.373C25.3386 24.3568 25.7014 24.1365 25.8997 23.7897L26.9497 21.9721C27.1502 21.6268 27.1593 21.2027 26.9736 20.8491L26.4329 19.8137V17.1887L26.9736 16.1532C27.1593 15.7995 27.1502 15.3752 26.9497 15.0298L25.8997 13.2127C25.7014 12.8659 25.3386 12.6456 24.9395 12.6294L23.7699 12.5787L21.4973 11.2668L20.8696 10.2803C20.6558 9.94361 20.2844 9.7399 19.8855 9.74079H17.7843C17.3853 9.73997 17.0138 9.94388 16.8002 10.281L16.1714 11.2668L13.8964 12.5799L12.7239 12.6294ZM14.3519 13.6583L16.8777 12.2C16.9589 12.1529 17.0277 12.0871 17.0784 12.0081L17.783 10.8998H19.883L20.5877 12.0081C20.6383 12.0872 20.7072 12.1529 20.7883 12.2L23.3141 13.6583C23.3951 13.7055 23.4864 13.7322 23.5801 13.7359L24.892 13.7942L25.942 15.6107L25.3353 16.7733C25.292 16.8568 25.2695 16.9494 25.2694 17.0434V19.9583C25.2695 20.0523 25.2921 20.1449 25.3353 20.2284L25.942 21.3904L24.892 23.2074L23.5801 23.2658C23.4864 23.2695 23.3951 23.2962 23.3141 23.3433L20.7883 24.8017C20.7071 24.8488 20.6383 24.9146 20.5877 24.9935L19.883 26.1019H17.7842L17.0795 24.9935C17.0289 24.9145 16.96 24.8488 16.8789 24.8017L14.3531 23.3433C14.2721 23.2962 14.1808 23.2695 14.0871 23.2658L12.7752 23.2074L11.7252 21.3909L12.3319 20.2283C12.3752 20.1449 12.3977 20.0523 12.3978 19.9583V17.0416C12.3977 16.9476 12.3751 16.8549 12.3319 16.7715L11.7252 15.6095L12.7752 13.7924L14.0871 13.7341C14.1802 13.7308 14.2711 13.7047 14.3519 13.6583Z" fill="#0383FD"/>
<path d="M18.832 23.7442C21.7275 23.741 24.0725 21.3917 24.0703 18.4962C24.0682 15.6007 21.7197 13.2548 18.8242 13.2559C15.9287 13.257 13.582 15.6045 13.582 18.5001C13.5869 21.3965 15.9355 23.7425 18.832 23.7442ZM18.832 14.4225C21.0832 14.4257 22.9058 16.2527 22.9037 18.5039C22.9016 20.7551 21.0754 22.5786 18.8243 22.5775C16.5731 22.5764 14.7487 20.7512 14.7487 18.5C14.7519 16.2471 16.5792 14.4225 18.832 14.4225Z" fill="#0383FD"/>
<path d="M18.832 20.25C19.7985 20.25 20.582 19.4665 20.582 18.5C20.582 17.5335 19.7985 16.75 18.832 16.75C17.8655 16.75 17.082 17.5335 17.082 18.5C17.082 19.4665 17.8656 20.25 18.832 20.25ZM18.832 17.9167C19.1542 17.9167 19.4153 18.1779 19.4153 18.5C19.4153 18.8222 19.1542 19.0833 18.832 19.0833C18.5099 19.0833 18.2487 18.8221 18.2487 18.5C18.2487 18.1778 18.5099 17.9167 18.832 17.9167Z" fill="#0383FD"/>
</svg>
