<svg width="36" height="36" viewBox="0 0 36 36" fill="none" xmlns="http://www.w3.org/2000/svg">
<path d="M9.59 8.43315C8.23581 9.60432 7.17678 11.0782 6.49883 12.7353C6.44217 12.8745 6.44315 13.0306 6.50154 13.1691C6.55994 13.3076 6.67097 13.4173 6.81021 13.4739C6.94946 13.5306 7.10551 13.5296 7.24403 13.4712C7.38255 13.4128 7.49221 13.3018 7.54886 13.1626C8.15887 11.671 9.11213 10.3444 10.3312 9.29052C10.4449 9.19223 10.5149 9.0528 10.5258 8.90291C10.5367 8.75301 10.4876 8.60493 10.3893 8.49124C10.291 8.37754 10.1516 8.30755 10.0017 8.29666C9.85177 8.28576 9.70369 8.33486 9.59 8.43315Z" fill="#0383FD"/>
<path d="M2.26615 19.2667H2.83281V32.8667C2.83281 33.1672 2.95222 33.4555 3.16476 33.6681C3.3773 33.8806 3.66557 34 3.96615 34H5.09948C5.40006 34 5.68833 33.8806 5.90087 33.6681C6.11341 33.4555 6.23281 33.1672 6.23281 32.8667V25.296C7.44552 26.8761 8.99388 28.1672 10.7661 29.0762V32.8667C10.7661 33.1672 10.8856 33.4555 11.0981 33.6681C11.3106 33.8806 11.5989 34 11.8995 34H13.0328C13.3334 34 13.6217 33.8806 13.8342 33.6681C14.0467 33.4555 14.1661 33.1672 14.1661 32.8667V30.2963C16.0333 30.7012 17.9656 30.7012 19.8328 30.2963V32.8667C19.8328 33.1672 19.9522 33.4555 20.1648 33.6681C20.3773 33.8806 20.6656 34 20.9661 34H22.0995C22.4001 34 22.6883 33.8806 22.9009 33.6681C23.1134 33.4555 23.2328 33.1672 23.2328 32.8667V29.0762C25.0051 28.1672 26.5534 26.8761 27.7661 25.296V32.8667C27.7661 33.1672 27.8856 33.4555 28.0981 33.6681C28.3106 33.8806 28.5989 34 28.8995 34H30.0328C30.3334 34 30.6217 33.8806 30.8342 33.6681C31.0467 33.4555 31.1661 33.1672 31.1661 32.8667V19.2667H31.7328C32.0334 19.2667 32.3217 19.1473 32.5342 18.9347C32.7467 18.7222 32.8661 18.4339 32.8661 18.1333V15.8667C32.8661 15.5661 32.7467 15.2778 32.5342 15.0653C32.3217 14.8527 32.0334 14.7333 31.7328 14.7333H30.3938C29.9701 12.2472 28.8644 9.9276 27.1998 8.03305C25.5352 6.13851 23.3771 4.74349 20.9661 4.0035V1.7C20.9661 1.24913 20.787 0.81673 20.4682 0.497918C20.1494 0.179107 19.717 0 19.2661 0L14.7328 0C14.2819 0 13.8495 0.179107 13.5307 0.497918C13.2119 0.81673 13.0328 1.24913 13.0328 1.7V4.0035C10.6219 4.74349 8.4638 6.13851 6.79918 8.03305C5.13457 9.9276 4.02881 12.2472 3.60518 14.7333H2.26615C1.96557 14.7333 1.6773 14.8527 1.46476 15.0653C1.25222 15.2778 1.13281 15.5661 1.13281 15.8667V18.1333C1.13281 18.4339 1.25222 18.7222 1.46476 18.9347C1.6773 19.1473 1.96557 19.2667 2.26615 19.2667ZM3.96615 32.8667V19.2667H5.09948V32.8667H3.96615ZM8.49948 20.2413L7.28115 19.2667H9.71781L8.49948 20.2413ZM10.7661 19.8787V22.0547L9.40615 20.9667L10.7661 19.8787ZM7.59281 20.9667L6.23281 22.0547V19.8787L7.59281 20.9667ZM6.33368 23.4249L8.49948 21.692L10.7661 23.5053V27.7944C8.93922 26.741 7.41309 25.2365 6.33368 23.4249ZM11.8995 32.8667V19.2667H13.0328V32.8667H11.8995ZM16.9995 20.2867L15.4695 19.2667H18.5295L16.9995 20.2867ZM19.8328 19.7597V22.1759L18.0195 20.9667L19.8328 19.7597ZM15.9795 20.9667L14.1661 22.1748V19.7585L15.9795 20.9667ZM14.1661 29.1318V23.5365L16.9995 21.6467L19.8328 23.5354V29.1306C17.969 29.5656 16.0301 29.566 14.1661 29.1318ZM20.9661 32.8667V19.2667H22.0995V32.8667H20.9661ZM27.7661 22.0547L26.4061 20.9667L27.7661 19.8787V22.0547ZM25.4995 20.2413L24.2811 19.2667H26.7178L25.4995 20.2413ZM24.5928 20.9667L23.2328 22.0547V19.8787L24.5928 20.9667ZM23.2328 27.7944V23.5053L25.4995 21.692L27.6653 23.4249C26.5859 25.2365 25.0597 26.741 23.2328 27.7944ZM30.0328 32.8667H28.8995V19.2667H30.0328V32.8667ZM14.1661 1.7C14.1661 1.54971 14.2258 1.40558 14.3321 1.29931C14.4384 1.19304 14.5825 1.13333 14.7328 1.13333H19.2661C19.4164 1.13333 19.5606 1.19304 19.6668 1.29931C19.7731 1.40558 19.8328 1.54971 19.8328 1.7V3.71053C17.9666 3.29678 16.0324 3.29678 14.1661 3.71053V1.7ZM16.9995 4.53333C19.9093 4.53956 22.7256 5.56233 24.9613 7.42482C27.197 9.28732 28.7117 11.8725 29.2434 14.7333H4.75551C5.28728 11.8725 6.80195 9.28732 9.03767 7.42482C11.2734 5.56233 14.0896 4.53956 16.9995 4.53333ZM2.26615 15.8667H31.7328V18.1333H2.26615V15.8667Z" fill="#0383FD"/>
</svg>
