<svg width="198" height="48" viewBox="0 0 198 48" fill="none" xmlns="http://www.w3.org/2000/svg">
<g clip-path="url(#clip0_14_6628)">
<g clip-path="url(#clip1_14_6628)">
<path d="M24.6014 1.84505C22.377 0.560766 19.6363 0.560766 17.4119 1.84505L3.23955 10.0275C1.27577 11.1612 -0.0223262 13.1438 -0.2996 15.3602C-0.336407 15.6544 -0.355225 15.9528 -0.355225 16.2538V32.6186C-0.355225 34.0848 0.0912948 35.4875 0.888319 36.6602C3.87897 39.79 8.0943 41.7395 12.765 41.7395C16.3789 41.7395 19.7202 40.5724 22.4325 38.5944C26.2548 35.8071 28.828 31.4095 29.1546 26.3993C28.7698 30.5448 25.2819 33.7901 21.0359 33.7901C17.2085 33.7901 13.997 31.1531 13.1192 27.5968L13.0228 27.6144C12.9196 27.2234 12.8302 26.8269 12.7553 26.4252C12.5697 25.4306 12.4727 24.4049 12.4727 23.3565C12.4727 17.9599 15.0434 13.1637 19.0269 10.1256C21.8228 7.99331 25.3146 6.72701 29.1022 6.72701C31.096 6.72701 33.0078 7.07789 34.7793 7.72126L24.6014 1.84505Z" fill="url(#paint0_linear_14_6628)"/>
<path d="M29.1332 24.6697C29.1656 24.9437 29.1843 25.2217 29.1888 25.5032C29.1895 25.4404 29.1899 25.3776 29.1899 25.3146C29.1899 25.0959 29.1856 24.8782 29.1771 24.6617L29.1332 24.6697Z" fill="url(#paint1_linear_14_6628)"/>
<path d="M29.1022 6.72656C31.096 6.72656 33.0078 7.07744 34.7793 7.72081L38.7738 10.027C40.9982 11.3113 42.3685 13.6848 42.3685 16.2534V32.6181C42.3685 35.1867 40.9982 37.5602 38.7738 38.8445L24.6014 47.0269C22.377 48.3112 19.6363 48.3112 17.4119 47.0269L3.23955 38.8445C2.26635 38.2826 1.45664 37.5122 0.853638 36.6083C0.86512 36.6255 0.876684 36.6427 0.888317 36.6598C3.87896 39.7895 8.0943 41.7391 12.765 41.7391C16.3789 41.7391 19.7202 40.5719 22.4325 38.594C26.2548 35.8066 28.828 31.4091 29.1546 26.3988C29.178 26.1476 29.1899 25.893 29.1899 25.6357C29.1899 25.6271 29.1899 25.6184 29.1898 25.6098C29.1899 25.5958 29.1899 25.5817 29.1899 25.5676C29.1899 25.5315 29.1897 25.4956 29.1892 25.4597C29.1897 25.4112 29.1899 25.3627 29.1899 25.3142C29.1899 25.0955 29.1856 24.8778 29.1771 24.6612L29.141 24.6678C28.9791 23.1892 28.4227 21.8295 27.5795 20.6961L21.0359 11.9285L14.4924 20.6961C13.4807 22.0559 12.8819 23.7417 12.8819 25.5676C12.8819 25.5763 12.882 25.5851 12.882 25.5938C12.8819 25.6077 12.8819 25.6217 12.8819 25.6357C12.8819 26.3117 12.9641 26.9685 13.1192 27.5966L13.0228 27.6139C12.9196 27.223 12.8302 26.8264 12.7553 26.4248C12.5697 25.4302 12.4727 24.4045 12.4727 23.356C12.4727 17.9594 15.0434 13.1633 19.0269 10.1251C21.8228 7.99286 25.3146 6.72656 29.1022 6.72656Z" fill="url(#paint2_linear_14_6628)"/>
</g>
<path d="M62.5565 22.3754C61.6236 22.3754 60.7582 22.235 59.9602 21.9541C59.1735 21.6624 58.4879 21.2519 57.9034 20.7226C57.3302 20.1933 56.8806 19.5722 56.5547 18.8592C56.2288 18.1354 56.0658 17.3414 56.0658 16.4772C56.0658 15.6131 56.2288 14.8245 56.5547 14.1115C56.8806 13.3877 57.3302 12.7612 57.9034 12.2319C58.4879 11.7026 59.1735 11.2975 59.9602 11.0166C60.7582 10.7249 61.6236 10.5791 62.5565 10.5791C63.6467 10.5791 64.6189 10.7627 65.4731 11.13C66.3385 11.4973 67.0578 12.0266 67.631 12.718L65.5068 14.5652C65.1246 14.1331 64.7032 13.8036 64.2424 13.5768C63.7928 13.3499 63.287 13.2365 62.7251 13.2365C62.2418 13.2365 61.7978 13.3121 61.3932 13.4634C60.9886 13.6146 60.6402 13.836 60.348 14.1277C60.067 14.4086 59.8422 14.7489 59.6736 15.1485C59.5162 15.5482 59.4376 15.9911 59.4376 16.4772C59.4376 16.9634 59.5162 17.4063 59.6736 17.806C59.8422 18.2056 60.067 18.5513 60.348 18.843C60.6402 19.1239 60.9886 19.3399 61.3932 19.4911C61.7978 19.6424 62.2418 19.718 62.7251 19.718C63.287 19.718 63.7928 19.6046 64.2424 19.3777C64.7032 19.1509 65.1246 18.8214 65.5068 18.3893L67.631 20.2365C67.0578 20.9171 66.3385 21.4464 65.4731 21.8245C64.6189 22.1918 63.6467 22.3754 62.5565 22.3754Z" fill="#ECF5FF"/>
<path d="M72.2073 15.1972H77.6864V17.5953H72.2073V15.1972ZM72.4433 19.6694H78.6136V22.1485H69.1389V10.806H78.3945V13.2851H72.4433V19.6694Z" fill="#ECF5FF"/>
<path d="M80.5154 22.1485V10.806H91.5917V22.1485H88.2873V12.637L89.0291 13.3499H83.078L83.8029 12.637V22.1485H80.5154Z" fill="#ECF5FF"/>
<path d="M96.7276 22.1485V12.637L97.4694 13.3499H93.1029V10.806H103.623V13.3499H99.2733L100.015 12.637V22.1485H96.7276Z" fill="#ECF5FF"/>
<path d="M105.162 22.1485V10.806H108.449V17.4657L113.321 10.806H116.457V22.1485H113.17V15.505L108.314 22.1485H105.162Z" fill="#ECF5FF"/>
<path d="M126.443 22.1485L123.122 16.7527L125.802 15.2296L130.202 22.1485H126.443ZM118.924 22.1485V10.806H122.245V22.1485H118.924ZM121.284 17.806V15.2134H125.566V17.806H121.284ZM126.123 16.8175L123.037 16.4935L126.662 10.806H130.169L126.123 16.8175Z" fill="#ECF5FF"/>
<path d="M56.8076 38.3523V27.0097H59.5556L64.4278 34.7226H62.9779L67.749 27.0097H70.497L70.5307 38.3523H67.4455L67.4287 31.4981H67.9513L64.3941 37.2342H62.9105L59.2521 31.4981H59.8759V38.3523H56.8076Z" fill="#ECF5FF"/>
<path d="M71.8607 38.3523L77.0701 27.0097H80.3576L85.5839 38.3523H82.1109L78.0311 28.5814H79.3461L75.2662 38.3523H71.8607ZM74.7099 36.1485L75.5697 33.7828H81.3354L82.1952 36.1485H74.7099Z" fill="#ECF5FF"/>
<path d="M92.5205 38.5791C91.5877 38.5791 90.7222 38.4387 89.9242 38.1578C89.1375 37.8661 88.4519 37.4556 87.8675 36.9263C87.2943 36.397 86.8447 35.7759 86.5187 35.0629C86.1928 34.3391 86.0298 33.5452 86.0298 32.681C86.0298 31.8168 86.1928 31.0282 86.5187 30.3152C86.8447 29.5914 87.2943 28.9649 87.8675 28.4356C88.4519 27.9063 89.1375 27.5012 89.9242 27.2203C90.7222 26.9286 91.5877 26.7828 92.5205 26.7828C93.6107 26.7828 94.5829 26.9664 95.4371 27.3337C96.3025 27.701 97.0218 28.2303 97.595 28.9217L95.4708 30.7689C95.0887 30.3368 94.6672 30.0073 94.2064 29.7805C93.7568 29.5536 93.2511 29.4402 92.6891 29.4402C92.2058 29.4402 91.7619 29.5158 91.3572 29.6671C90.9526 29.8183 90.6042 30.0397 90.312 30.3314C90.031 30.6123 89.8062 30.9526 89.6376 31.3522C89.4803 31.7519 89.4016 32.1948 89.4016 32.681C89.4016 33.1671 89.4803 33.61 89.6376 34.0097C89.8062 34.4093 90.031 34.755 90.312 35.0467C90.6042 35.3276 90.9526 35.5436 91.3572 35.6948C91.7619 35.8461 92.2058 35.9217 92.6891 35.9217C93.2511 35.9217 93.7568 35.8083 94.2064 35.5814C94.6672 35.3546 95.0887 35.0251 95.4708 34.593L97.595 36.4402C97.0218 37.1208 96.3025 37.6501 95.4371 38.0282C94.5829 38.3955 93.6107 38.5791 92.5205 38.5791Z" fill="#ECF5FF"/>
<path d="M101.617 38.3523V28.8407L102.359 29.5536H97.9927V27.0097H108.513V29.5536H104.163L104.905 28.8407V38.3523H101.617Z" fill="#ECF5FF"/>
<path d="M113.12 31.4009H118.599V33.799H113.12V31.4009ZM113.356 35.8731H119.526V38.3523H110.051V27.0097H119.307V29.4888H113.356V35.8731Z" fill="#ECF5FF"/>
<path d="M121.428 38.3523V27.0097H126.823C127.902 27.0097 128.829 27.1771 129.604 27.512C130.391 27.8468 130.998 28.333 131.425 28.9703C131.852 29.5968 132.066 30.3422 132.066 31.2064C132.066 32.0598 131.852 32.7998 131.425 33.4263C130.998 34.0529 130.391 34.539 129.604 34.8847C128.829 35.2195 127.902 35.387 126.823 35.387H123.282L124.766 33.9935V38.3523H121.428ZM124.766 34.3337L123.282 32.8592H126.62C127.317 32.8592 127.834 32.7134 128.171 32.4217C128.52 32.13 128.694 31.7249 128.694 31.2064C128.694 30.6771 128.52 30.2666 128.171 29.9749C127.834 29.6833 127.317 29.5374 126.62 29.5374H123.282L124.766 28.0629V34.3337Z" fill="#ECF5FF"/>
<path fill-rule="evenodd" clip-rule="evenodd" d="M196.466 26.5436C196.936 25.0311 197.171 23.3161 197.171 21.3986C197.171 19.3978 196.942 17.6649 196.483 16.2C196.037 14.7232 195.367 13.5024 194.474 12.5377C193.592 11.5731 192.487 10.8585 191.159 10.394C189.843 9.9295 188.321 9.69727 186.593 9.69727C184.783 9.69727 183.19 9.97713 181.815 10.5369C180.452 11.0967 179.306 11.9006 178.377 12.9486C177.449 13.9967 176.749 15.271 176.279 16.7717C175.809 18.2604 175.574 19.9397 175.574 21.8095C175.574 23.8461 175.791 25.6087 176.226 27.0974C176.673 28.5862 177.337 29.8129 178.219 30.7776C179.1 31.7423 180.199 32.4628 181.515 32.9392C182.844 33.4037 184.395 33.6359 186.17 33.6359C187.968 33.6359 189.549 33.362 190.912 32.8142C192.287 32.2544 193.439 31.4505 194.368 30.4024C195.296 29.3424 195.996 28.0562 196.466 26.5436ZM192.023 18.3438C192.211 19.3323 192.305 20.4339 192.305 21.6487C192.305 22.7563 192.205 23.8044 192.005 24.7929C191.817 25.7695 191.488 26.627 191.018 27.3654C190.548 28.1038 189.931 28.6874 189.167 29.1161C188.403 29.5449 187.451 29.7593 186.311 29.7593C185.171 29.7593 184.225 29.5747 183.472 29.2055C182.72 28.8244 182.121 28.2765 181.674 27.5619C181.227 26.8473 180.91 25.9898 180.722 24.9894C180.534 23.9771 180.44 22.8397 180.44 21.5773C180.44 20.4935 180.534 19.4692 180.722 18.5046C180.922 17.5279 181.257 16.6764 181.727 15.9499C182.197 15.2234 182.814 14.6458 183.578 14.217C184.342 13.7764 185.294 13.556 186.434 13.556C187.563 13.556 188.503 13.7525 189.255 14.1456C190.007 14.5267 190.607 15.0745 191.053 15.7891C191.512 16.4918 191.835 17.3433 192.023 18.3438Z" fill="#1F93FF"/>
<path fill-rule="evenodd" clip-rule="evenodd" d="M153.06 17.129C153.06 18.4271 152.861 19.5764 152.461 20.5768C152.061 21.5773 151.479 22.4229 150.716 23.1136C149.952 23.7925 149.011 24.3106 147.895 24.6679C146.79 25.0252 145.485 25.2038 143.981 25.2038H142.077V32.5819C142.077 32.701 142.036 32.8082 141.953 32.9035C141.883 32.9987 141.759 33.0762 141.583 33.1357C141.407 33.1953 141.172 33.2429 140.878 33.2786C140.584 33.3143 140.208 33.3322 139.75 33.3322C139.303 33.3322 138.927 33.3143 138.621 33.2786C138.327 33.2429 138.092 33.1953 137.916 33.1357C137.74 33.0762 137.616 32.9987 137.546 32.9035C137.475 32.8082 137.44 32.701 137.44 32.5819V11.7874C137.44 11.2277 137.581 10.8108 137.863 10.5369C138.157 10.2511 138.539 10.1081 139.009 10.1081H144.386C144.927 10.1081 145.438 10.132 145.92 10.1796C146.414 10.2153 147.001 10.3047 147.683 10.4476C148.365 10.5786 149.052 10.8287 149.746 11.1979C150.451 11.5671 151.05 12.0375 151.544 12.6092C152.038 13.169 152.414 13.8299 152.672 14.5922C152.931 15.3425 153.06 16.1881 153.06 17.129ZM148.212 17.4684C148.212 16.6585 148.071 15.9916 147.789 15.4676C147.507 14.9435 147.16 14.5565 146.749 14.3064C146.337 14.0562 145.902 13.9014 145.444 13.8419C144.997 13.7704 144.533 13.7347 144.051 13.7347H142.077V21.5773H144.157C144.898 21.5773 145.515 21.476 146.008 21.2736C146.514 21.0711 146.925 20.7912 147.242 20.4339C147.56 20.0647 147.801 19.63 147.965 19.1298C148.13 18.6177 148.212 18.0639 148.212 17.4684Z" fill="#1F93FF"/>
<path fill-rule="evenodd" clip-rule="evenodd" d="M173.582 32.6176C173.582 32.7486 173.558 32.8618 173.511 32.957C173.464 33.0404 173.353 33.1119 173.176 33.1714C173 33.231 172.741 33.2727 172.401 33.2965C172.06 33.3203 171.596 33.3322 171.008 33.3322C170.514 33.3322 170.12 33.3203 169.827 33.2965C169.533 33.2727 169.298 33.231 169.121 33.1714C168.957 33.1 168.839 33.0166 168.769 32.9213C168.698 32.8142 168.64 32.6891 168.592 32.5462L166.547 27.3833C166.301 26.7997 166.06 26.2816 165.825 25.829C165.589 25.3765 165.325 25.0013 165.031 24.7036C164.749 24.3939 164.42 24.1617 164.044 24.0069C163.668 23.852 163.233 23.7746 162.739 23.7746H161.294V32.5819C161.294 32.701 161.252 32.8082 161.17 32.9035C161.1 32.9987 160.976 33.0762 160.8 33.1357C160.624 33.1953 160.389 33.2429 160.095 33.2786C159.801 33.3143 159.425 33.3322 158.966 33.3322C158.52 33.3322 158.144 33.3143 157.838 33.2786C157.544 33.2429 157.309 33.1953 157.133 33.1357C156.957 33.0762 156.833 32.9987 156.763 32.9035C156.692 32.8082 156.657 32.701 156.657 32.5819V11.5909C156.657 11.0669 156.786 10.6917 157.045 10.4654C157.315 10.2273 157.644 10.1081 158.032 10.1081H163.938C164.538 10.1081 165.031 10.1201 165.419 10.1439C165.807 10.1677 166.16 10.1975 166.477 10.2332C167.394 10.3642 168.216 10.5905 168.945 10.9121C169.686 11.2336 170.309 11.6564 170.814 12.1804C171.331 12.6926 171.725 13.3059 171.995 14.0205C172.265 14.7232 172.401 15.5331 172.401 16.4501C172.401 17.2242 172.301 17.9329 172.101 18.576C171.913 19.2072 171.631 19.7729 171.255 20.2731C170.879 20.7734 170.414 21.2081 169.862 21.5773C169.309 21.9465 168.681 22.2442 167.975 22.4705C168.316 22.6372 168.634 22.8397 168.927 23.0779C169.233 23.3161 169.515 23.6079 169.774 23.9533C170.044 24.2867 170.297 24.6738 170.532 25.1145C170.767 25.5432 170.996 26.0315 171.219 26.5794L173.141 31.1349C173.317 31.5874 173.435 31.9209 173.494 32.1353C173.552 32.3377 173.582 32.4985 173.582 32.6176ZM167.605 16.9325C167.605 16.1702 167.435 15.5271 167.094 15.0031C166.753 14.479 166.195 14.1098 165.419 13.8955C165.184 13.8359 164.914 13.7883 164.608 13.7525C164.314 13.7168 163.903 13.6989 163.374 13.6989H161.294V20.2553H163.656C164.314 20.2553 164.89 20.1779 165.384 20.023C165.877 19.8563 166.289 19.63 166.618 19.3442C166.947 19.0464 167.194 18.6951 167.358 18.2902C167.523 17.8852 167.605 17.4327 167.605 16.9325Z" fill="#1F93FF"/>
<path d="M196.581 37.9267H137.171V39.6973H196.581V37.9267Z" fill="#1F93FF"/>
</g>
<defs>
<linearGradient id="paint0_linear_14_6628" x1="34.4342" y1="41.7395" x2="34.4342" y2="0.607633" gradientUnits="userSpaceOnUse">
<stop stop-color="#017EFC"/>
<stop offset="1" stop-color="#10D4FF"/>
</linearGradient>
<linearGradient id="paint1_linear_14_6628" x1="34.4342" y1="41.7395" x2="34.4342" y2="0.607633" gradientUnits="userSpaceOnUse">
<stop stop-color="#017EFC"/>
<stop offset="1" stop-color="#10D4FF"/>
</linearGradient>
<linearGradient id="paint2_linear_14_6628" x1="21.6111" y1="6.72656" x2="21.6111" y2="47.9901" gradientUnits="userSpaceOnUse">
<stop stop-color="#017EFC"/>
<stop offset="1" stop-color="#10D4FF"/>
</linearGradient>
<clipPath id="clip0_14_6628">
<rect width="198" height="48" fill="white"/>
</clipPath>
<clipPath id="clip1_14_6628">
<rect width="42" height="48" fill="white"/>
</clipPath>
</defs>
</svg>
