<svg width="198" height="48" fill="none" xmlns="http://www.w3.org/2000/svg"><g clip-path="url(#clip0_14_6628)"><g clip-path="url(#clip1_14_6628)"><path d="M24.601 1.845a7.19 7.19 0 00-7.19 0L3.24 10.027a7.19 7.19 0 00-3.595 6.227v16.365c0 1.466.446 2.868 1.243 4.041a16.378 16.378 0 0011.877 5.08 16.35 16.35 0 009.668-3.146A16.406 16.406 0 0029.155 26.4a8.155 8.155 0 01-16.036 1.198l-.096.017a16.537 16.537 0 01-.55-4.258c0-5.396 2.57-10.192 6.554-13.23a16.557 16.557 0 0110.075-3.399c1.994 0 3.906.35 5.677.994L24.601 1.845z" fill="url(#paint0_linear_14_6628)"/><path d="M29.133 24.67c.033.274.051.552.056.833a16.91 16.91 0 00-.012-.841l-.044.008z" fill="url(#paint1_linear_14_6628)"/><path d="M29.102 6.727c1.994 0 3.906.35 5.677.994l3.995 2.306a7.19 7.19 0 013.594 6.226v16.365a7.19 7.19 0 01-3.594 6.226L24.6 47.027a7.19 7.19 0 01-7.19 0L3.24 38.844A7.184 7.184 0 01.888 36.66a16.378 16.378 0 0011.877 5.08 16.35 16.35 0 009.668-3.146 16.406 16.406 0 006.722-12.195c.023-.251.035-.506.035-.763v-.322c0-.218-.004-.436-.013-.653l-.036.007a8.126 8.126 0 00-1.561-3.972l-6.544-8.768-6.544 8.768a8.133 8.133 0 00-1.61 4.872v.068c0 .676.082 1.332.237 1.96l-.096.018a16.534 16.534 0 01-.55-4.258c0-5.397 2.57-10.193 6.554-13.23a16.557 16.557 0 0110.075-3.4z" fill="url(#paint2_linear_14_6628)"/></g><path d="M62.556 22.375c-.932 0-1.798-.14-2.596-.42a6.281 6.281 0 01-2.057-1.232 5.783 5.783 0 01-1.348-1.864 5.735 5.735 0 01-.49-2.382c0-.864.164-1.652.49-2.366a5.734 5.734 0 011.348-1.88 6.065 6.065 0 012.057-1.214 7.506 7.506 0 012.596-.438c1.09 0 2.063.184 2.917.551a5.591 5.591 0 012.158 1.588l-2.124 1.847a4.121 4.121 0 00-1.265-.988 3.32 3.32 0 00-1.517-.34c-.483 0-.927.075-1.332.226a2.891 2.891 0 00-1.045.665c-.281.28-.506.62-.674 1.02a3.59 3.59 0 00-.236 1.33c0 .485.078.928.236 1.328.168.4.393.745.674 1.037.292.28.64.497 1.045.648.405.151.849.227 1.332.227a3.32 3.32 0 001.517-.34 4.125 4.125 0 001.265-.989l2.124 1.848a5.817 5.817 0 01-2.158 1.588c-.854.367-1.826.55-2.916.55zm9.651-7.178h5.48v2.398h-5.48v-2.398zm.236 4.472h6.17v2.48H69.14V10.805h9.255v2.48h-5.95v6.383zm8.072 2.479V10.806h11.077v11.342h-3.305v-9.511l.742.713h-5.951l.725-.713v9.511h-3.288zm16.213 0v-9.511l.741.713h-4.366v-2.544h10.52v2.544h-4.35l.742-.713v9.511h-3.287zm8.434 0V10.806h3.287v6.66l4.872-6.66h3.136v11.342h-3.287v-6.643l-4.856 6.643h-3.152zm21.281 0l-3.321-5.395 2.68-1.523 4.4 6.918h-3.759zm-7.519 0V10.806h3.321v11.342h-3.321zm2.36-4.342v-2.593h4.282v2.593h-4.282zm4.839-.989l-3.086-.323 3.625-5.688h3.507l-4.046 6.011zM56.808 38.352V27.01h2.748l4.872 7.713h-1.45l4.771-7.713h2.748l.034 11.342h-3.086l-.016-6.854h.522l-3.557 5.736H62.91l-3.658-5.736h.624v6.854h-3.068zm15.052 0l5.21-11.342h3.288l5.226 11.342H82.11l-4.08-9.77h1.315l-4.08 9.77H71.86zm2.85-2.203l.86-2.366h5.765l.86 2.365H74.71zm17.81 2.431a7.767 7.767 0 01-2.596-.422 6.28 6.28 0 01-2.056-1.232 5.785 5.785 0 01-1.35-1.863 5.734 5.734 0 01-.488-2.382c0-.864.163-1.653.489-2.366a5.736 5.736 0 011.349-1.88 6.063 6.063 0 012.056-1.215 7.507 7.507 0 012.596-.437c1.09 0 2.063.183 2.917.55a5.591 5.591 0 012.158 1.589l-2.124 1.847a4.12 4.12 0 00-1.265-.988 3.32 3.32 0 00-1.517-.34c-.483 0-.927.075-1.332.226a2.891 2.891 0 00-1.045.664 3.16 3.16 0 00-.674 1.021 3.6 3.6 0 00-.236 1.329c0 .486.078.929.236 1.329.168.4.393.745.674 1.037.292.28.64.497 1.045.648.405.151.849.227 1.332.227a3.32 3.32 0 001.517-.34 4.12 4.12 0 001.265-.989l2.124 1.847a5.817 5.817 0 01-2.158 1.588c-.854.367-1.826.551-2.916.551zm9.097-.228v-9.511l.742.713h-4.366V27.01h10.52v2.544h-4.35l.742-.713v9.511h-3.288zM113.12 31.4h5.479v2.4h-5.479v-2.398zm.236 4.473h6.17v2.48h-9.475V27.01h9.256v2.479h-5.951v6.384zm8.072 2.479V27.01h5.395c1.079 0 2.006.167 2.781.502.787.335 1.394.821 1.821 1.458.427.627.641 1.372.641 2.236 0 .854-.214 1.594-.641 2.22-.427.627-1.034 1.113-1.821 1.459-.775.334-1.702.502-2.781.502h-3.541l1.484-1.394v4.36h-3.338zm3.338-4.018l-1.484-1.475h3.338c.697 0 1.214-.146 1.551-.437.349-.292.523-.697.523-1.216 0-.529-.174-.94-.523-1.231-.337-.292-.854-.438-1.551-.438h-3.338l1.484-1.474v6.27z" fill="#ECF5FF"/><path fill-rule="evenodd" clip-rule="evenodd" d="M196.466 26.544c.47-1.513.705-3.228.705-5.145 0-2.001-.229-3.734-.688-5.199-.446-1.477-1.116-2.698-2.009-3.662-.882-.965-1.987-1.68-3.315-2.144-1.316-.464-2.838-.697-4.566-.697-1.81 0-3.403.28-4.778.84-1.363.56-2.509 1.364-3.438 2.412-.928 1.048-1.628 2.322-2.098 3.823-.47 1.488-.705 3.168-.705 5.038 0 2.036.217 3.799.652 5.287.447 1.49 1.111 2.716 1.993 3.68.881.965 1.98 1.686 3.296 2.162 1.329.465 2.88.697 4.655.697 1.798 0 3.379-.274 4.742-.822 1.375-.56 2.527-1.363 3.456-2.412.928-1.06 1.628-2.346 2.098-3.858zm-4.443-8.2c.188.988.282 2.09.282 3.305 0 1.107-.1 2.155-.3 3.144-.188.977-.517 1.834-.987 2.572a5.147 5.147 0 01-1.851 1.751c-.764.429-1.716.643-2.856.643s-2.086-.184-2.839-.553a4.462 4.462 0 01-1.798-1.644c-.447-.715-.764-1.572-.952-2.573-.188-1.012-.282-2.15-.282-3.412 0-1.084.094-2.108.282-3.072.2-.977.535-1.829 1.005-2.555a5.202 5.202 0 011.851-1.733c.764-.44 1.716-.661 2.856-.661 1.129 0 2.069.197 2.821.59a4.455 4.455 0 011.798 1.643c.459.703.782 1.554.97 2.555zm-38.963-1.215c0 1.298-.199 2.447-.599 3.448-.4 1-.982 1.846-1.745 2.537-.764.678-1.705 1.197-2.821 1.554-1.105.357-2.41.536-3.914.536h-1.904v7.378a.479.479 0 01-.124.322c-.07.095-.194.172-.37.232a3.64 3.64 0 01-.705.143 9.68 9.68 0 01-1.128.053c-.447 0-.823-.018-1.129-.053a3.64 3.64 0 01-.705-.143c-.176-.06-.3-.137-.37-.233a.524.524 0 01-.106-.321V11.787c0-.56.141-.976.423-1.25.294-.286.676-.429 1.146-.429h5.377c.541 0 1.052.024 1.534.072.494.035 1.081.125 1.763.268a7.344 7.344 0 012.063.75 6.09 6.09 0 011.798 1.411c.494.56.87 1.22 1.128 1.983.259.75.388 1.596.388 2.537zm-4.848.34c0-.81-.141-1.477-.423-2.001-.282-.524-.629-.912-1.04-1.162a3.315 3.315 0 00-1.305-.464 8.807 8.807 0 00-1.393-.107h-1.974v7.842h2.08c.741 0 1.358-.101 1.851-.303a3.21 3.21 0 001.234-.84c.318-.37.559-.804.723-1.304a5.389 5.389 0 00.247-1.662zm25.37 15.149a.76.76 0 01-.071.339c-.047.083-.158.155-.335.214-.176.06-.435.102-.775.126-.341.023-.805.035-1.393.035-.494 0-.888-.012-1.181-.035a3.05 3.05 0 01-.706-.126.845.845 0 01-.352-.25 1.594 1.594 0 01-.177-.375l-2.045-5.163a21.6 21.6 0 00-.722-1.554 4.642 4.642 0 00-.794-1.125 2.725 2.725 0 00-.987-.697c-.376-.155-.811-.232-1.305-.232h-1.445v8.807a.484.484 0 01-.124.322c-.07.095-.194.172-.37.232a3.64 3.64 0 01-.705.143c-.294.035-.67.053-1.129.053-.446 0-.822-.018-1.128-.053a3.64 3.64 0 01-.705-.143c-.176-.06-.3-.137-.37-.233a.524.524 0 01-.106-.321V11.59c0-.524.129-.9.388-1.126a1.44 1.44 0 01.987-.357h5.906a21.029 21.029 0 012.539.125c.917.131 1.739.357 2.468.68a5.72 5.72 0 011.869 1.267 5.083 5.083 0 011.181 1.84c.27.703.406 1.513.406 2.43 0 .774-.1 1.483-.3 2.126a5.329 5.329 0 01-.846 1.697 5.66 5.66 0 01-1.393 1.304 7.496 7.496 0 01-1.887.893c.341.167.659.37.952.608.306.238.588.53.847.875.27.334.523.72.758 1.162.235.428.464.917.687 1.464l1.922 4.556c.176.452.294.786.353 1 .058.203.088.364.088.483zm-5.977-15.686c0-.762-.17-1.405-.511-1.929-.341-.524-.899-.893-1.675-1.107a6.304 6.304 0 00-.811-.144 10.875 10.875 0 00-1.234-.053h-2.08v6.556h2.362c.658 0 1.234-.077 1.728-.232.493-.167.905-.393 1.234-.679a2.85 2.85 0 00.74-1.054c.165-.405.247-.857.247-1.357z" fill="#1F93FF"/><path d="M196.581 37.927h-59.41v1.77h59.41v-1.77z" fill="#1F93FF"/></g><defs><linearGradient id="paint0_linear_14_6628" x1="34.434" y1="41.739" x2="34.434" y2=".608" gradientUnits="userSpaceOnUse"><stop stop-color="#017EFC"/><stop offset="1" stop-color="#10D4FF"/></linearGradient><linearGradient id="paint1_linear_14_6628" x1="34.434" y1="41.739" x2="34.434" y2=".608" gradientUnits="userSpaceOnUse"><stop stop-color="#017EFC"/><stop offset="1" stop-color="#10D4FF"/></linearGradient><linearGradient id="paint2_linear_14_6628" x1="21.611" y1="6.727" x2="21.611" y2="47.99" gradientUnits="userSpaceOnUse"><stop stop-color="#017EFC"/><stop offset="1" stop-color="#10D4FF"/></linearGradient><clipPath id="clip0_14_6628"><path fill="#fff" d="M0 0h198v48H0z"/></clipPath><clipPath id="clip1_14_6628"><path fill="#fff" d="M0 0h42v48H0z"/></clipPath></defs></svg>