<svg width="198" height="48" fill="none" xmlns="http://www.w3.org/2000/svg"><g clip-path="url(#clip0_8_28795)"><g clip-path="url(#clip1_8_28795)"><path d="M24.601 1.845a7.19 7.19 0 00-7.19 0L3.24 10.027a7.19 7.19 0 00-3.595 6.226v16.365c0 1.467.446 2.87 1.243 4.042a16.378 16.378 0 0011.877 5.08 16.35 16.35 0 009.668-3.146A16.406 16.406 0 0029.155 26.4a8.155 8.155 0 01-16.036 1.198l-.096.017a16.534 16.534 0 01-.55-4.258c0-5.396 2.57-10.193 6.554-13.23a16.557 16.557 0 0110.075-3.4c1.994 0 3.906.352 5.677.995L24.601 1.845z" fill="url(#paint0_linear_8_28795)"/><path d="M29.133 24.67c.033.273.051.551.056.833a16.925 16.925 0 00-.012-.842l-.044.008z" fill="url(#paint1_linear_8_28795)"/><path d="M29.102 6.727c1.994 0 3.906.35 5.677.994l3.995 2.306a7.19 7.19 0 013.594 6.227v16.364a7.19 7.19 0 01-3.594 6.227L24.6 47.027a7.19 7.19 0 01-7.19 0L3.24 38.845A7.182 7.182 0 01.888 36.66a16.378 16.378 0 0011.877 5.08 16.35 16.35 0 009.668-3.146A16.406 16.406 0 0029.155 26.4a8.23 8.23 0 00.035-.763v-.322c0-.218-.004-.436-.013-.652l-.036.006a8.126 8.126 0 00-1.561-3.972l-6.544-8.767-6.544 8.767a8.133 8.133 0 00-1.61 4.872v.068c0 .676.082 1.333.237 1.96l-.096.018a16.537 16.537 0 01-.55-4.258c0-5.396 2.57-10.193 6.554-13.23a16.557 16.557 0 0110.075-3.4z" fill="url(#paint2_linear_8_28795)"/></g><path d="M62.556 22.375a7.77 7.77 0 01-2.596-.421 6.281 6.281 0 01-2.057-1.232 5.785 5.785 0 01-1.348-1.863 5.735 5.735 0 01-.49-2.382c0-.864.164-1.653.49-2.366a5.734 5.734 0 011.348-1.88 6.062 6.062 0 012.057-1.214 7.506 7.506 0 012.596-.438c1.09 0 2.063.184 2.917.55a5.591 5.591 0 012.158 1.589l-2.124 1.847a4.121 4.121 0 00-1.265-.988 3.32 3.32 0 00-1.517-.34c-.483 0-.927.075-1.332.226a2.893 2.893 0 00-1.045.665c-.281.28-.506.62-.674 1.02a3.59 3.59 0 00-.236 1.33c0 .485.078.928.236 1.328.168.4.393.745.674 1.037.292.28.64.497 1.045.648.405.151.849.227 1.332.227.562 0 1.068-.114 1.517-.34a4.125 4.125 0 001.265-.989l2.124 1.847a5.818 5.818 0 01-2.158 1.588c-.854.368-1.826.551-2.916.551zm9.651-7.178h5.48v2.398h-5.48v-2.398zm.236 4.472h6.17v2.48H69.14V10.805h9.255v2.479h-5.95v6.384zm8.072 2.479V10.806h11.077v11.342h-3.305v-9.511l.742.713h-5.951l.725-.713v9.511h-3.288zm16.213 0v-9.511l.741.713h-4.366v-2.544h10.52v2.544h-4.35l.742-.713v9.511h-3.287zm8.434 0V10.806h3.287v6.66l4.872-6.66h3.136v11.342h-3.287v-6.643l-4.856 6.643h-3.152zm21.281 0l-3.321-5.395 2.68-1.524 4.4 6.92h-3.759zm-7.519 0V10.806h3.321v11.342h-3.321zm2.36-4.342v-2.593h4.282v2.593h-4.282zm4.839-.989l-3.086-.324 3.625-5.687h3.507l-4.046 6.011zM56.808 38.352V27.01h2.748l4.872 7.712h-1.45l4.771-7.713h2.748l.034 11.343h-3.086l-.016-6.854h.522l-3.557 5.736H62.91l-3.658-5.736h.624v6.854h-3.068zm15.052 0l5.21-11.342h3.288l5.226 11.342H82.11l-4.08-9.77h1.315l-4.08 9.77H71.86zm2.85-2.204l.86-2.365h5.765l.86 2.365H74.71zm17.81 2.431a7.77 7.77 0 01-2.596-.421 6.28 6.28 0 01-2.056-1.232 5.786 5.786 0 01-1.35-1.863 5.735 5.735 0 01-.488-2.382c0-.864.163-1.653.489-2.366a5.736 5.736 0 011.349-1.88 6.06 6.06 0 012.056-1.215 7.507 7.507 0 012.596-.437c1.09 0 2.063.183 2.917.55a5.591 5.591 0 012.158 1.589l-2.124 1.847a4.12 4.12 0 00-1.265-.989 3.32 3.32 0 00-1.517-.34c-.483 0-.927.076-1.332.227a2.893 2.893 0 00-1.045.664 3.15 3.15 0 00-.674 1.021 3.6 3.6 0 00-.236 1.329c0 .486.078.929.236 1.329.168.4.393.745.674 1.037.292.28.64.497 1.045.648.405.151.849.227 1.332.227.562 0 1.068-.114 1.517-.34a4.13 4.13 0 001.265-.99l2.124 1.848a5.818 5.818 0 01-2.158 1.588c-.854.367-1.826.551-2.916.551zm9.097-.227v-9.511l.742.712h-4.366V27.01h10.52v2.544h-4.35l.742-.712v9.511h-3.288zM113.12 31.4h5.479v2.4h-5.479v-2.4zm.236 4.473h6.17v2.48h-9.475V27.008h9.256v2.48h-5.951v6.384zm8.072 2.479V27.01h5.395c1.079 0 2.006.167 2.781.502.787.335 1.394.82 1.821 1.458.427.627.641 1.372.641 2.236 0 .854-.214 1.594-.641 2.22-.427.627-1.034 1.113-1.821 1.459-.775.334-1.702.502-2.781.502h-3.541l1.484-1.394v4.36h-3.338zm3.338-4.018l-1.484-1.475h3.338c.697 0 1.214-.146 1.551-.437.349-.292.523-.697.523-1.216 0-.529-.174-.94-.523-1.231-.337-.292-.854-.438-1.551-.438h-3.338l1.484-1.474v6.27z" fill="#062F61"/><path fill-rule="evenodd" clip-rule="evenodd" d="M196.466 26.544c.47-1.513.705-3.228.705-5.145 0-2.001-.229-3.734-.688-5.199-.446-1.477-1.116-2.697-2.009-3.662-.882-.965-1.987-1.68-3.315-2.144-1.316-.464-2.838-.697-4.566-.697-1.81 0-3.403.28-4.778.84-1.363.56-2.509 1.364-3.438 2.412-.928 1.048-1.628 2.322-2.098 3.823-.47 1.489-.705 3.168-.705 5.038 0 2.036.217 3.799.652 5.288.447 1.488 1.111 2.715 1.993 3.68.881.964 1.98 1.685 3.296 2.161 1.329.465 2.88.697 4.655.697 1.798 0 3.379-.274 4.742-.822 1.375-.56 2.527-1.363 3.456-2.412.928-1.06 1.628-2.346 2.098-3.858zm-4.443-8.2c.188.988.282 2.09.282 3.305 0 1.107-.1 2.155-.3 3.144-.188.977-.517 1.834-.987 2.573a5.148 5.148 0 01-1.851 1.75c-.764.429-1.716.643-2.856.643s-2.086-.184-2.839-.553a4.462 4.462 0 01-1.798-1.644c-.447-.715-.764-1.572-.952-2.573-.188-1.012-.282-2.15-.282-3.412 0-1.083.094-2.108.282-3.072.2-.977.535-1.828 1.005-2.555a5.202 5.202 0 011.851-1.733c.764-.44 1.716-.66 2.856-.66 1.129 0 2.069.196 2.821.589a4.456 4.456 0 011.798 1.643c.459.703.782 1.554.97 2.555zM153.06 17.13c0 1.297-.199 2.447-.599 3.447-.4 1-.982 1.846-1.745 2.537-.764.679-1.705 1.197-2.821 1.554-1.105.357-2.41.536-3.914.536h-1.904v7.378c0 .12-.041.226-.124.322-.07.095-.194.172-.37.232a3.64 3.64 0 01-.705.143c-.294.035-.67.053-1.128.053-.447 0-.823-.017-1.129-.053a3.64 3.64 0 01-.705-.143c-.176-.06-.3-.137-.37-.232a.524.524 0 01-.106-.322V11.788c0-.56.141-.977.423-1.251.294-.286.676-.429 1.146-.429h5.377c.541 0 1.052.024 1.534.072a13.57 13.57 0 011.763.268 7.344 7.344 0 012.063.75 6.09 6.09 0 011.798 1.411c.494.56.87 1.221 1.128 1.983.259.75.388 1.596.388 2.537zm-4.848.338c0-.81-.141-1.476-.423-2-.282-.524-.629-.911-1.04-1.162a3.316 3.316 0 00-1.305-.464 8.807 8.807 0 00-1.393-.107h-1.974v7.842h2.08c.741 0 1.358-.1 1.851-.303a3.21 3.21 0 001.234-.84c.318-.37.559-.804.723-1.304a5.389 5.389 0 00.247-1.662zm25.37 15.15a.76.76 0 01-.071.34c-.047.083-.158.154-.335.214-.176.06-.435.1-.775.125-.341.023-.805.035-1.393.035-.494 0-.888-.012-1.181-.035a3.05 3.05 0 01-.706-.125.845.845 0 01-.352-.25 1.594 1.594 0 01-.177-.376l-2.045-5.163a21.596 21.596 0 00-.722-1.554 4.642 4.642 0 00-.794-1.125 2.727 2.727 0 00-.987-.697c-.376-.155-.811-.232-1.305-.232h-1.445v8.807c0 .12-.042.226-.124.322-.07.095-.194.172-.37.232a3.64 3.64 0 01-.705.143c-.294.035-.67.053-1.129.053-.446 0-.822-.017-1.128-.053a3.64 3.64 0 01-.705-.143c-.176-.06-.3-.137-.37-.232a.524.524 0 01-.106-.322V11.591c0-.524.129-.9.388-1.125a1.44 1.44 0 01.987-.358h5.906a21.029 21.029 0 012.539.125c.917.131 1.739.358 2.468.68a5.721 5.721 0 011.869 1.268 5.081 5.081 0 011.181 1.84c.27.702.406 1.512.406 2.43 0 .773-.1 1.482-.3 2.125a5.33 5.33 0 01-.846 1.697 5.66 5.66 0 01-1.393 1.304 7.496 7.496 0 01-1.887.894c.341.166.659.369.952.607.306.238.588.53.847.875.27.334.523.72.758 1.162.235.428.464.917.687 1.465l1.922 4.555c.176.452.294.786.353 1 .058.203.088.364.088.483zm-5.977-15.685c0-.763-.17-1.406-.511-1.93-.341-.524-.899-.893-1.675-1.107a6.288 6.288 0 00-.811-.143 10.851 10.851 0 00-1.234-.054h-2.08v6.556h2.362c.658 0 1.234-.077 1.728-.232.493-.167.905-.393 1.234-.679.329-.297.576-.649.74-1.054.165-.405.247-.857.247-1.357z" fill="#1F93FF"/><path d="M196.581 37.927h-59.41v1.77h59.41v-1.77z" fill="#1F93FF"/></g><defs><linearGradient id="paint0_linear_8_28795" x1="34.434" y1="41.739" x2="34.434" y2=".607" gradientUnits="userSpaceOnUse"><stop stop-color="#017EFC"/><stop offset="1" stop-color="#10D4FF"/></linearGradient><linearGradient id="paint1_linear_8_28795" x1="34.434" y1="41.739" x2="34.434" y2=".607" gradientUnits="userSpaceOnUse"><stop stop-color="#017EFC"/><stop offset="1" stop-color="#10D4FF"/></linearGradient><linearGradient id="paint2_linear_8_28795" x1="21.611" y1="6.727" x2="21.611" y2="47.99" gradientUnits="userSpaceOnUse"><stop stop-color="#017EFC"/><stop offset="1" stop-color="#10D4FF"/></linearGradient><clipPath id="clip0_8_28795"><path fill="#fff" d="M0 0h198v48H0z"/></clipPath><clipPath id="clip1_8_28795"><path fill="#fff" d="M0 0h42v48H0z"/></clipPath></defs></svg>