<?xml version="1.0" encoding="utf-8"?><svg xmlns="http://www.w3.org/2000/svg" xmlns:xlink="http://www.w3.org/1999/xlink"><symbol viewBox="0 0 8 6" id="arrow" xmlns="http://www.w3.org/2000/svg"><path fill-rule="evenodd" clip-rule="evenodd" d="M7.454 1.972A.862.862 0 0 0 6.235.752L4 2.988 1.765.753a.862.862 0 0 0-1.22 1.219L3.39 4.817a.862.862 0 0 0 1.22 0l2.844-2.845z"/></symbol><symbol viewBox="0 0 8 6" id="arrow-light" xmlns="http://www.w3.org/2000/svg"><path fill-rule="evenodd" clip-rule="evenodd" d="M7.622 1.804A.625.625 0 0 0 6.738.92L4 3.658 1.262.92a.625.625 0 0 0-.884.884l3.18 3.18a.625.625 0 0 0 .884 0l3.18-3.18z"/></symbol><symbol viewBox="0 0 20 20" id="chart" xmlns="http://www.w3.org/2000/svg"><path fill-rule="evenodd" clip-rule="evenodd" d="M1.75 17.5a.75.75 0 0 1 .75-.75h15a.75.75 0 0 1 0 1.5h-15a.75.75 0 0 1-.75-.75z"/><path fill-rule="evenodd" clip-rule="evenodd" d="M11.944 18.25a.75.75 0 0 1-.75-.75v-10a.75.75 0 0 1 .75-.75H15c.874 0 1.583.71 1.583 1.583V17.5a.75.75 0 0 1-.75.75h-3.889zm.75-1.5h2.39V8.333A.084.084 0 0 0 15 8.25h-2.306v8.5z"/><path fill-rule="evenodd" clip-rule="evenodd" d="M8.056 18.25a.75.75 0 0 1-.75-.75V3.333c0-.874.709-1.583 1.583-1.583h2.223c.874 0 1.583.71 1.583 1.583V17.5a.75.75 0 0 1-.75.75h-3.89zm.75-1.5h2.389V3.333a.084.084 0 0 0-.083-.083H8.889a.084.084 0 0 0-.083.083V16.75z"/><path fill-rule="evenodd" clip-rule="evenodd" d="M4.167 18.25a.75.75 0 0 1-.75-.75V5.833c0-.874.709-1.583 1.583-1.583h3.056a.75.75 0 0 1 .75.75v12.5a.75.75 0 0 1-.75.75h-3.89zm.75-1.5h2.389v-11H5a.084.084 0 0 0-.083.083V16.75z"/></symbol><symbol viewBox="0 0 20 20" id="clock" xmlns="http://www.w3.org/2000/svg"><path fill-rule="evenodd" clip-rule="evenodd" d="M13.189 2.3A8.333 8.333 0 1 0 6.811 17.7 8.333 8.333 0 0 0 13.189 2.3zM10 3.334a6.666 6.666 0 1 1 0 13.333 6.666 6.666 0 0 1 0-13.333zM10 5a.833.833 0 0 0-.833.833V10c0 .278.139.539.37.693l2.5 1.667a.833.833 0 0 0 .925-1.387l-2.129-1.42v-3.72A.833.833 0 0 0 10 5z"/></symbol><symbol viewBox="0 0 20 20" id="email" xmlns="http://www.w3.org/2000/svg"><path fill-rule="evenodd" clip-rule="evenodd" d="M1.763 6.292a2.876 2.876 0 0 1 2.875-2.875h10.736a2.876 2.876 0 0 1 1.614 5.256m0 0l-3.755 2.546a5.75 5.75 0 0 1-6.453 0L3.025 8.673a2.876 2.876 0 0 1-1.262-2.38m1.5 0c0 .456.225.882.604 1.138l3.755 2.546a4.25 4.25 0 0 0 4.769 0l3.755-2.545a1.375 1.375 0 0 0-.772-2.516H4.638c-.76 0-1.375.616-1.375 1.376z"/><path fill-rule="evenodd" clip-rule="evenodd" d="M2.5 5.542a.75.75 0 0 1 .75.75v7.875c0 .966.783 1.75 1.75 1.75h10a1.75 1.75 0 0 0 1.75-1.75V6.293a.75.75 0 0 1 1.5 0v7.874a3.25 3.25 0 0 1-3.25 3.25H5a3.25 3.25 0 0 1-3.25-3.25V6.292a.75.75 0 0 1 .75-.75z"/></symbol><symbol viewBox="0 0 24 24" id="eye" xmlns="http://www.w3.org/2000/svg"><path fill-rule="evenodd" clip-rule="evenodd" d="M7.416 7.547C5.96 8.674 4.678 10.223 3.778 11.89l-.66-.357.66.356a.237.237 0 0 0 0 .223c.9 1.665 2.181 3.215 3.639 4.342 1.461 1.13 3.051 1.797 4.583 1.797s3.122-.668 4.584-1.797c1.457-1.127 2.738-2.676 3.638-4.342a.237.237 0 0 0 0-.222c-.9-1.665-2.181-3.215-3.639-4.342C15.123 6.417 13.533 5.75 12 5.75s-3.122.668-4.584 1.797zM6.5 6.36C8.132 5.1 10.037 4.25 12 4.25c1.963 0 3.868.849 5.5 2.11 1.637 1.266 3.05 2.982 4.042 4.816a1.737 1.737 0 0 1 0 1.648c-.992 1.835-2.405 3.55-4.041 4.816-1.633 1.261-3.538 2.11-5.501 2.11-1.963 0-3.868-.849-5.5-2.11-1.637-1.266-3.05-2.982-4.042-4.816a1.737 1.737 0 0 1 0-1.648C3.45 9.341 4.863 7.625 6.5 6.36z"/><path fill-rule="evenodd" clip-rule="evenodd" d="M13.616 10.384a2.286 2.286 0 1 0-3.232 3.232 2.286 2.286 0 0 0 3.232-3.232zm1.01-1.01a3.714 3.714 0 1 0-5.252 5.252 3.714 3.714 0 0 0 5.252-5.252z"/></symbol><symbol viewBox="0 0 20 20" id="heart" xmlns="http://www.w3.org/2000/svg"><path fill-rule="evenodd" clip-rule="evenodd" d="M6.917 4.083c-2.118 0-3.667 2.03-3.667 4.05 0 .974.383 1.949 1.024 2.892.64.942 1.508 1.811 2.406 2.558.894.745 1.796 1.35 2.483 1.77.343.21.629.37.83.478l.007.004.008-.004c.2-.107.486-.268.83-.478a21.41 21.41 0 0 0 2.482-1.77c.897-.747 1.766-1.616 2.406-2.558.641-.944 1.024-1.918 1.024-2.892 0-2.02-1.549-4.05-3.667-4.05-1.234 0-2.035.608-2.515 1.165a.75.75 0 0 1-1.136 0c-.48-.557-1.28-1.165-2.515-1.165zM1.75 8.133c0-2.612 2.001-5.55 5.167-5.55 1.37 0 2.382.528 3.083 1.122a4.665 4.665 0 0 1 3.083-1.122c3.166 0 5.167 2.938 5.167 5.55 0 1.372-.538 2.638-1.283 3.735-.745 1.097-1.726 2.068-2.687 2.868a22.88 22.88 0 0 1-2.66 1.897c-.367.224-.679.4-.907.521a7.433 7.433 0 0 1-.392.194 1.068 1.068 0 0 1-.139.047.77.77 0 0 1-.363 0h-.001a.82.82 0 0 1-.139-.047 7.393 7.393 0 0 1-.393-.194 18.23 18.23 0 0 1-.905-.52 22.878 22.878 0 0 1-2.66-1.898c-.962-.8-1.943-1.77-2.688-2.869-.745-1.096-1.283-2.362-1.283-3.734z"/></symbol><symbol viewBox="0 0 24 24" id="mark" xmlns="http://www.w3.org/2000/svg"><path fill-rule="evenodd" clip-rule="evenodd" d="M16.746 6.552a6.712 6.712 0 0 0-9.493 9.493l4.034 4.033a1.009 1.009 0 0 0 1.426 0l4.033-4.033a6.712 6.712 0 0 0 0-9.493zm1.06-1.06a8.212 8.212 0 0 1 0 11.614l-4.033 4.033c-.98.98-2.567.98-3.547 0l-4.033-4.033A8.212 8.212 0 1 1 17.807 5.492z"/><path fill-rule="evenodd" clip-rule="evenodd" d="M16.746 6.552a6.712 6.712 0 0 0-9.493 9.493l4.034 4.033a1.009 1.009 0 0 0 1.426 0l4.033-4.033a6.712 6.712 0 0 0 0-9.493zm1.06-1.06a8.212 8.212 0 0 1 0 11.614l-4.033 4.033c-.98.98-2.567.98-3.547 0l-4.033-4.033A8.212 8.212 0 1 1 17.807 5.492z"/><path fill-rule="evenodd" clip-rule="evenodd" d="M8.69 11.299a3.31 3.31 0 1 1 6.62 0 3.31 3.31 0 0 1-6.62 0zM12 9.489a1.81 1.81 0 1 0 0 3.62 1.81 1.81 0 0 0 0-3.62z"/></symbol><symbol viewBox="0 0 20 20" id="search" xmlns="http://www.w3.org/2000/svg"><path fill-rule="evenodd" clip-rule="evenodd" d="M12.565 6.229a4.48 4.48 0 1 0-6.336 6.335 4.48 4.48 0 0 0 6.336-6.335zm1.06-1.061a5.98 5.98 0 1 0-8.457 8.457 5.98 5.98 0 0 0 8.457-8.457z"/><path fill-rule="evenodd" clip-rule="evenodd" d="M12.561 12.562a.75.75 0 0 1 1.061 0l2.742 2.741a.75.75 0 0 1-1.061 1.06l-2.742-2.74a.75.75 0 0 1 0-1.061z"/></symbol><symbol viewBox="0 0 20 20" id="telegram" xmlns="http://www.w3.org/2000/svg"><path d="M8.222 12.075l-.273 3.641c.39 0 .56-.159.763-.35l1.834-1.66 3.798 2.636c.697.367 1.188.174 1.376-.607l2.493-11.07c.222-.975-.372-1.357-1.05-1.118L2.506 8.863c-1 .368-.985.896-.17 1.136l3.747 1.104 8.704-5.16c.41-.256.782-.114.476.143l-7.04 5.989z"/></symbol><symbol viewBox="0 0 24 24" id="user" xmlns="http://www.w3.org/2000/svg"><path fill-rule="evenodd" clip-rule="evenodd" d="M17.834 6.166A8.25 8.25 0 1 0 6.166 17.833 8.25 8.25 0 0 0 17.834 6.167zm1.06-1.06c3.808 3.807 3.808 9.98 0 13.788-3.807 3.808-9.98 3.808-13.788 0-3.808-3.807-3.808-9.98 0-13.788 3.807-3.808 9.98-3.808 13.788 0z"/><path fill-rule="evenodd" clip-rule="evenodd" d="M5.959 19.104c.487-2.335 3.156-3.854 6.04-3.854 2.885 0 5.555 1.52 6.042 3.854a.75.75 0 1 1-1.468.306c-.281-1.345-2.048-2.66-4.573-2.66-2.526 0-4.292 1.315-4.573 2.66a.75.75 0 0 1-1.468-.306zM13.59 8.409a2.25 2.25 0 1 0-3.181 3.182 2.25 2.25 0 0 0 3.182-3.182zm1.062-1.06a3.75 3.75 0 1 0-5.304 5.303 3.75 3.75 0 0 0 5.303-5.304z"/></symbol><symbol viewBox="0 0 20 20" id="viber" xmlns="http://www.w3.org/2000/svg"><path d="M12.278 2.609h-3.2c-3.08 0-5.6 2.52-5.6 5.6v2.4c0 2.16 1.26 4.14 3.2 5.06v2.68c0 .24.3.36.46.18l2.32-2.32h2.82c3.08 0 5.6-2.52 5.6-5.6v-2.4c0-3.08-2.52-5.6-5.6-5.6zm2.1 10.5l-.82.8c-.86.84-3.08-.12-5.04-2.12s-2.82-4.24-2-5.08l.8-.8c.3-.3.8-.28 1.14.02l1.16 1.2c.42.42.24 1.14-.3 1.3-.38.12-.64.54-.52.92.2.88 1.32 2 2.16 2.22.38.08.8-.12.94-.5.18-.54.9-.7 1.3-.28l1.16 1.2c.32.28.32.78.02 1.12zm-2.98-6.7c-.08 0-.16 0-.24.02-.14.02-.28-.1-.3-.24-.02-.14.1-.28.24-.3.1-.02.2-.02.3-.02 1.46 0 2.66 1.2 2.66 2.66 0 .1 0 .2-.02.3-.02.14-.16.26-.3.24-.14-.02-.26-.16-.24-.3 0-.08.02-.16.02-.24.02-1.16-.94-2.12-2.12-2.12zm1.6 2.14c0 .14-.12.26-.26.26s-.26-.12-.26-.26c0-.58-.48-1.06-1.06-1.06-.14 0-.26-.12-.26-.26s.12-.26.26-.26c.86-.02 1.58.7 1.58 1.58zm2.04.86a.28.28 0 0 1-.34.2.257.257 0 0 1-.18-.32 3 3 0 0 0 .08-.74c0-1.76-1.44-3.2-3.2-3.2h-.24c-.14 0-.28-.1-.28-.24 0-.14.1-.28.24-.28.1 0 .2-.02.28-.02 2.06 0 3.74 1.68 3.74 3.74 0 .28-.04.58-.1.86z"/></symbol><symbol viewBox="0 0 20 20" id="whatsapp" xmlns="http://www.w3.org/2000/svg"><path d="M10 1.667a8.333 8.333 0 1 1-4.19 15.537l-4.14 1.13 1.127-4.14A8.333 8.333 0 0 1 10 1.666zM7.16 6.083l-.166.007a.8.8 0 0 0-.31.083c-.09.051-.173.115-.245.19-.1.094-.157.176-.217.255-.309.4-.475.893-.472 1.399.002.408.108.805.275 1.177.34.752.902 1.547 1.642 2.285.178.178.353.356.541.522a7.875 7.875 0 0 0 3.2 1.705l.474.072c.154.008.308-.003.463-.01.243-.013.48-.079.694-.193.11-.056.216-.118.32-.183 0 0 .035-.024.104-.075.112-.084.181-.143.275-.24a.954.954 0 0 0 .175-.252c.064-.136.13-.395.156-.611.02-.165.014-.255.012-.31-.003-.09-.078-.182-.159-.222l-.485-.217s-.724-.316-1.168-.518a.415.415 0 0 0-.146-.034.4.4 0 0 0-.316.106c-.004-.002-.06.046-.662.776a.292.292 0 0 1-.307.108 1.206 1.206 0 0 1-.159-.055c-.103-.043-.139-.06-.21-.09a5.018 5.018 0 0 1-1.312-.836c-.105-.091-.203-.191-.303-.288a5.248 5.248 0 0 1-.85-1.057l-.049-.079a.77.77 0 0 1-.085-.17c-.032-.123.05-.221.05-.221s.203-.222.297-.342c.092-.117.17-.23.22-.311.098-.158.129-.32.077-.447a69.393 69.393 0 0 0-.723-1.7c-.05-.112-.195-.192-.328-.208a3.692 3.692 0 0 0-.135-.013 2.82 2.82 0 0 0-.336.003l.168-.007v.001z"/></symbol></svg>